<svg width="105" height="123" viewBox="0 0 105 123" fill="none" xmlns="http://www.w3.org/2000/svg">
<g id="Layer_1">
<path id="Vector" d="M63.0442 85.7646V95.7165C55.767 99.3692 47.2274 99.3692 39.9873 95.7165V85.7646" stroke="white" stroke-linejoin="round"/>
<path id="Vector_2" d="M51.535 38.8009C55.5131 38.8009 58.738 35.5635 58.738 31.57C58.738 27.5765 55.5131 24.3391 51.535 24.3391C47.5569 24.3391 44.332 27.5765 44.332 31.57C44.332 35.5635 47.5569 38.8009 51.535 38.8009Z" stroke="white" stroke-linejoin="round"/>
<path id="Vector_3" d="M103.143 120.391C103.143 114.353 98.2794 109.433 92.2274 109.433C86.1754 109.433 81.6829 114.055 81.3858 119.832C80.7918 119.608 80.1606 119.496 79.4923 119.496C77.97 119.496 76.5591 120.13 75.5566 121.136C74.5541 118.49 72.0294 116.626 69.0591 116.626C67.6111 116.626 66.2744 117.074 65.1606 117.819C64.6779 116.44 63.8611 115.173 62.8215 114.166L62.5987 113.98L60.5938 96.76" stroke="white" stroke-linejoin="round"/>
<path id="Vector_4" d="M42.401 96.76L40.396 113.98C39.2822 115.024 38.3911 116.365 37.8713 117.856C36.7574 117.111 35.4208 116.664 33.9728 116.664C31.0025 116.664 28.4777 118.527 27.4753 121.174C26.4728 120.167 25.099 119.534 23.5396 119.534C23.354 119.534 23.1683 119.534 22.9827 119.571C22.4258 114.204 17.9703 110.029 12.4753 110.029C6.60892 110.029 1.85645 114.8 1.85645 120.689" stroke="white" stroke-linejoin="round"/>
<path id="Vector_5" d="M30.1114 43.8699C30.1114 36.0053 32.2277 28.2899 36.2005 21.5063L45.8539 5.10625C47.0421 3.09353 49.1955 1.86353 51.4975 1.86353C53.7995 1.86353 55.953 3.09353 57.1411 5.10625L66.7945 21.5063C70.7673 28.2899 72.8836 36.0053 72.8836 43.8699V63.5499L69.1336 73.5017V85.7644H33.7871V73.5017L30.0371 63.5499V43.8699H30.1114Z" stroke="white" stroke-linejoin="round"/>
<path id="Vector_6" d="M30.1114 36.4155L1.85645 55.3128V64.7055H30.1114" stroke="white" stroke-linejoin="round"/>
<path id="Vector_7" d="M72.9209 36.3037L101.361 55.3128V64.7428H72.9209" stroke="white" stroke-linejoin="round"/>
<path id="Vector_8" d="M81.9062 64.78H94.5671V70.0355C94.5671 73.5391 91.7454 76.3718 88.2553 76.3718C84.7652 76.3718 81.9434 73.5391 81.9434 70.0355V64.78H81.9062Z" stroke="white" stroke-linejoin="round"/>
<path id="Vector_9" d="M7.72266 64.7427H20.4207V69.9981C20.4207 73.539 17.5618 76.3718 14.0717 76.3718C10.5444 76.3718 7.72266 73.5018 7.72266 69.9981V64.7427Z" stroke="white" stroke-linejoin="round"/>
<path id="Vector_10" d="M69.1707 73.5017H33.8613" stroke="white" stroke-linejoin="round"/>
</g>
</svg>
