<svg width="125" height="109" viewBox="0 0 125 109" fill="none" xmlns="http://www.w3.org/2000/svg">
<g clip-path="url(#clip0_222_1493)">
<path d="M47.6514 109V87.2373" stroke="white" stroke-miterlimit="10"/>
<path d="M77.3486 87.2373V109" stroke="white" stroke-miterlimit="10"/>
<path d="M47.6515 59.3691V87.1997H42.9167C38.5606 87.1997 35 81.2815 35 76.974V53.5633C35 46.8585 40.1136 40.9777 47.4242 39.2547C57.3106 36.8949 67.6515 36.8949 77.5379 39.2547C84.8864 40.9777 89.9621 46.8585 89.9621 53.5633V76.974C89.9621 81.2815 86.4015 87.1997 82.0455 87.1997H77.3106V59.3691" stroke="white" stroke-miterlimit="10"/>
<path d="M61.8557 4.38232H63.1436C69.2042 4.38232 73.9012 9.58885 73.1815 15.5445L72.5375 20.9758C71.9315 26.0325 67.6133 29.8157 62.4997 29.8157C57.386 29.8157 53.0678 25.995 52.4618 20.9758L51.8178 15.5445C51.136 9.58885 55.833 4.38232 61.8557 4.38232Z" stroke="white" stroke-miterlimit="10"/>
<path d="M13.4463 99.4113V79.5591" stroke="white" stroke-miterlimit="10"/>
<path d="M13.4466 54.1256V79.5215H9.1284C5.15113 79.5215 1.89355 74.1277 1.89355 70.1947V48.8442C1.89355 42.7387 6.55265 37.3449 13.2572 35.7717C22.3102 33.6366 31.7042 33.6366 40.7572 35.7717C43.4466 36.4085 45.7951 37.6445 47.6511 39.2927" stroke="white" stroke-miterlimit="10"/>
<path d="M26.4391 1.91064H27.6133C33.1436 1.91064 37.424 6.66769 36.78 12.099L36.2118 17.0433C35.6815 21.6505 31.7421 25.134 27.0452 25.134C22.3482 25.134 18.4088 21.6505 17.8785 17.0433L17.3103 12.099C16.6664 6.66769 20.9467 1.91064 26.477 1.91064H26.4391Z" stroke="white" stroke-miterlimit="10"/>
<path d="M111.515 79.5591V99.4488" stroke="white" stroke-miterlimit="10"/>
<path d="M77.3477 39.2927C79.2037 37.6445 81.5522 36.4085 84.2416 35.7717C93.2946 33.6366 102.726 33.6366 111.742 35.7717C118.446 37.3449 123.105 42.7387 123.105 48.8442V70.2322C123.105 74.1652 119.886 79.559 115.87 79.559H111.514V54.1256" stroke="white" stroke-miterlimit="10"/>
<path d="M97.3854 1.87305H98.5596C104.09 1.87305 108.37 6.63009 107.726 12.0614L107.158 17.0057C106.628 21.6129 102.688 25.0964 97.9915 25.0964C93.2945 25.0964 89.3551 21.6129 88.8248 17.0057L88.2566 12.0614C87.6127 6.63009 91.893 1.87305 97.4233 1.87305H97.3854Z" stroke="white" stroke-miterlimit="10"/>
</g>
<defs>
<clipPath id="clip0_222_1493">
<rect width="125" height="109" fill="white"/>
</clipPath>
</defs>
</svg>
