<svg width="145" height="145" viewBox="0 0 145 145" fill="none" xmlns="http://www.w3.org/2000/svg">
<g id="Layer_1">
<path id="Vector" d="M72.5003 142.803C111.328 142.803 142.803 111.327 142.803 72.5001C142.803 33.6728 111.328 2.19702 72.5003 2.19702C33.673 2.19702 2.19727 33.6728 2.19727 72.5001C2.19727 111.327 33.673 142.803 72.5003 142.803Z" stroke="white" stroke-linejoin="round"/>
<path id="Vector_2" d="M14.0602 78.5637C10.7208 46.2683 34.1405 17.4001 66.436 14.0607C98.7314 10.7213 127.6 34.1849 130.939 66.4364C134.278 98.7319 110.815 127.6 78.5632 130.939C46.2678 134.279 17.3996 110.815 14.0602 78.5637Z" stroke="white" stroke-linecap="square" stroke-linejoin="round"/>
<path id="Vector_3" d="M66.8756 36.9092H78.1241C80.8044 36.9092 82.8696 39.4577 82.6059 42.3577L79.3544 77.1137C79.1347 79.6622 77.1574 81.6395 74.7847 81.6395H70.215C67.8862 81.6395 65.9089 79.7061 65.6453 77.1137L62.3938 42.3577C62.1302 39.4577 64.1953 36.9092 66.8756 36.9092Z" stroke="white" stroke-linejoin="round"/>
<path id="Vector_4" d="M72.4999 108.091C76.868 108.091 80.409 104.55 80.409 100.182C80.409 95.8137 76.868 92.2727 72.4999 92.2727C68.1318 92.2727 64.5908 95.8137 64.5908 100.182C64.5908 104.55 68.1318 108.091 72.4999 108.091Z" stroke="white" stroke-linejoin="round"/>
</g>
</svg>
