<svg width="127" height="126" viewBox="0 0 127 126" fill="none" xmlns="http://www.w3.org/2000/svg">
<g id="Layer_1" clip-path="url(#clip0_222_1486)">
<path id="Vector" d="M112.643 30.7476C99.6391 34.7791 82.4096 37.2518 63.5005 37.2518C44.5913 37.2518 27.3076 34.7791 14.3584 30.7476" stroke="white" stroke-linejoin="round"/>
<path id="Vector_2" d="M124.291 63H2.70898" stroke="white" stroke-linejoin="round"/>
<path id="Vector_3" d="M63.5001 123.312C74.5717 123.312 83.547 96.3093 83.547 62.9998C83.547 29.6902 74.5717 2.6875 63.5001 2.6875C52.4284 2.6875 43.4531 29.6902 43.4531 62.9998C43.4531 96.3093 52.4284 123.312 63.5001 123.312Z" stroke="white" stroke-linejoin="round"/>
<path id="Vector_4" d="M14.3584 95.2523C27.3618 91.2207 44.5913 88.748 63.5005 88.748C82.4096 88.748 99.6933 91.2207 112.643 95.2523" stroke="white" stroke-linejoin="round"/>
<path id="Vector_5" d="M86.9236 118.657C117.906 105.824 132.536 70.5025 119.601 39.7642C106.667 9.02586 71.065 -5.48934 40.0827 7.34356C9.10046 20.1765 -5.52994 55.4979 7.40482 86.2362C20.3396 116.975 55.9413 131.49 86.9236 118.657Z" stroke="white" stroke-linejoin="round"/>
</g>
<defs>
<clipPath id="clip0_222_1486">
<rect width="127" height="126" fill="white"/>
</clipPath>
</defs>
</svg>
