<svg width="108" height="99" viewBox="0 0 108 99" fill="none" xmlns="http://www.w3.org/2000/svg">
<g id="Layer_1">
<path id="Vector" d="M10.2597 74.9653H19.1022C20.351 74.9653 21.3297 75.9752 21.3297 77.187V97.2832H8.03223V77.187C8.03223 75.9415 9.04473 74.9653 10.2597 74.9653Z" stroke="white" stroke-miterlimit="10"/>
<path id="Vector_2" d="M60.8847 70.5894H69.7272C70.976 70.5894 71.9547 71.5992 71.9547 72.811V97.317H58.6572V72.811C58.6572 71.5656 59.6697 70.5894 60.8847 70.5894Z" stroke="white" stroke-miterlimit="10"/>
<path id="Vector_3" d="M86.164 50.0891H95.0065C96.2553 50.0891 97.234 51.099 97.234 52.3108V97.2833H83.9365V52.3108C83.9365 51.0653 84.949 50.0891 86.164 50.0891Z" stroke="white" stroke-miterlimit="10"/>
<path id="Vector_4" d="M35.5722 54.3977H44.4147C45.6635 54.3977 46.6422 55.4076 46.6422 56.6194V97.2831H33.3447V56.6194C33.3447 55.3739 34.3572 54.3977 35.5722 54.3977Z" stroke="white" stroke-miterlimit="10"/>
<path id="Vector_5" d="M20.1822 48.0357C20.1822 51.0653 17.7184 53.5226 14.6809 53.5226C11.6434 53.5226 9.17969 51.0653 9.17969 48.0357C9.17969 45.0062 11.6434 42.5488 14.6809 42.5488C17.7184 42.5488 20.1822 45.0062 20.1822 48.0357Z" stroke="white" stroke-miterlimit="10"/>
<path id="Vector_6" d="M49.1066 20.2309C49.1066 23.6644 46.3054 26.4584 42.8629 26.4584C39.4204 26.4584 36.6191 23.6644 36.6191 20.2309C36.6191 16.7974 39.4204 14.0034 42.8629 14.0034C46.3054 14.0034 49.1066 16.7974 49.1066 20.2309Z" stroke="white" stroke-miterlimit="10"/>
<path id="Vector_7" d="M64.8678 48.4396C68.3161 48.4396 71.1115 45.6514 71.1115 42.2121C71.1115 38.7728 68.3161 35.9846 64.8678 35.9846C61.4194 35.9846 58.624 38.7728 58.624 42.2121C58.624 45.6514 61.4194 48.4396 64.8678 48.4396Z" stroke="white" stroke-miterlimit="10"/>
<path id="Vector_8" d="M88.6617 24.5734C92.11 24.5734 94.9055 21.7852 94.9055 18.3459C94.9055 14.9065 92.11 12.1184 88.6617 12.1184C85.2134 12.1184 82.418 14.9065 82.418 18.3459C82.418 21.7852 85.2134 24.5734 88.6617 24.5734Z" stroke="white" stroke-miterlimit="10"/>
<path id="Vector_9" d="M0 97.3169H108" stroke="white" stroke-miterlimit="10"/>
<g id="Group">
<path id="Vector_10" d="M93.0488 14.0034L105.368 1.68311" stroke="white" stroke-linejoin="round"/>
<path id="Vector_11" d="M69.2549 37.7689L84.2736 22.7893" stroke="white" stroke-linejoin="round"/>
<path id="Vector_12" d="M47.2832 24.6406L60.4457 37.8025" stroke="white" stroke-linejoin="round"/>
<path id="Vector_13" d="M18.5957 44.1645L38.3395 24.5059" stroke="white" stroke-linejoin="round"/>
<path id="Vector_14" d="M1.28223 61.4331L10.7997 51.9404" stroke="white" stroke-linejoin="round"/>
<path id="Vector_15" d="M105.367 13.4312V1.68311H93.6221" stroke="white" stroke-linejoin="round"/>
</g>
</g>
</svg>
