<svg width="94" height="101" viewBox="0 0 94 101" fill="none" xmlns="http://www.w3.org/2000/svg">
<path d="M80.3086 84.3501V4.28467" stroke="white" stroke-linejoin="round"/>
<path d="M86.3563 1.53027H85.2511C83.3171 1.53027 81.5365 2.60149 80.3393 4.28482C70.2393 18.18 41.628 25.5866 32.1113 25.5866V63.0791C41.628 63.0791 70.2393 70.4857 80.3393 84.3809C81.5672 86.0642 83.3171 87.1354 85.2511 87.1354H86.3563C89.7331 87.1354 92.4653 84.1054 92.4653 80.3715V8.29421C92.4653 4.56027 89.7331 1.53027 86.3563 1.53027Z" stroke="white" stroke-linejoin="round"/>
<path d="M32.1112 31.0649V25.5864H9.30197C5.00413 25.5864 1.53516 29.4428 1.53516 34.1867V54.4785C1.53516 59.2225 5.00413 63.0789 9.30197 63.0789H32.0805V57.6004" stroke="white" stroke-linejoin="round"/>
<path d="M10.9902 37.5537H22.6251" stroke="white" stroke-linejoin="round"/>
<path d="M22.6251 51.0508H10.9902" stroke="white" stroke-linejoin="round"/>
<path d="M15.8407 92.675C16.5161 96.5926 19.9237 99.4696 23.9145 99.4696H34.3214C29.471 90.3183 28.55 85.8499 26.8002 74.4644L25.0504 63.0483H10.7754L15.8407 92.675Z" stroke="white" stroke-linejoin="round"/>
<path d="M38.2811 63.3853C38.6188 64.3953 38.8029 65.4971 38.8029 66.6295C38.8029 72.3834 34.1367 77.0356 28.3653 77.0356C27.8127 77.0356 27.2602 77.005 26.7383 76.9131" stroke="white" stroke-linejoin="round"/>
</svg>
