<svg width="133" height="146" viewBox="0 0 133 146" fill="none" xmlns="http://www.w3.org/2000/svg">
<g id="Layer_1">
<g id="Group">
<path id="Vector" d="M65.9317 55.6567H67.023C72.252 55.6567 76.2988 60.081 75.7077 65.1246L75.1621 69.7258C74.6619 74.0173 70.9334 77.247 66.4773 77.247C62.0667 77.247 58.2927 74.0173 57.7925 69.7258L57.2469 65.1246C56.6558 60.081 60.7026 55.6567 65.9317 55.6567Z" stroke="white" stroke-linejoin="round"/>
<path id="Vector_2" d="M88.3941 101.492V97.4219C88.3941 92.5995 84.3473 88.3522 78.4817 87.1134C70.6153 85.4322 62.3852 85.4322 54.5189 87.1134C48.6988 88.3522 44.6064 92.5995 44.6064 97.4219V101.492" stroke="white" stroke-linejoin="round"/>
<path id="Vector_3" d="M66.4776 108.394C86.5676 108.394 102.854 92.5474 102.854 72.9999C102.854 53.4524 86.5676 37.606 66.4776 37.606C46.3877 37.606 30.1016 53.4524 30.1016 72.9999C30.1016 92.5474 46.3877 108.394 66.4776 108.394Z" stroke="white" stroke-linejoin="round"/>
</g>
<path id="Vector_4" d="M66.4768 19.9089C71.4993 19.9089 75.5709 15.9473 75.5709 11.0604C75.5709 6.17352 71.4993 2.21191 66.4768 2.21191C61.4543 2.21191 57.3828 6.17352 57.3828 11.0604C57.3828 15.9473 61.4543 19.9089 66.4768 19.9089Z" stroke="white" stroke-linejoin="round"/>
<path id="Vector_5" d="M82.8008 129.144L108.31 114.809" stroke="white" stroke-linejoin="round"/>
<path id="Vector_6" d="M24.6904 114.809L50.1991 129.144" stroke="white" stroke-linejoin="round"/>
<path id="Vector_7" d="M11.3672 59.4175V86.5823" stroke="white" stroke-linejoin="round"/>
<path id="Vector_8" d="M50.1991 16.8564L24.6904 31.191" stroke="white" stroke-linejoin="round"/>
<path id="Vector_9" d="M108.31 31.191L82.8008 16.8564" stroke="white" stroke-linejoin="round"/>
<path id="Vector_10" d="M121.633 86.5823V59.4175" stroke="white" stroke-linejoin="round"/>
<path id="Vector_11" d="M57.4287 134.939C57.4287 130.073 61.4755 126.091 66.5227 126.091C71.5699 126.091 75.6167 130.028 75.6167 134.939C75.6167 139.85 71.5699 143.788 66.5227 143.788C61.4755 143.788 57.4287 139.85 57.4287 134.939Z" stroke="white" stroke-linejoin="round"/>
<path id="Vector_12" d="M15.9145 111.623C11.5494 114.057 6.00201 112.597 3.50115 108.394C1.0003 104.147 2.50081 98.749 6.82047 96.3156C11.1856 93.8823 16.7329 95.3423 19.2338 99.5453C21.7347 103.793 20.2341 109.19 15.9145 111.623Z" stroke="white" stroke-linejoin="round"/>
<path id="Vector_13" d="M126.179 49.684C121.814 52.1174 116.267 50.6574 113.766 46.4543C111.265 42.2071 112.765 36.8095 117.085 34.3762C121.45 31.9428 126.998 33.4028 129.498 37.6059C131.999 41.8531 130.499 47.2507 126.179 49.684Z" stroke="white" stroke-linejoin="round"/>
<path id="Vector_14" d="M126.179 96.3155C130.544 98.7488 131.999 104.146 129.499 108.394C126.998 112.641 121.45 114.057 117.085 111.623C112.72 109.19 111.265 103.792 113.766 99.5452C116.267 95.2979 121.814 93.8822 126.179 96.3155Z" stroke="white" stroke-linejoin="round"/>
<path id="Vector_15" d="M15.9146 34.3766C20.2798 36.8099 21.7348 42.2075 19.234 46.4547C16.7331 50.702 11.1858 52.1178 6.82063 49.6844C2.4555 47.2511 1.00046 41.8535 3.50131 37.6062C6.00217 33.359 11.5495 31.9432 15.9146 34.3766Z" stroke="white" stroke-linejoin="round"/>
</g>
</svg>
