<svg width="95" height="95" viewBox="0 0 95 95" fill="none" xmlns="http://www.w3.org/2000/svg">
<g clip-path="url(#clip0_222_1469)">
<path d="M29.7031 1.43896V25.1686" stroke="white" stroke-width="1.05" stroke-linecap="round" stroke-linejoin="round"/>
<path d="M10.182 1.43896H5.56635C3.28713 1.43896 1.43945 3.28664 1.43945 5.56586V21.0689C1.43945 23.3481 3.28713 25.1958 5.56635 25.1958H10.182C12.4612 25.1958 14.3088 23.3481 14.3088 21.0689V5.56586C14.3088 3.28664 12.4612 1.43896 10.182 1.43896Z" stroke="white" stroke-width="1.05" stroke-linecap="round" stroke-linejoin="round"/>
<path d="M47.4863 1.43896V25.1686" stroke="white" stroke-width="1.05" stroke-linecap="round" stroke-linejoin="round"/>
<path d="M93.5605 1.43896V25.1686" stroke="white" stroke-width="1.05" stroke-linecap="round" stroke-linejoin="round"/>
<path d="M75.7773 36.2734V60.0302" stroke="white" stroke-width="1.05" stroke-linecap="round" stroke-linejoin="round"/>
<path d="M93.5605 36.2734V60.0302" stroke="white" stroke-width="1.05" stroke-linecap="round" stroke-linejoin="round"/>
<path d="M93.5605 69.8042V93.561" stroke="white" stroke-width="1.05" stroke-linecap="round" stroke-linejoin="round"/>
<path d="M67.0348 25.1685H71.6504C73.9297 25.1685 75.7773 23.3208 75.7773 21.0416V5.53856C75.7773 3.25934 73.9297 1.41167 71.6504 1.41167H67.0348C64.7556 1.41167 62.908 3.25934 62.908 5.53856V21.0416C62.908 23.3208 64.7556 25.1685 67.0348 25.1685Z" stroke="white" stroke-width="1.05" stroke-linecap="round" stroke-linejoin="round"/>
<path d="M75.7773 36.2734V60.0302" stroke="white" stroke-width="1.05" stroke-linecap="round" stroke-linejoin="round"/>
<path d="M50.6089 60.0571H55.1702C57.4644 60.0571 59.3242 58.1973 59.3242 55.9031V40.4544C59.3242 38.1602 57.4644 36.3003 55.1702 36.3003H50.6089C48.3147 36.3003 46.4548 38.1602 46.4548 40.4544V55.9031C46.4548 58.1973 48.3147 60.0571 50.6089 60.0571Z" stroke="white" stroke-width="1.05" stroke-linecap="round" stroke-linejoin="round"/>
<path d="M1.43945 36.2734V60.0302" stroke="white" stroke-width="1.05" stroke-linecap="round" stroke-linejoin="round"/>
<path d="M21.8022 60.0571H26.3635C28.6577 60.0571 30.5176 58.1973 30.5176 55.9031L30.5176 40.4544C30.5176 38.1602 28.6577 36.3003 26.3635 36.3003H21.8022C19.508 36.3003 17.6482 38.1602 17.6482 40.4544V55.9031C17.6482 58.1973 19.508 60.0571 21.8022 60.0571Z" stroke="white" stroke-width="1.05" stroke-linecap="round" stroke-linejoin="round"/>
<path d="M26.3636 69.8042H21.748C19.4688 69.8042 17.6211 71.6519 17.6211 73.9311V89.4341C17.6211 91.7133 19.4688 93.561 21.748 93.561H26.3636C28.6428 93.561 30.4905 91.7133 30.4905 89.4341V73.9311C30.4905 71.6519 28.6428 69.8042 26.3636 69.8042Z" stroke="white" stroke-width="1.05" stroke-linecap="round" stroke-linejoin="round"/>
<path d="M67.062 93.561H71.6233C73.9175 93.561 75.7773 91.7012 75.7773 89.407V73.9583C75.7773 71.6641 73.9175 69.8042 71.6233 69.8042H67.062C64.7678 69.8042 62.908 71.6641 62.908 73.9583V89.407C62.908 91.7012 64.7678 93.561 67.062 93.561Z" stroke="white" stroke-width="1.05" stroke-linecap="round" stroke-linejoin="round"/>
<path d="M46.6992 69.8042V93.561" stroke="white" stroke-width="1.05" stroke-linecap="round" stroke-linejoin="round"/>
<path d="M1.43945 69.8042V93.561" stroke="white" stroke-width="1.05" stroke-linecap="round" stroke-linejoin="round"/>
</g>
<defs>
<clipPath id="clip0_222_1469">
<rect width="95" height="95" fill="white"/>
</clipPath>
</defs>
</svg>
