<svg width="110" height="112" viewBox="0 0 110 112" fill="none" xmlns="http://www.w3.org/2000/svg">
<path d="M48.9619 21.3464C53.3785 9.88129 64.5234 1.72144 77.6006 1.72144C94.5422 1.72144 108.275 15.4245 108.275 32.3295C108.275 49.2345 94.5422 62.9375 77.6006 62.9375C68.0773 62.9375 59.5893 58.6338 53.9651 51.8512" stroke="white" stroke-linejoin="round"/>
<path d="M68.2842 38.6302C68.2842 42.1076 71.1135 44.9309 74.5985 44.9309H80.5677C84.0527 44.9309 86.882 42.1076 86.882 38.6302C86.882 35.1528 84.0527 32.3296 80.5677 32.3296H74.5985C71.1135 32.3296 68.2842 29.5063 68.2842 26.0289C68.2842 22.5515 71.1135 19.7283 74.5985 19.7283H80.5677C84.0527 19.7283 86.882 22.5515 86.882 26.0289" stroke="white" stroke-linejoin="round"/>
<path d="M77.6006 18.7298V14.0129" stroke="white" stroke-linejoin="round"/>
<path d="M77.6006 50.6461V45.8948" stroke="white" stroke-linejoin="round"/>
<path d="M35.7125 74.575L33.2627 81.7708L40.3706 86.2466L47.4785 81.7708L45.1667 74.575" stroke="white" stroke-linejoin="round"/>
<path d="M34.1943 111.897L36.0576 83.7332" stroke="white" stroke-linejoin="round"/>
<path d="M45.166 83.7332L46.5117 111.897" stroke="white" stroke-linejoin="round"/>
<path d="M51.7217 66.897L69.2499 72.991C75.0812 75.0224 78.9801 80.4967 78.9801 86.6597V111.862" stroke="white" stroke-linejoin="round"/>
<path d="M14.3193 111.897V88.4155" stroke="white" stroke-linejoin="round"/>
<path d="M63.5566 111.897V88.4155" stroke="white" stroke-linejoin="round"/>
<path d="M24.7051 40.7303C25.3607 46.5834 27.0169 52.2643 29.5702 57.532L30.2258 58.8748C32.089 62.7653 36.0225 65.2099 40.3356 65.2099C44.6486 65.2099 48.5821 62.7309 50.4454 58.8748L51.1009 57.532C53.6543 52.2298 55.3105 46.5489 55.9661 40.7303V31.9163C55.9661 30.1604 55.5865 28.4389 54.7584 26.924C53.0677 23.7909 49.1342 19.4871 40.3701 19.556C31.8475 19.5904 27.845 23.7909 26.0508 26.8895C25.1191 28.4733 24.7051 30.3325 24.7051 32.1917V40.7992V40.7303Z" stroke="white" stroke-linejoin="round"/>
<path d="M24.7051 33.5002C24.7051 33.5002 31.2264 38.1483 39.2659 35.566C43.441 34.2233 47.8575 33.6035 52.1016 34.7053C53.1712 34.9807 54.4824 34.9119 55.9661 34.1544" stroke="white" stroke-linejoin="round"/>
<path d="M31.9853 61.4226L28.9834 66.9314C29.984 70.1333 35.7118 74.6092 35.7118 74.6092H45.166C45.166 74.6092 50.7212 70.1678 51.7218 66.9314L48.7199 61.4226" stroke="white" stroke-linejoin="round"/>
<path d="M28.9841 66.897L11.4558 72.991C5.62458 75.0224 1.72559 80.4967 1.72559 86.6597V111.862" stroke="white" stroke-linejoin="round"/>
</svg>
