<svg width="109" height="104" viewBox="0 0 109 104" fill="none" xmlns="http://www.w3.org/2000/svg">
<g id="Layer_1" clip-path="url(#clip0_222_1439)">
<g id="Group">
<path id="Vector" d="M30.4541 8.21668V21.1049C30.4541 36.7761 39.3723 51.619 54.6653 61.426C69.9914 51.5859 78.8765 36.7761 78.8765 21.1049V8.21668C63.9799 -0.496919 45.582 -0.53005 30.6523 8.08416L30.4541 8.21668Z" stroke="white" stroke-linejoin="round"/>
<path id="Vector_2" d="M65.1363 20.873L51.8251 34.2582L44.5254 26.9693" stroke="white" stroke-linejoin="round"/>
</g>
<g id="Group_2">
<g id="Group_3">
<path id="Vector_3" d="M95.3589 49.4652C97.9022 43.1371 98.3977 31.4748 98.3977 31.4748C98.728 28.0622 99.2234 21.8335 102.593 20.3425C103.881 19.7462 105.367 20.5082 105.631 21.8997C105.631 21.8997 108.274 34.9867 106.953 59.239C106.92 59.9348 105.796 64.8382 105.334 65.3683L90.9659 83.657C90.3713 84.2533 90.041 85.0816 90.041 85.9431V91.211" stroke="white" stroke-linejoin="round"/>
<path id="Vector_4" d="M65.499 91.2109L65.6642 81.3045C65.7302 76.5336 67.679 71.862 71.3124 68.7477C71.5766 68.5157 71.8408 68.317 72.0721 68.1513C73.2942 67.2567 74.5493 66.2628 76.0357 65.3682L76.4981 64.9707C81.1554 60.8292 85.3833 56.1908 88.9175 51.0554C89.7102 49.9289 90.8663 49.2 92.1214 49.0012C93.1784 48.8025 94.3345 48.9681 95.3254 49.4982M95.3254 49.4982C95.1602 49.3657 95.4905 49.5976 95.3254 49.4982ZM95.3254 49.4982L95.8539 49.8295C98.0999 51.3867 97.5715 54.4348 96.3824 56.3233L88.8845 67.1573C88.8845 67.1573 89.3469 72.4584 83.8639 76.4673" stroke="white" stroke-linejoin="round"/>
<path id="Vector_5" d="M62.5264 104V91.2109H93.0464V104" stroke="white" stroke-linejoin="round"/>
</g>
<g id="Group_4">
<path id="Vector_6" d="M13.6413 49.4652C11.098 43.1371 10.6025 31.4748 10.6025 31.4748C10.2722 28.0622 9.77676 21.8335 6.40767 20.3425C5.11949 19.7462 3.63313 20.5082 3.36889 21.8997C3.36889 21.8997 0.726462 34.9867 2.04767 59.239C2.0807 59.9348 3.20373 64.8382 3.66616 65.3683L18.0343 83.657C18.6289 84.2533 18.9592 85.0816 18.9592 85.9431V91.211" stroke="white" stroke-linejoin="round"/>
<path id="Vector_7" d="M43.501 91.2109L43.3359 81.3045C43.2698 76.5336 41.321 71.862 37.6877 68.7477C37.4234 68.5157 37.1592 68.317 36.928 68.1513C35.7059 67.2567 34.4507 66.2628 32.9644 65.3682L32.5019 64.9707C27.8447 60.8292 23.6168 56.1908 20.0825 51.0554C19.2898 49.9289 18.1338 49.2 16.8786 49.0012C15.8216 48.8025 14.6656 48.9681 13.6747 49.4982M13.6747 49.4982C13.5095 49.5976 13.8398 49.3657 13.6747 49.4982ZM13.6747 49.4982L13.1462 49.8295C10.9001 51.3867 11.4286 54.4348 12.6177 56.3233L20.1156 67.1573C20.1156 67.1573 19.6531 72.4584 25.1362 76.4673" stroke="white" stroke-linejoin="round"/>
<path id="Vector_8" d="M46.4731 104V91.2109H15.9531V104" stroke="white" stroke-linejoin="round"/>
</g>
</g>
</g>
<defs>
<clipPath id="clip0_222_1439">
<rect width="109" height="104" fill="white"/>
</clipPath>
</defs>
</svg>
