<svg width="119" height="108" viewBox="0 0 119 108" fill="none" xmlns="http://www.w3.org/2000/svg">
<g id="Layer_1" clip-path="url(#clip0_222_1196)">
<g id="Group">
<path id="Vector" d="M5.20898 54.0181C5.20898 54.0181 29.5044 22.4321 59.5184 22.4321C89.5325 22.4321 113.828 54.0181 113.828 54.0181C113.828 54.0181 89.5325 85.604 59.5184 85.604C29.5044 85.604 5.20898 54.0181 5.20898 54.0181Z" stroke="white" stroke-linejoin="round"/>
<path id="Vector_2" d="M58.8994 13.0613V0" stroke="white" stroke-linejoin="round"/>
<path id="Vector_3" d="M25.1697 23.9158L17.8848 13.0615" stroke="white" stroke-linejoin="round"/>
<path id="Vector_4" d="M42.034 16.0282L36.9346 3.97998" stroke="white" stroke-linejoin="round"/>
<path id="Vector_5" d="M11.0004 35.1678L1.20215 26.4482" stroke="white" stroke-linejoin="round"/>
<path id="Vector_6" d="M92.6289 23.9158L99.9139 13.0615" stroke="white" stroke-linejoin="round"/>
<path id="Vector_7" d="M75.7637 16.0282L80.8996 3.97998" stroke="white" stroke-linejoin="round"/>
<path id="Vector_8" d="M106.798 35.1678L116.596 26.4482" stroke="white" stroke-linejoin="round"/>
<path id="Vector_9" d="M60.1016 94.9385V108" stroke="white" stroke-linejoin="round"/>
<path id="Vector_10" d="M93.8301 84.0845L101.115 94.9387" stroke="white" stroke-linejoin="round"/>
<path id="Vector_11" d="M76.9658 92.0078L82.0653 104.02" stroke="white" stroke-linejoin="round"/>
<path id="Vector_12" d="M108 72.832L117.762 81.5516" stroke="white" stroke-linejoin="round"/>
<path id="Vector_13" d="M26.3722 84.0845L19.0508 94.9387" stroke="white" stroke-linejoin="round"/>
<path id="Vector_14" d="M43.2001 92.0078L38.1006 104.02" stroke="white" stroke-linejoin="round"/>
<path id="Vector_15" d="M12.2026 72.832L2.4043 81.5516" stroke="white" stroke-linejoin="round"/>
</g>
<path id="Vector_16" d="M74.234 49.6762C68.1147 49.6762 63.1609 44.7556 63.1609 38.6772C63.1609 36.7596 63.7073 35.023 64.545 33.4672C62.9059 33.0692 61.2304 32.8159 59.482 32.8159C47.6803 32.8159 38.1006 42.3315 38.1006 54.0541C38.1006 65.7767 47.6803 75.2923 59.482 75.2923C71.2836 75.2923 80.8634 65.7767 80.8634 54.0541C80.8634 51.9918 80.4627 50.0018 79.9163 48.1204C78.2408 49.0973 76.3467 49.7124 74.2705 49.7124L74.234 49.6762Z" stroke="white" stroke-linejoin="round"/>
</g>
<defs>
<clipPath id="clip0_222_1196">
<rect width="119" height="108" fill="white"/>
</clipPath>
</defs>
</svg>
