<svg width="104" height="104" viewBox="0 0 104 104" fill="none" xmlns="http://www.w3.org/2000/svg">
<g id="Layer_1">
<path id="Vector" d="M13.8643 2.86768V19.4762H13.8958L20.9387 13.0156L28.0131 19.4446V2.86768" stroke="white" stroke-linejoin="round"/>
<path id="Vector_2" d="M79.9344 61.1078V98.2011C79.9344 100.533 78.0395 102.424 75.7024 102.424H5.81111C3.47403 102.424 1.5791 100.533 1.5791 98.2011V5.79871C1.5791 3.46659 3.47403 1.57568 5.81111 1.57568H61.3957C62.5326 1.57568 63.6064 2.0169 64.396 2.80477L78.7027 17.0811C79.4922 17.869 79.9344 18.9405 79.9344 20.0751V41.9781" stroke="white" stroke-linejoin="round"/>
<path id="Vector_3" d="M98.9789 32.8704L67.2388 79.9225L58.3643 73.9662L88.3041 29.5298L90.0727 26.9141" stroke="white" stroke-linejoin="round"/>
<path id="Vector_4" d="M88.3037 29.5298L100.526 37.5346C102.484 38.8268 103.021 41.4425 101.726 43.3965L92.5041 57.074" stroke="white" stroke-linejoin="round"/>
<path id="Vector_5" d="M99.2939 22.7856C101.757 24.4244 102.389 27.765 100.747 30.1917L97.3043 35.5177L88.4297 29.5614L91.8721 24.2353C93.5144 21.7771 96.8621 21.1468 99.2939 22.7856Z" stroke="white" stroke-linejoin="round"/>
<path id="Vector_6" d="M68.6284 77.8738L66.2282 81.2775L55.3639 87.9587L55.3008 87.8957L57.3536 75.3211L59.7539 71.9175" stroke="white" stroke-linejoin="round"/>
<path id="Vector_7" d="M64.7752 42.8608H9.91699" stroke="white" stroke-linejoin="round"/>
<path id="Vector_8" d="M59.6589 54.2061H9.91699" stroke="white" stroke-linejoin="round"/>
<path id="Vector_9" d="M53.0266 65.5518H9.91699" stroke="white" stroke-linejoin="round"/>
<path id="Vector_10" d="M48.4472 76.897H9.91699" stroke="white" stroke-linejoin="round"/>
<path id="Vector_11" d="M55.3637 88.2422H9.91699" stroke="white" stroke-linejoin="round"/>
<path id="Vector_12" d="M37.4882 31.4834H9.91699" stroke="white" stroke-linejoin="round"/>
</g>
</svg>
