<svg width="137" height="145" viewBox="0 0 137 145" fill="none" xmlns="http://www.w3.org/2000/svg">
<g id="Layer_1">
<path id="Vector" d="M68.4998 112.036C93.01 112.036 112.88 92.315 112.88 67.988C112.88 43.6609 93.01 23.9399 68.4998 23.9399C43.9896 23.9399 24.1201 43.6609 24.1201 67.988C24.1201 92.315 43.9896 112.036 68.4998 112.036Z" stroke="white" stroke-linejoin="round"/>
<path id="Vector_2" d="M82.6567 82.0391L68.5 67.9883V41.2051" stroke="white" stroke-linejoin="round"/>
<path id="Vector_3" d="M68.5 2.06006C105.199 2.06006 134.924 31.5628 134.924 67.9879C134.924 101.364 109.932 128.93 77.5088 133.298" stroke="white" stroke-linejoin="round"/>
<path id="Vector_4" d="M68.5 124.892C63.4767 124.892 59.4082 128.93 59.4082 133.916C59.4082 138.902 63.4767 142.94 68.5 142.94C73.5234 142.94 77.5918 138.902 77.5918 133.916C77.5918 128.93 73.5234 124.892 68.5 124.892Z" stroke="white" stroke-linejoin="round"/>
<path id="Vector_5" d="M2.07617 67.9879C2.07617 31.5628 31.801 2.06006 68.5004 2.06006" stroke="white" stroke-linejoin="round" stroke-dasharray="1 3"/>
</g>
</svg>
