<svg width="115" height="112" viewBox="0 0 115 112" fill="none" xmlns="http://www.w3.org/2000/svg">
<g id="Layer_1">
<g id="Group">
<path id="Vector" d="M18.8525 78.085L2.26465 89.845" stroke="white" stroke-linejoin="round"/>
<path id="Vector_2" d="M13.0679 90.895H1.74219L4.14673 79.52" stroke="white" stroke-linejoin="round"/>
<path id="Vector_3" d="M2.26465 10.7451L18.8525 22.5051" stroke="white" stroke-linejoin="round"/>
<path id="Vector_4" d="M5.26162 21.42L2.26465 10.395H13.2071" stroke="white" stroke-linejoin="round"/>
</g>
<g id="Group_2">
<g id="Group_3">
<g id="Group_4">
<path id="Vector_5" d="M57.674 26.985C60.8104 30.485 59.9043 37.205 55.6528 41.965C51.4013 46.725 45.4422 47.74 42.3407 44.24L33.5937 54.04C31.5725 56.28 28.3316 56.28 26.3104 54.04C21.6407 48.79 20.9785 40.565 24.7422 34.475L35.5452 16.94C35.5452 16.94 31.7467 5.53 34.5346 1.75C34.5346 1.75 40.1104 10.115 55.0604 10.115C55.1301 10.115 55.2346 10.115 55.3043 10.115C72.9725 10.745 87.2604 28.56 88.6892 52.395C89.421 65.065 88.3755 78.54 86.3543 90.265" stroke="white" stroke-linejoin="round"/>
<path id="Vector_6" d="M53.9798 44.8C53.9798 44.8 60.7752 57.96 52.3071 66.745C44.9192 74.41 41.748 82.845 40.6328 90.3" stroke="white" stroke-linejoin="round"/>
</g>
<path id="Vector_7" d="M93.1843 100.275H33.001V110.25H93.1843V100.275Z" stroke="white" stroke-linejoin="round"/>
</g>
<path id="Vector_8" d="M39.8318 26.5649L37.0439 29.3299" stroke="white" stroke-linejoin="round"/>
<path id="Vector_9" d="M89.2816 90.2649H36.9043V100.24H89.2816V90.2649Z" stroke="white" stroke-linejoin="round"/>
</g>
<g id="Group_5">
<path id="Vector_10" d="M96.6699 22.5051L113.258 10.7451" stroke="white" stroke-linejoin="round"/>
<path id="Vector_11" d="M102.246 10.3601H113.258L110.923 21.4551" stroke="white" stroke-linejoin="round"/>
<path id="Vector_12" d="M113.258 89.8452L96.6699 78.0852" stroke="white" stroke-linejoin="round"/>
<path id="Vector_13" d="M110.226 79.1702L113.258 90.2302H102.246" stroke="white" stroke-linejoin="round"/>
</g>
</g>
</svg>
