<svg width="1441" height="44" viewBox="0 0 1441 44" fill="none" xmlns="http://www.w3.org/2000/svg">
<g clip-path="url(#clip0_9768_6119)">
<g style="mix-blend-mode:luminosity" opacity="0.5">
<path d="M37.6187 379.799L40.1755 382.355L131.098 291.444H-36.5377V295.06H122.366L37.6187 379.797V379.799ZM-112.748 272.071H-109.131V417.524L-43.7726 352.173L-33.7102 362.233L-36.267 364.791L-43.7726 357.286L-112.75 426.253V272.071H-112.748ZM-42.4931 325.553L0.391357 368.432L-2.16547 370.99L-45.0499 328.111L-42.4931 325.553ZM-144.768 451.066L-257.404 338.444L-254.847 335.886L-142.211 448.508L-144.768 451.066ZM-148.657 375.136H-163.924L-146.862 392.197L-149.419 394.755L-172.656 371.521H-148.657V375.136ZM-144.768 59.563L-142.211 62.1208L-254.847 174.743L-257.404 172.185L-144.768 59.563ZM493.408 395.788L495.965 393.23L568.028 465.284L521.994 511.312H516.879L562.912 465.284L493.406 395.785L493.408 395.788ZM-86.1389 445.396H-25.1705V449.012H-86.1389V445.396ZM-10.4725 431.964H-67.0229V428.348H-11.9719L12.3 404.079L14.8568 406.637L-10.4725 431.964ZM-30.0663 393.746L-27.5095 396.304L-49.2098 418.002L-51.7666 415.444L-30.0663 393.746ZM-9.40027 397.88L-6.84344 400.438L-24.4113 418.002L-26.9681 415.444L-9.40027 397.88ZM-147.107 157.191H-214.507L-146.834 89.5274L-144.278 92.0832L-205.775 153.573H-147.107V157.189V157.191ZM-95.1797 382.859V272.071H-91.5634V374.127L-58.6842 341.252L-64.8553 335.082L-62.2984 332.527L-53.5705 341.254L-95.1819 382.861L-95.1797 382.859ZM45.9617 346.446L36.7558 355.649L11.8538 330.749H58.014V334.365H20.5859L36.7558 350.535L43.4048 343.888L45.9617 346.446ZM-61.8543 320.892C-55.4443 320.892 -50.2291 315.677 -50.2291 309.269C-50.2291 302.86 -55.4443 297.645 -61.8543 297.645C-68.2643 297.645 -73.4796 302.86 -73.4796 309.269C-73.4796 315.677 -68.2643 320.892 -61.8543 320.892ZM-61.8543 317.275C-66.2701 317.275 -69.8632 313.682 -69.8632 309.267C-69.8632 304.851 -66.2701 301.259 -61.8543 301.259C-57.4386 301.259 -53.8455 304.851 -53.8455 309.267C-53.8455 313.682 -57.4386 317.275 -61.8543 317.275ZM22.6351 366.858L-32.1199 312.11H75.582V315.726H-23.3877L25.192 364.3L22.6351 366.858ZM-78.13 342.331V327.866H-74.5137V342.331H-78.13ZM-111.456 256.897V253.281H-47.905V256.897H-111.456ZM549.455 253.281V256.897H485.905V253.281H549.455ZM238.933 256.897V253.281H468.337V256.897H238.933ZM231.521 245.608L221.56 255.566L231.521 265.525L228.964 268.083L228.96 268.079L228.956 268.083L219.001 258.128L209.044 268.083L209.04 268.079L209.036 268.083L206.479 265.525L216.44 255.566L206.479 245.608L209.036 243.05L209.04 243.054L209.044 243.05L219.001 253.004L228.956 243.05L228.96 243.054L228.964 243.05L231.521 245.608ZM-127.731 257.155V439.455H-131.348V71.1739H-127.731V257.155ZM199.067 253.281V256.897H-30.337V253.281H199.067ZM-102.157 462.961H-40.9556L-73.2216 495.223L-84.834 483.612L-82.2772 481.054L-73.2216 490.107L-49.6877 466.574H-102.157V462.958V462.961ZM447.398 397.88L464.966 415.444L462.409 418.002L444.841 400.438L447.398 397.88ZM468.066 393.746L489.767 415.444L487.21 418.002L465.509 396.304L468.066 393.746ZM569.347 71.1739V439.453H565.731V71.1739H569.347ZM505.021 431.964H448.47L423.141 406.637L425.698 404.079L449.968 428.348H505.019V431.964H505.021ZM40.1755 128.274L131.098 219.185H-36.5377V215.569H122.366L37.6187 130.832L40.1755 128.274ZM75.5798 198.519H-32.1219L22.633 143.771L25.1898 146.329L-23.3898 194.903H75.5798V198.519ZM55.675 115.874L178.631 238.814H-78.6481V220.992H-75.0318V235.199H169.899L53.1183 118.43L55.675 115.872V115.874ZM-112.748 238.556V84.3736L-43.7704 153.341L-36.265 145.836L-33.7081 148.394L-43.7704 158.456L-109.129 93.105V238.558H-112.745L-112.748 238.556ZM-50.2291 201.36C-50.2291 194.952 -55.4443 189.737 -61.8543 189.737C-68.2643 189.737 -73.4796 194.952 -73.4796 201.36C-73.4796 207.769 -68.2643 212.984 -61.8543 212.984C-55.4443 212.984 -50.2291 207.769 -50.2291 201.36ZM-53.8476 201.36C-53.8476 205.776 -57.4407 209.368 -61.8564 209.368C-66.2722 209.368 -69.8653 205.776 -69.8653 201.36C-69.8653 196.945 -66.2722 193.353 -61.8564 193.353C-57.4407 193.353 -53.8476 196.945 -53.8476 201.36ZM58.014 179.88H11.8538L36.7558 154.98L45.9617 164.184L43.4048 166.741L36.7558 160.094L20.5859 176.264H58.014V179.88ZM-42.4931 185.074L-45.0499 182.516L-2.16547 139.637L0.391357 142.195L-42.4931 185.074ZM-148.657 139.108H-172.656L-149.419 115.874L-146.862 118.432L-163.924 135.493H-148.657V139.108ZM-74.5137 182.764H-78.13V168.299H-74.5137V182.764ZM-95.1797 238.556V127.768L-53.5684 169.375L-62.2963 178.103L-64.8531 175.545L-58.6821 169.375L-91.5613 136.5V238.556H-95.1776H-95.1797ZM-146.834 421.102L-214.507 353.438H-147.107V357.054H-205.775L-144.278 418.544L-146.834 421.102ZM704.999 511.315H699.883L652.272 463.71L604.661 511.315H599.545L652.27 458.596L704.995 511.315H704.999ZM727.966 177.364V333.265L549.895 511.315H544.78L724.349 331.767V178.862L544.782 -0.685384H549.895L727.437 176.835L727.968 177.364H727.966ZM649.444 487.228L652.001 484.67L665.938 498.606H642.455V494.99H657.206L649.442 487.228H649.444ZM710.916 403.292V494.448L663.151 446.687L691.8 418.04V444.62H688.184V426.77L668.266 446.685L707.302 485.715V403.29H710.918L710.916 403.292ZM709.353 379.256L577.28 511.312H572.164L706.796 376.698L709.353 379.256ZM157.149 69.1872L159.706 66.6315L178.68 85.6028H144.866V81.9871H169.95L157.151 69.1893L157.149 69.1872ZM112.587 87.4223L160.365 39.6501L204.62 83.8997L202.063 86.4555L160.367 44.7638L115.148 89.9781L112.591 87.4202L112.587 87.4223ZM201.626 -0.685384H206.739L218.999 11.5729L231.259 -0.685384H236.372L218.999 16.6865L201.626 -0.685384ZM482.407 376.605V380.22C408.686 380.22 348.316 438.442 344.861 511.312H341.238C342.85 476.046 357.345 443.12 382.475 417.992C409.168 391.302 444.657 376.603 482.407 376.603V376.605ZM341.997 47.6813L339.44 50.2392L319.794 30.595V1.1468L293.948 26.9899L372.06 105.09L238.24 238.893L235.683 236.335L366.946 105.088L288.835 26.9878L316.511 -0.685384H323.41V29.095L341.997 47.6813ZM233.38 83.8997L277.635 39.6501L325.413 87.4223L322.856 89.9802L277.637 44.7659L235.939 86.4576L233.382 83.9018L233.38 83.8997ZM362.418 491.374H394.921L370.108 466.564L372.664 464.006L403.651 494.99H362.416V491.374H362.418ZM-272.916 107.337V16.1809L-225.149 63.9424L-253.798 92.5888V66.0095H-250.182V83.8574L-230.264 63.9424L-269.3 24.9123V107.337H-272.916ZM-44.407 134.025V130.409C29.3116 130.409 89.6836 72.1873 93.1392 -0.683269H96.7619C95.1504 34.5831 80.6554 67.5095 55.5249 92.6375C28.8315 119.327 -6.65735 134.027 -44.407 134.027V134.025ZM75.5798 19.2549H43.0771L67.8903 44.0656L65.3335 46.6234L34.3449 15.6392H75.5798V19.2549ZM56.2186 66.769L-11.2444 -0.685384H-6.12866L58.7775 64.2132L56.2207 66.7711L56.2186 66.769ZM-271.353 131.374L-139.28 -0.685384H-134.167L-268.799 133.929L-271.355 131.371L-271.353 131.374ZM381.781 443.858L449.244 511.312H444.131L379.225 446.414L381.781 443.856V443.858ZM-286.352 253.474V331.767L-106.782 511.315H-111.897L-289.968 333.265V177.364L-111.895 -0.685384H-106.782L-286.35 178.862V253.474H-286.352ZM-266.999 -0.685384H-261.885L-214.274 46.9196L-166.665 -0.685384H-161.549L-214.274 52.0332L-266.999 -0.685384ZM-211.447 23.3996L-214.003 25.9574L-227.94 12.0214H-204.457V15.6371H-219.208L-211.445 23.3996H-211.447ZM112.342 123.055H175.607V126.67H121.074L218.999 224.584L316.926 126.67H262.393V123.055H325.656L218.999 229.7L112.342 123.055ZM-230.808 173.721H-146.331V336.906H-230.808V333.29H-149.947V177.339H-230.808V173.723V173.721ZM-235.213 267.668L-270.85 303.3V207.327L-235.213 242.961L-237.77 245.517L-267.234 216.058V294.569L-237.77 265.108L-235.213 267.666V267.668ZM-227.369 256.897H-254.399V253.281H-227.369V256.897ZM-84.834 27.0174L-73.2216 15.4065L-40.9556 47.6686H-102.157V44.0529H-49.6877L-73.2216 20.5222L-82.2772 29.5753L-84.834 27.0195V27.0174ZM293.134 85.6007H259.32L278.294 66.6294L280.851 69.1851L268.05 81.9829H293.134V85.5986V85.6007ZM-241.904 322.454L-174.757 255.315L-241.904 188.173L-239.348 185.615L-172.2 252.755L-171.637 252.192L-169.08 254.75L-169.643 255.312L-169.08 255.875L-171.637 258.433L-172.2 257.87L-239.348 325.012L-241.904 322.454ZM-55.4105 114.842L-57.9672 117.397L-130.03 45.3435L-83.9966 -0.685384H-78.8808L-124.914 45.3435L-55.4083 114.842H-55.4105ZM-187.407 193.353H-164.415V239.305L-209.353 194.372L-206.796 191.817L-168.031 230.576V196.97H-187.407V193.355V193.353ZM-267.764 184.583L-199.582 252.757L-199.02 252.194L-196.463 254.752L-197.026 255.315L-196.463 255.877L-199.02 258.435L-199.582 257.872L-267.764 326.046L-270.321 323.488L-202.139 255.315L-270.321 187.141L-267.764 184.583ZM-209.353 316.255L-164.415 271.322V317.275H-187.407V313.659H-168.031V280.053L-206.796 318.813L-209.353 316.255ZM-25.1705 65.233H-86.1389V61.6173H-25.1705V65.233ZM-30.0663 116.881L-51.7666 95.1826L-49.2098 92.6248L-27.5095 114.323L-30.0663 116.881ZM161.928 144.222L164.485 141.664L213.308 190.482L210.751 193.039L161.928 144.222ZM-57.9672 393.23L-55.4105 395.788L-124.916 465.286L-78.8829 511.315H-83.9987L-130.034 465.286L-57.9715 393.232L-57.9672 393.23ZM273.515 141.664L276.072 144.222L227.249 193.039L224.692 190.482L273.515 141.664ZM217.233 102.945H342.268V106.561H95.7299V102.945H217.231H217.233ZM253.081 138.023L219.001 172.1L184.921 138.023L187.477 135.465L219.001 166.985L250.525 135.465L253.081 138.023ZM-9.40027 112.749L-26.9681 95.1848L-24.4113 92.6269L-6.84344 110.191L-9.40027 112.749ZM-67.0229 78.6655H-10.4725L14.8568 103.992L12.3 106.55L-11.9719 82.2833H-67.0229V78.6676V78.6655ZM239.906 123.816L229.057 134.666L226.5 132.108L237.349 121.258L239.906 123.816ZM208.943 134.663L198.094 123.814L200.651 121.256L211.5 132.106L208.943 134.663ZM178.631 271.813L55.675 394.753L53.1183 392.195L169.899 275.428H-75.0318V289.635H-78.6481V271.813H178.631ZM144.866 425.026H178.68L159.706 443.998L157.149 441.44L169.948 428.642H144.864V425.026H144.866ZM204.618 426.727L160.363 470.977L112.585 423.205L115.142 420.647L160.361 465.861L202.057 424.17L204.614 426.727H204.618ZM164.485 368.965L161.928 366.407L210.751 317.59L213.308 320.148L164.485 368.965ZM220.767 407.682H95.732V404.066H217.233H220.767H342.268V407.682H220.767ZM325.413 423.207L277.635 470.979L233.38 426.729L235.937 424.172L277.635 465.863L322.854 420.649L325.411 423.207H325.413ZM280.851 441.442L278.294 444L259.32 425.029H293.134V428.644H268.05L280.851 441.442ZM266.341 511.315H261.226L218.999 469.092L176.772 511.315H171.659L219.001 463.978L266.344 511.315H266.341ZM96.0027 462.948L98.5595 460.39L118.206 480.034V509.48L144.052 483.637L65.9404 405.537L199.76 271.732L202.317 274.29L71.0562 405.537L149.167 483.637L121.489 511.312H114.59V481.53L96.0027 462.946V462.948ZM236.374 511.315H231.259L218.999 499.056L206.739 511.315H201.624L218.999 493.943L236.374 511.315ZM276.072 366.407L273.515 368.965L224.692 320.148L227.249 317.59L276.072 366.407ZM294.242 511.315H289.127L218.999 441.197L148.871 511.315H143.755L218.997 436.081L294.238 511.315H294.242ZM184.919 372.606L218.999 338.529L253.079 372.606L250.523 375.164L218.999 343.644L187.475 375.164L184.919 372.606ZM706.796 133.929L572.164 -0.685384H577.28L709.353 131.374L706.796 133.931V133.929ZM412.264 418.028L505.562 511.315H500.446L409.706 420.586L412.262 418.028H412.264ZM599.549 -0.685384H604.665L652.276 46.9196L699.883 -0.685384H704.999L652.274 52.0332L599.549 -0.685384ZM642.457 12.0214H665.94L652.003 25.9574L649.447 23.3996L657.21 15.6371H642.459V12.0214H642.457ZM409.708 90.0436L500.446 -0.685384H505.562L412.264 92.6015L409.708 90.0436ZM325.658 387.575H262.395V383.959H316.928L219.001 286.045L121.076 383.959H175.609V387.575H112.344L219.001 280.929L325.658 387.575ZM366.944 405.539L235.681 274.292L238.237 271.734L372.057 405.539L293.946 483.639L319.792 509.482V480.036L339.438 460.392L341.995 462.95L323.408 481.534V511.317H316.509L288.83 483.641L366.942 405.541L366.944 405.539ZM229.057 375.964L239.906 386.813L237.349 389.371L226.5 378.522L229.057 375.964ZM198.092 386.813L208.941 375.964L211.498 378.522L200.649 389.371L198.092 386.813ZM691.8 66.0074V92.5867L663.151 63.9403L710.916 16.1809V107.337H707.3V24.9123L668.264 63.9424L688.182 83.8574V66.0095H691.798L691.8 66.0074ZM729 358.863V511.315H725.384V358.863H729ZM463.171 445.396H524.139V449.012H463.171V445.396ZM394.181 427.844L477.661 511.315H472.546L391.622 430.402L394.178 427.844H394.181ZM171.659 -0.685384H176.772L218.999 41.5373L261.228 -0.685384H266.341L218.999 46.651L171.659 -0.685384ZM58.7755 446.416L-6.13074 511.315H-11.2465L56.2165 443.86L58.7733 446.418L58.7755 446.416ZM143.758 -0.685384H148.873L219.001 69.4348L289.127 -0.685384H294.24L218.999 74.5484L143.758 -0.685384ZM43.8173 82.7847L-39.6634 -0.685384H-34.5477L46.3762 80.229L43.8194 82.7868L43.8173 82.7847ZM-291 151.767V-0.685384H-287.384V151.767H-291ZM-291 511.315V358.863H-287.384V511.315H-291ZM46.3762 430.4L-34.5477 511.312H-39.6634L43.8173 427.842L46.374 430.4H46.3762ZM391.624 80.229L472.548 -0.685384H477.663L394.183 82.7847L391.626 80.2269L391.624 80.229ZM71.0562 105.09L202.317 236.337L199.76 238.895L67.2199 106.37L65.9404 105.093L144.052 26.992L118.206 1.15103V30.5971L98.5595 50.2413L96.0027 47.6834L114.59 29.0971V-0.685384H121.489L149.165 26.9899L71.0541 105.09H71.0562ZM-161.549 511.315H-166.665L-214.276 463.71L-261.887 511.315H-267.003L-214.278 458.596L-161.554 511.315H-161.549ZM28.2923 420.586L-62.4465 511.315H-67.5623L25.7355 418.028L28.2923 420.586ZM75.5798 494.99H34.3449L65.3335 464.006L67.8903 466.564L43.0771 491.374H75.5798V494.99ZM-44.407 380.22V376.605C-6.65735 376.605 28.8315 391.302 55.5249 417.994C80.6554 443.122 95.1525 476.048 96.7619 511.315H93.1392C89.6836 438.444 29.3116 380.223 -44.407 380.223V380.22ZM25.7355 92.6015L-67.5623 -0.685384H-62.4465L28.2923 90.0436L25.7355 92.6015ZM-204.457 498.606H-227.94L-214.003 484.67L-211.447 487.228L-219.21 494.99H-204.459V498.606H-204.457ZM-268.797 376.698L-134.164 511.312H-139.28L-271.353 379.256L-268.797 376.698ZM-253.8 444.62V418.04L-225.151 446.687L-272.918 494.448V403.292H-269.302V485.717L-230.266 446.687L-250.184 426.772V444.622H-253.8V444.62ZM729 151.767H725.384V-0.685384H729V151.767ZM533.18 127.771V238.558H529.563V136.502L496.684 169.378L502.855 175.547L500.298 178.105L491.571 169.378L533.182 127.771H533.18ZM259.369 238.814L382.325 115.874L384.882 118.432L268.101 235.201H511.998V220.994H515.614V238.816H259.369V238.814ZM468.066 116.881L465.509 114.323L487.21 92.6248L489.767 95.1826L468.066 116.881ZM447.398 112.749L444.841 110.191L462.409 92.6269L464.966 95.1848L447.398 112.749ZM524.139 65.233H463.171V61.6173H524.139V65.233ZM540.154 47.6686H478.953L511.219 15.4065L522.832 27.0174L520.275 29.5731L511.219 20.5201L487.686 44.0508H540.154V47.6665V47.6686ZM515.096 168.296V182.761H511.479V168.296H515.096ZM415.365 143.771L470.12 198.519H362.418V194.903H461.388L412.808 146.329L415.365 143.771ZM499.854 189.737C493.444 189.737 488.229 194.952 488.229 201.36C488.229 207.769 493.444 212.984 499.854 212.984C506.264 212.984 511.479 207.769 511.479 201.36C511.479 194.952 506.264 189.737 499.854 189.737ZM499.854 193.353C504.27 193.353 507.863 196.945 507.863 201.36C507.863 205.776 504.27 209.368 499.854 209.368C495.439 209.368 491.845 205.776 491.845 201.36C491.845 196.945 495.439 193.353 499.854 193.353ZM392.038 164.184L401.244 154.98L426.146 179.88H379.986V176.264H417.414L401.242 160.094L394.595 166.741L392.038 164.184ZM448.47 78.6655H505.021V82.2812H449.97L425.7 106.548L423.143 103.99L448.472 78.6634L448.47 78.6655ZM668.808 336.906H584.331V173.721H668.808V177.337H587.947V333.288H668.808V336.904V336.906ZM673.211 242.961L708.848 207.327V303.3L673.211 267.668L675.768 265.11L705.231 294.571V216.06L675.768 245.519L673.211 242.963V242.961ZM522.834 483.612L511.221 495.223L478.956 462.961H540.157V466.576H487.688L511.221 490.109L520.277 481.056L522.834 483.614V483.612ZM495.967 117.397L493.41 114.842L562.916 45.3435L516.881 -0.685384H521.997L568.03 45.3435L495.967 117.397ZM665.369 253.281H692.399V256.897H665.369V253.281ZM625.407 317.275H602.415V271.322L647.353 316.255L644.796 318.813L606.033 280.053V313.659H625.409V317.275H625.407ZM705.762 326.044L637.58 257.87L637.018 258.433L634.461 255.875L635.023 255.312L634.461 254.75L637.018 252.192L637.58 252.755L705.762 184.583L708.319 187.141L640.137 255.315L708.319 323.488L705.762 326.046V326.044ZM679.902 188.173L612.754 255.315L679.902 322.454L677.345 325.012L610.197 257.87L609.635 258.433L607.078 255.875L607.641 255.312L607.078 254.75L609.635 252.192L610.197 252.755L677.345 185.615L679.902 188.173ZM647.353 194.374L602.415 239.307V193.355H625.407V196.97H606.031V230.576L644.794 191.817L647.351 194.372L647.353 194.374ZM379.225 64.2132L444.131 -0.685384H449.244L381.781 66.769L379.225 64.2111V64.2132ZM511.479 327.866H515.096V342.331H511.479V327.866ZM315.634 215.567H474.538V219.183H306.902L397.824 128.272L400.381 130.83L315.634 215.567ZM480.493 325.553L483.05 328.111L440.165 370.99L437.609 368.432L480.493 325.553ZM379.986 330.749H426.146L401.244 355.649L392.038 346.444L394.595 343.886L401.242 350.533L417.414 334.363H379.986V330.747V330.749ZM362.418 312.11H470.12L415.365 366.858L412.808 364.3L461.388 315.726H362.418V312.11ZM488.229 309.269C488.229 315.677 493.444 320.892 499.854 320.892C506.264 320.892 511.479 315.677 511.479 309.269C511.479 302.86 506.264 297.645 499.854 297.645C493.444 297.645 488.229 302.86 488.229 309.269ZM491.845 309.269C491.845 304.853 495.439 301.261 499.854 301.261C504.27 301.261 507.863 304.853 507.863 309.269C507.863 313.684 504.27 317.277 499.854 317.277C495.439 317.277 491.845 313.684 491.845 309.269ZM397.824 382.355L306.902 291.444H474.538V295.06H315.634L400.381 379.797L397.824 382.353V382.355ZM362.418 15.6392H403.653L372.666 46.6234L370.11 44.0656L394.923 19.2549H362.42V15.6392H362.418ZM482.407 130.407V134.022C444.657 134.022 409.168 119.323 382.475 92.6332C357.345 67.5053 342.847 34.5789 341.238 -0.6875H344.861C348.316 72.183 408.688 130.405 482.407 130.405V130.407ZM382.323 394.755L259.367 271.815H515.614V289.637H511.998V275.431H268.101L384.882 392.197L382.325 394.755H382.323ZM533.18 272.071V382.859L491.568 341.252L500.296 332.524L502.853 335.082L496.682 341.252L529.561 374.127V272.071H533.178H533.18ZM582.768 59.563L695.404 172.185L692.847 174.743L580.211 62.1208L582.768 59.563ZM550.748 238.556H547.131V93.105L481.773 158.456L471.71 148.394L474.267 145.836L481.773 153.341L550.75 84.3736V238.556H550.748ZM480.493 185.074L437.609 142.195L440.165 139.637L483.05 182.516L480.493 185.074ZM550.748 272.071V426.253L481.77 357.286L474.265 364.791L471.708 362.233L481.77 352.173L547.129 417.524V272.071H550.745H550.748ZM584.834 89.5274L652.507 157.191H585.107V153.576H643.777L582.28 92.0853L584.836 89.5295L584.834 89.5274ZM585.105 353.438H652.505L584.832 421.102L582.275 418.544L643.772 357.054H585.103V353.438H585.105ZM586.655 371.521H610.654L587.417 394.755L584.86 392.197L601.922 375.136H586.655V371.521ZM582.768 451.066L580.211 448.508L692.845 335.886L695.402 338.444L582.766 451.066H582.768ZM586.655 135.493H601.922L584.86 118.432L587.417 115.874L610.654 139.108H586.655V135.493Z" fill="url(#paint0_linear_9768_6119)"/>
</g>
</g>
<g clip-path="url(#clip1_9768_6119)">
<g style="mix-blend-mode:luminosity" opacity="0.5">
<path d="M1402.38 379.799L1399.82 382.355L1308.9 291.444H1476.54V295.06H1317.63L1402.38 379.797V379.799ZM1552.75 272.071H1549.13V417.524L1483.77 352.173L1473.71 362.233L1476.27 364.791L1483.77 357.286L1552.75 426.253V272.071H1552.75ZM1482.49 325.553L1439.61 368.432L1442.17 370.99L1485.05 328.111L1482.49 325.553ZM1584.77 451.066L1697.4 338.444L1694.85 335.886L1582.21 448.508L1584.77 451.066ZM1588.66 375.136H1603.92L1586.86 392.197L1589.42 394.755L1612.66 371.521H1588.66V375.136ZM1584.77 59.563L1582.21 62.1208L1694.85 174.743L1697.4 172.185L1584.77 59.563ZM946.592 395.788L944.035 393.23L871.972 465.284L918.006 511.312H923.121L877.088 465.284L946.594 395.785L946.592 395.788ZM1526.14 445.396H1465.17V449.012H1526.14V445.396ZM1450.47 431.964H1507.02V428.348H1451.97L1427.7 404.079L1425.14 406.637L1450.47 431.964ZM1470.07 393.746L1467.51 396.304L1489.21 418.002L1491.77 415.444L1470.07 393.746ZM1449.4 397.88L1446.84 400.438L1464.41 418.002L1466.97 415.444L1449.4 397.88ZM1587.11 157.191H1654.51L1586.83 89.5274L1584.28 92.0832L1645.77 153.573H1587.11V157.189V157.191ZM1535.18 382.859V272.071H1531.56V374.127L1498.68 341.252L1504.86 335.082L1502.3 332.527L1493.57 341.254L1535.18 382.861L1535.18 382.859ZM1394.04 346.446L1403.24 355.649L1428.15 330.749H1381.99V334.365H1419.41L1403.24 350.535L1396.6 343.888L1394.04 346.446ZM1501.85 320.892C1495.44 320.892 1490.23 315.677 1490.23 309.269C1490.23 302.86 1495.44 297.645 1501.85 297.645C1508.26 297.645 1513.48 302.86 1513.48 309.269C1513.48 315.677 1508.26 320.892 1501.85 320.892ZM1501.85 317.275C1506.27 317.275 1509.86 313.682 1509.86 309.267C1509.86 304.851 1506.27 301.259 1501.85 301.259C1497.44 301.259 1493.85 304.851 1493.85 309.267C1493.85 313.682 1497.44 317.275 1501.85 317.275ZM1417.36 366.858L1472.12 312.11H1364.42V315.726H1463.39L1414.81 364.3L1417.36 366.858ZM1518.13 342.331V327.866H1514.51V342.331H1518.13ZM1551.46 256.897V253.281H1487.9V256.897H1551.46ZM890.545 253.281V256.897H954.095V253.281H890.545ZM1201.07 256.897V253.281H971.663V256.897H1201.07ZM1208.48 245.608L1218.44 255.566L1208.48 265.525L1211.04 268.083L1211.04 268.079L1211.04 268.083L1221 258.128L1230.96 268.083L1230.96 268.079L1230.96 268.083L1233.52 265.525L1223.56 255.566L1233.52 245.608L1230.96 243.05L1230.96 243.054L1230.96 243.05L1221 253.004L1211.04 243.05L1211.04 243.054L1211.04 243.05L1208.48 245.608ZM1567.73 257.155V439.455H1571.35V71.1739H1567.73V257.155ZM1240.93 253.281V256.897H1470.34V253.281H1240.93ZM1542.16 462.961H1480.96L1513.22 495.223L1524.83 483.612L1522.28 481.054L1513.22 490.107L1489.69 466.574H1542.16V462.958V462.961ZM992.602 397.88L975.034 415.444L977.591 418.002L995.159 400.438L992.602 397.88ZM971.934 393.746L950.233 415.444L952.79 418.002L974.491 396.304L971.934 393.746ZM870.653 71.1739V439.453H874.269V71.1739H870.653ZM934.979 431.964H991.53L1016.86 406.637L1014.3 404.079L990.032 428.348H934.981V431.964H934.979ZM1399.82 128.274L1308.9 219.185H1476.54V215.569H1317.63L1402.38 130.832L1399.82 128.274ZM1364.42 198.519H1472.12L1417.37 143.771L1414.81 146.329L1463.39 194.903H1364.42V198.519ZM1384.32 115.874L1261.37 238.814H1518.65V220.992H1515.03V235.199H1270.1L1386.88 118.43L1384.32 115.872V115.874ZM1552.75 238.556V84.3736L1483.77 153.341L1476.26 145.836L1473.71 148.394L1483.77 158.456L1549.13 93.105V238.558H1552.75L1552.75 238.556ZM1490.23 201.36C1490.23 194.952 1495.44 189.737 1501.85 189.737C1508.26 189.737 1513.48 194.952 1513.48 201.36C1513.48 207.769 1508.26 212.984 1501.85 212.984C1495.44 212.984 1490.23 207.769 1490.23 201.36ZM1493.85 201.36C1493.85 205.776 1497.44 209.368 1501.86 209.368C1506.27 209.368 1509.87 205.776 1509.87 201.36C1509.87 196.945 1506.27 193.353 1501.86 193.353C1497.44 193.353 1493.85 196.945 1493.85 201.36ZM1381.99 179.88H1428.15L1403.24 154.98L1394.04 164.184L1396.6 166.741L1403.24 160.094L1419.41 176.264H1381.99V179.88ZM1482.49 185.074L1485.05 182.516L1442.17 139.637L1439.61 142.195L1482.49 185.074ZM1588.66 139.108H1612.66L1589.42 115.874L1586.86 118.432L1603.92 135.493H1588.66V139.108ZM1514.51 182.764H1518.13V168.299H1514.51V182.764ZM1535.18 238.556V127.768L1493.57 169.375L1502.3 178.103L1504.85 175.545L1498.68 169.375L1531.56 136.5V238.556H1535.18H1535.18ZM1586.83 421.102L1654.51 353.438H1587.11V357.054H1645.77L1584.28 418.544L1586.83 421.102ZM735.001 511.315H740.117L787.728 463.71L835.339 511.315H840.455L787.73 458.596L735.005 511.315H735.001ZM712.034 177.364V333.265L890.105 511.315H895.22L715.651 331.767V178.862L895.218 -0.685384H890.105L712.563 176.835L712.032 177.364H712.034ZM790.556 487.228L787.999 484.67L774.062 498.606H797.545V494.99H782.794L790.558 487.228H790.556ZM729.084 403.292V494.448L776.849 446.687L748.2 418.04V444.62H751.816V426.77L771.734 446.685L732.698 485.715V403.29H729.082L729.084 403.292ZM730.647 379.256L862.72 511.312H867.836L733.204 376.698L730.647 379.256ZM1282.85 69.1872L1280.29 66.6315L1261.32 85.6028H1295.13V81.9871H1270.05L1282.85 69.1893L1282.85 69.1872ZM1327.41 87.4223L1279.63 39.6501L1235.38 83.8997L1237.94 86.4555L1279.63 44.7638L1324.85 89.9781L1327.41 87.4202L1327.41 87.4223ZM1238.37 -0.685384H1233.26L1221 11.5729L1208.74 -0.685384H1203.63L1221 16.6865L1238.37 -0.685384ZM957.593 376.605V380.22C1031.31 380.22 1091.68 438.442 1095.14 511.312H1098.76C1097.15 476.046 1082.66 443.12 1057.52 417.992C1030.83 391.302 995.343 376.603 957.593 376.603V376.605ZM1098 47.6813L1100.56 50.2392L1120.21 30.595V1.1468L1146.05 26.9899L1067.94 105.09L1201.76 238.893L1204.32 236.335L1073.05 105.088L1151.17 26.9878L1123.49 -0.685384H1116.59V29.095L1098 47.6813ZM1206.62 83.8997L1162.37 39.6501L1114.59 87.4223L1117.14 89.9802L1162.36 44.7659L1204.06 86.4576L1206.62 83.9018L1206.62 83.8997ZM1077.58 491.374H1045.08L1069.89 466.564L1067.34 464.006L1036.35 494.99H1077.58V491.374H1077.58ZM1712.92 107.337V16.1809L1665.15 63.9424L1693.8 92.5888V66.0095H1690.18V83.8574L1670.26 63.9424L1709.3 24.9123V107.337H1712.92ZM1484.41 134.025V130.409C1410.69 130.409 1350.32 72.1873 1346.86 -0.683269H1343.24C1344.85 34.5831 1359.34 67.5095 1384.48 92.6375C1411.17 119.327 1446.66 134.027 1484.41 134.027V134.025ZM1364.42 19.2549H1396.92L1372.11 44.0656L1374.67 46.6234L1405.66 15.6392H1364.42V19.2549ZM1383.78 66.769L1451.24 -0.685384H1446.13L1381.22 64.2132L1383.78 66.7711L1383.78 66.769ZM1711.35 131.374L1579.28 -0.685384H1574.17L1708.8 133.929L1711.36 131.371L1711.35 131.374ZM1058.22 443.858L990.756 511.312H995.869L1060.78 446.414L1058.22 443.856V443.858ZM1726.35 253.474V331.767L1546.78 511.315H1551.9L1729.97 333.265V177.364L1551.9 -0.685384H1546.78L1726.35 178.862V253.474H1726.35ZM1707 -0.685384H1701.89L1654.27 46.9196L1606.67 -0.685384H1601.55L1654.27 52.0332L1707 -0.685384ZM1651.45 23.3996L1654 25.9574L1667.94 12.0214H1644.46V15.6371H1659.21L1651.44 23.3996H1651.45ZM1327.66 123.055H1264.39V126.67H1318.93L1221 224.584L1123.07 126.67H1177.61V123.055H1114.34L1221 229.7L1327.66 123.055ZM1670.81 173.721H1586.33V336.906H1670.81V333.29H1589.95V177.339H1670.81V173.723V173.721ZM1675.21 267.668L1710.85 303.3V207.327L1675.21 242.961L1677.77 245.517L1707.23 216.058V294.569L1677.77 265.108L1675.21 267.666V267.668ZM1667.37 256.897H1694.4V253.281H1667.37V256.897ZM1524.83 27.0174L1513.22 15.4065L1480.96 47.6686H1542.16V44.0529H1489.69L1513.22 20.5222L1522.28 29.5753L1524.83 27.0195V27.0174ZM1146.87 85.6007H1180.68L1161.71 66.6294L1159.15 69.1851L1171.95 81.9829H1146.87V85.5986V85.6007ZM1681.9 322.454L1614.76 255.315L1681.9 188.173L1679.35 185.615L1612.2 252.755L1611.64 252.192L1609.08 254.75L1609.64 255.312L1609.08 255.875L1611.64 258.433L1612.2 257.87L1679.35 325.012L1681.9 322.454ZM1495.41 114.842L1497.97 117.397L1570.03 45.3435L1524 -0.685384H1518.88L1564.91 45.3435L1495.41 114.842H1495.41ZM1627.41 193.353H1604.41V239.305L1649.35 194.372L1646.8 191.817L1608.03 230.576V196.97H1627.41V193.355V193.353ZM1707.76 184.583L1639.58 252.757L1639.02 252.194L1636.46 254.752L1637.03 255.315L1636.46 255.877L1639.02 258.435L1639.58 257.872L1707.76 326.046L1710.32 323.488L1642.14 255.315L1710.32 187.141L1707.76 184.583ZM1649.35 316.255L1604.41 271.322V317.275H1627.41V313.659H1608.03V280.053L1646.8 318.813L1649.35 316.255ZM1465.17 65.233H1526.14V61.6173H1465.17V65.233ZM1470.07 116.881L1491.77 95.1826L1489.21 92.6248L1467.51 114.323L1470.07 116.881ZM1278.07 144.222L1275.52 141.664L1226.69 190.482L1229.25 193.039L1278.07 144.222ZM1497.97 393.23L1495.41 395.788L1564.92 465.286L1518.88 511.315H1524L1570.03 465.286L1497.97 393.232L1497.97 393.23ZM1166.49 141.664L1163.93 144.222L1212.75 193.039L1215.31 190.482L1166.49 141.664ZM1222.77 102.945H1097.73V106.561H1344.27V102.945H1222.77H1222.77ZM1186.92 138.023L1221 172.1L1255.08 138.023L1252.52 135.465L1221 166.985L1189.48 135.465L1186.92 138.023ZM1449.4 112.749L1466.97 95.1848L1464.41 92.6269L1446.84 110.191L1449.4 112.749ZM1507.02 78.6655H1450.47L1425.14 103.992L1427.7 106.55L1451.97 82.2833H1507.02V78.6676V78.6655ZM1200.09 123.816L1210.94 134.666L1213.5 132.108L1202.65 121.258L1200.09 123.816ZM1231.06 134.663L1241.91 123.814L1239.35 121.256L1228.5 132.106L1231.06 134.663ZM1261.37 271.813L1384.32 394.753L1386.88 392.195L1270.1 275.428H1515.03V289.635H1518.65V271.813H1261.37ZM1295.13 425.026H1261.32L1280.29 443.998L1282.85 441.44L1270.05 428.642H1295.14V425.026H1295.13ZM1235.38 426.727L1279.64 470.977L1327.41 423.205L1324.86 420.647L1279.64 465.861L1237.94 424.17L1235.39 426.727H1235.38ZM1275.52 368.965L1278.07 366.407L1229.25 317.59L1226.69 320.148L1275.52 368.965ZM1219.23 407.682H1344.27V404.066H1222.77H1219.23H1097.73V407.682H1219.23ZM1114.59 423.207L1162.37 470.979L1206.62 426.729L1204.06 424.172L1162.37 465.863L1117.15 420.649L1114.59 423.207H1114.59ZM1159.15 441.442L1161.71 444L1180.68 425.029H1146.87V428.644H1171.95L1159.15 441.442ZM1173.66 511.315H1178.77L1221 469.092L1263.23 511.315H1268.34L1221 463.978L1173.66 511.315H1173.66ZM1344 462.948L1341.44 460.39L1321.79 480.034V509.48L1295.95 483.637L1374.06 405.537L1240.24 271.732L1237.68 274.29L1368.94 405.537L1290.83 483.637L1318.51 511.312H1325.41V481.53L1344 462.946V462.948ZM1203.63 511.315H1208.74L1221 499.056L1233.26 511.315H1238.38L1221 493.943L1203.63 511.315ZM1163.93 366.407L1166.49 368.965L1215.31 320.148L1212.75 317.59L1163.93 366.407ZM1145.76 511.315H1150.87L1221 441.197L1291.13 511.315H1296.24L1221 436.081L1145.76 511.315H1145.76ZM1255.08 372.606L1221 338.529L1186.92 372.606L1189.48 375.164L1221 343.644L1252.52 375.164L1255.08 372.606ZM733.204 133.929L867.836 -0.685384H862.72L730.647 131.374L733.204 133.931V133.929ZM1027.74 418.028L934.438 511.315H939.554L1030.29 420.586L1027.74 418.028H1027.74ZM840.451 -0.685384H835.335L787.724 46.9196L740.117 -0.685384H735.001L787.726 52.0332L840.451 -0.685384ZM797.543 12.0214H774.06L787.997 25.9574L790.553 23.3996L782.79 15.6371H797.541V12.0214H797.543ZM1030.29 90.0436L939.554 -0.685384H934.438L1027.74 92.6015L1030.29 90.0436ZM1114.34 387.575H1177.6V383.959H1123.07L1221 286.045L1318.92 383.959H1264.39V387.575H1327.66L1221 280.929L1114.34 387.575ZM1073.06 405.539L1204.32 274.292L1201.76 271.734L1067.94 405.539L1146.05 483.639L1120.21 509.482V480.036L1100.56 460.392L1098 462.95L1116.59 481.534V511.317H1123.49L1151.17 483.641L1073.06 405.541L1073.06 405.539ZM1210.94 375.964L1200.09 386.813L1202.65 389.371L1213.5 378.522L1210.94 375.964ZM1241.91 386.813L1231.06 375.964L1228.5 378.522L1239.35 389.371L1241.91 386.813ZM748.2 66.0074V92.5867L776.849 63.9403L729.084 16.1809V107.337H732.7V24.9123L771.736 63.9424L751.818 83.8574V66.0095H748.202L748.2 66.0074ZM711 358.863V511.315H714.616V358.863H711ZM976.829 445.396H915.861V449.012H976.829V445.396ZM1045.82 427.844L962.339 511.315H967.454L1048.38 430.402L1045.82 427.844H1045.82ZM1268.34 -0.685384H1263.23L1221 41.5373L1178.77 -0.685384H1173.66L1221 46.651L1268.34 -0.685384ZM1381.22 446.416L1446.13 511.315H1451.25L1383.78 443.86L1381.23 446.418L1381.22 446.416ZM1296.24 -0.685384H1291.13L1221 69.4348L1150.87 -0.685384H1145.76L1221 74.5484L1296.24 -0.685384ZM1396.18 82.7847L1479.66 -0.685384H1474.55L1393.62 80.229L1396.18 82.7868L1396.18 82.7847ZM1731 151.767V-0.685384H1727.38V151.767H1731ZM1731 511.315V358.863H1727.38V511.315H1731ZM1393.62 430.4L1474.55 511.312H1479.66L1396.18 427.842L1393.63 430.4H1393.62ZM1048.38 80.229L967.452 -0.685384H962.337L1045.82 82.7847L1048.37 80.2269L1048.38 80.229ZM1368.94 105.09L1237.68 236.337L1240.24 238.895L1372.78 106.37L1374.06 105.093L1295.95 26.992L1321.79 1.15103V30.5971L1341.44 50.2413L1344 47.6834L1325.41 29.0971V-0.685384H1318.51L1290.83 26.9899L1368.95 105.09H1368.94ZM1601.55 511.315H1606.67L1654.28 463.71L1701.89 511.315H1707L1654.28 458.596L1601.55 511.315H1601.55ZM1411.71 420.586L1502.45 511.315H1507.56L1414.26 418.028L1411.71 420.586ZM1364.42 494.99H1405.66L1374.67 464.006L1372.11 466.564L1396.92 491.374H1364.42V494.99ZM1484.41 380.22V376.605C1446.66 376.605 1411.17 391.302 1384.48 417.994C1359.34 443.122 1344.85 476.048 1343.24 511.315H1346.86C1350.32 438.444 1410.69 380.223 1484.41 380.223V380.22ZM1414.26 92.6015L1507.56 -0.685384H1502.45L1411.71 90.0436L1414.26 92.6015ZM1644.46 498.606H1667.94L1654 484.67L1651.45 487.228L1659.21 494.99H1644.46V498.606H1644.46ZM1708.8 376.698L1574.16 511.312H1579.28L1711.35 379.256L1708.8 376.698ZM1693.8 444.62V418.04L1665.15 446.687L1712.92 494.448V403.292H1709.3V485.717L1670.27 446.687L1690.18 426.772V444.622H1693.8V444.62ZM711 151.767H714.616V-0.685384H711V151.767ZM906.82 127.771V238.558H910.437V136.502L943.316 169.378L937.145 175.547L939.702 178.105L948.429 169.378L906.818 127.771H906.82ZM1180.63 238.814L1057.68 115.874L1055.12 118.432L1171.9 235.201H928.002V220.994H924.386V238.816H1180.63V238.814ZM971.934 116.881L974.491 114.323L952.79 92.6248L950.233 95.1826L971.934 116.881ZM992.602 112.749L995.159 110.191L977.591 92.6269L975.034 95.1848L992.602 112.749ZM915.861 65.233H976.829V61.6173H915.861V65.233ZM899.846 47.6686H961.047L928.781 15.4065L917.168 27.0174L919.725 29.5731L928.781 20.5201L952.314 44.0508H899.846V47.6665V47.6686ZM924.904 168.296V182.761H928.521V168.296H924.904ZM1024.64 143.771L969.88 198.519H1077.58V194.903H978.612L1027.19 146.329L1024.64 143.771ZM940.146 189.737C946.556 189.737 951.771 194.952 951.771 201.36C951.771 207.769 946.556 212.984 940.146 212.984C933.736 212.984 928.521 207.769 928.521 201.36C928.521 194.952 933.736 189.737 940.146 189.737ZM940.146 193.353C935.73 193.353 932.137 196.945 932.137 201.36C932.137 205.776 935.73 209.368 940.146 209.368C944.561 209.368 948.155 205.776 948.155 201.36C948.155 196.945 944.561 193.353 940.146 193.353ZM1047.96 164.184L1038.76 154.98L1013.85 179.88H1060.01V176.264H1022.59L1038.76 160.094L1045.4 166.741L1047.96 164.184ZM991.53 78.6655H934.979V82.2812H990.03L1014.3 106.548L1016.86 103.99L991.528 78.6634L991.53 78.6655ZM771.192 336.906H855.669V173.721H771.192V177.337H852.053V333.288H771.192V336.904V336.906ZM766.789 242.961L731.152 207.327V303.3L766.789 267.668L764.232 265.11L734.769 294.571V216.06L764.232 245.519L766.789 242.963V242.961ZM917.166 483.612L928.779 495.223L961.044 462.961H899.843V466.576H952.312L928.779 490.109L919.723 481.056L917.166 483.614V483.612ZM944.033 117.397L946.59 114.842L877.084 45.3435L923.119 -0.685384H918.003L871.97 45.3435L944.033 117.397ZM774.631 253.281H747.601V256.897H774.631V253.281ZM814.593 317.275H837.585V271.322L792.647 316.255L795.204 318.813L833.967 280.053V313.659H814.591V317.275H814.593ZM734.238 326.044L802.42 257.87L802.982 258.433L805.539 255.875L804.977 255.312L805.539 254.75L802.982 252.192L802.42 252.755L734.238 184.583L731.681 187.141L799.863 255.315L731.681 323.488L734.238 326.046V326.044ZM760.098 188.173L827.246 255.315L760.098 322.454L762.655 325.012L829.803 257.87L830.365 258.433L832.922 255.875L832.359 255.312L832.922 254.75L830.365 252.192L829.803 252.755L762.655 185.615L760.098 188.173ZM792.647 194.374L837.585 239.307V193.355H814.593V196.97H833.969V230.576L795.206 191.817L792.649 194.372L792.647 194.374ZM1060.78 64.2132L995.869 -0.685384H990.756L1058.22 66.769L1060.78 64.2111V64.2132ZM928.521 327.866H924.904V342.331H928.521V327.866ZM1124.37 215.567H965.462V219.183H1133.1L1042.18 128.272L1039.62 130.83L1124.37 215.567ZM959.507 325.553L956.95 328.111L999.835 370.99L1002.39 368.432L959.507 325.553ZM1060.01 330.749H1013.85L1038.76 355.649L1047.96 346.444L1045.4 343.886L1038.76 350.533L1022.59 334.363H1060.01V330.747V330.749ZM1077.58 312.11H969.88L1024.64 366.858L1027.19 364.3L978.612 315.726H1077.58V312.11ZM951.771 309.269C951.771 315.677 946.556 320.892 940.146 320.892C933.736 320.892 928.521 315.677 928.521 309.269C928.521 302.86 933.736 297.645 940.146 297.645C946.556 297.645 951.771 302.86 951.771 309.269ZM948.155 309.269C948.155 304.853 944.561 301.261 940.146 301.261C935.73 301.261 932.137 304.853 932.137 309.269C932.137 313.684 935.73 317.277 940.146 317.277C944.561 317.277 948.155 313.684 948.155 309.269ZM1042.18 382.355L1133.1 291.444H965.462V295.06H1124.37L1039.62 379.797L1042.18 382.353V382.355ZM1077.58 15.6392H1036.35L1067.33 46.6234L1069.89 44.0656L1045.08 19.2549H1077.58V15.6392H1077.58ZM957.593 130.407V134.022C995.343 134.022 1030.83 119.323 1057.52 92.6332C1082.66 67.5053 1097.15 34.5789 1098.76 -0.6875H1095.14C1091.68 72.183 1031.31 130.405 957.593 130.405V130.407ZM1057.68 394.755L1180.63 271.815H924.386V289.637H928.002V275.431H1171.9L1055.12 392.197L1057.68 394.755H1057.68ZM906.82 272.071V382.859L948.432 341.252L939.704 332.524L937.147 335.082L943.318 341.252L910.439 374.127V272.071H906.822H906.82ZM857.232 59.563L744.596 172.185L747.153 174.743L859.789 62.1208L857.232 59.563ZM889.252 238.556H892.869V93.105L958.227 158.456L968.29 148.394L965.733 145.836L958.227 153.341L889.25 84.3736V238.556H889.252ZM959.507 185.074L1002.39 142.195L999.835 139.637L956.95 182.516L959.507 185.074ZM889.252 272.071V426.253L958.23 357.286L965.735 364.791L968.292 362.233L958.23 352.173L892.871 417.524V272.071H889.255H889.252ZM855.166 89.5274L787.493 157.191H854.893V153.576H796.223L857.72 92.0853L855.164 89.5295L855.166 89.5274ZM854.895 353.438H787.495L855.168 421.102L857.725 418.544L796.228 357.054H854.897V353.438H854.895ZM853.345 371.521H829.346L852.583 394.755L855.14 392.197L838.078 375.136H853.345V371.521ZM857.232 451.066L859.789 448.508L747.155 335.886L744.598 338.444L857.234 451.066H857.232ZM853.345 135.493H838.078L855.14 118.432L852.583 115.874L829.346 139.108H853.345V135.493Z" fill="url(#paint1_linear_9768_6119)"/>
</g>
</g>
<defs>
<linearGradient id="paint0_linear_9768_6119" x1="729" y1="255.315" x2="-291" y2="255.315" gradientUnits="userSpaceOnUse">
<stop stop-color="white"/>
<stop offset="0.1" stop-color="white" stop-opacity="0.98"/>
<stop offset="0.21" stop-color="white" stop-opacity="0.93"/>
<stop offset="0.32" stop-color="white" stop-opacity="0.85"/>
<stop offset="0.44" stop-color="white" stop-opacity="0.73"/>
<stop offset="0.55" stop-color="white" stop-opacity="0.58"/>
<stop offset="0.67" stop-color="white" stop-opacity="0.39"/>
<stop offset="0.79" stop-color="white" stop-opacity="0.18"/>
<stop offset="0.82" stop-color="white" stop-opacity="0.12"/>
<stop offset="0.85" stop-color="white" stop-opacity="0.09"/>
<stop offset="0.93" stop-color="white" stop-opacity="0.02"/>
<stop offset="1" stop-color="white" stop-opacity="0"/>
</linearGradient>
<linearGradient id="paint1_linear_9768_6119" x1="711" y1="255.315" x2="1731" y2="255.315" gradientUnits="userSpaceOnUse">
<stop stop-color="white"/>
<stop offset="0.1" stop-color="white" stop-opacity="0.98"/>
<stop offset="0.21" stop-color="white" stop-opacity="0.93"/>
<stop offset="0.32" stop-color="white" stop-opacity="0.85"/>
<stop offset="0.44" stop-color="white" stop-opacity="0.73"/>
<stop offset="0.55" stop-color="white" stop-opacity="0.58"/>
<stop offset="0.67" stop-color="white" stop-opacity="0.39"/>
<stop offset="0.79" stop-color="white" stop-opacity="0.18"/>
<stop offset="0.82" stop-color="white" stop-opacity="0.12"/>
<stop offset="0.85" stop-color="white" stop-opacity="0.09"/>
<stop offset="0.93" stop-color="white" stop-opacity="0.02"/>
<stop offset="1" stop-color="white" stop-opacity="0"/>
</linearGradient>
<clipPath id="clip0_9768_6119">
<rect width="715" height="43.6857" fill="white" transform="translate(10 0.314453)"/>
</clipPath>
<clipPath id="clip1_9768_6119">
<rect width="715" height="43.6857" fill="white" transform="matrix(-1 0 0 1 1430 0.314453)"/>
</clipPath>
</defs>
</svg>
