<svg width="183" height="47" viewBox="0 0 183 47" fill="none" xmlns="http://www.w3.org/2000/svg">
<g clip-path="url(#clip0_1_1616)">
<path d="M37.428 16.1049C39.5258 14.5985 40.9059 12.1608 40.9059 9.36714C40.9059 4.79313 37.1796 1.09558 32.5701 1.09558C27.9606 1.09558 24.2344 4.79313 24.2344 9.36714C24.2344 12.1335 25.6145 14.5985 27.7122 16.1049C24.7588 17.6661 22.6611 20.5967 22.3022 24.0478C21.971 23.0618 21.5294 22.1305 20.867 21.2541C17.5547 16.7075 14.6565 15.4476 6.376 13.8864L8.69456 9.01108H19.9285C20.867 9.01108 21.3086 8.65502 21.5018 8.27157L23.5995 3.39628L23.0751 2.98544C22.1366 4.19057 21.6398 4.49185 20.2873 4.49185H8.28053L1.95971 18.0769C1.95971 18.0769 1.90451 18.2413 1.90451 18.3508C1.90451 18.7069 2.07012 18.8164 2.59456 18.8164C8.14252 18.8164 12.2 20.6515 14.9326 22.8427C17.5271 24.9243 18.8244 27.8001 18.8244 31.4703C18.8244 36.4277 15.0706 41.1935 11.0131 41.1935C9.85383 41.1935 8.52894 40.6731 6.90044 39.3584C5.05112 37.852 3.94704 37.5781 2.62216 37.5781C0.993651 37.5781 0.0275879 38.3176 0.0275879 39.7692C0.0275879 41.9604 3.03619 43.3298 7.39727 43.3298C11.3443 43.3298 14.5185 42.4808 17.2511 40.5088C21.143 37.6877 22.8819 34.1818 22.9371 28.7861C24.4 32.6754 28.1814 35.4691 32.6253 35.4691C33.4534 35.4691 34.2538 35.3596 35.0267 35.1678L37.4556 28.5396C36.3792 30.046 34.6403 31.0321 32.6253 31.0321C29.3683 31.0321 26.7461 28.4027 26.7461 25.1981C26.7461 21.9936 29.3959 19.3642 32.6253 19.3642C35.8547 19.3642 38.5045 21.9936 38.5045 25.1981C38.5045 25.3625 38.5045 25.5268 38.5045 25.6912L40.9335 19.0629C40.0226 17.8578 38.8633 16.8444 37.5108 16.1323L37.428 16.1049ZM32.5701 13.5029C30.2792 13.5029 28.4022 11.6405 28.4022 9.36714C28.4022 7.09383 30.2792 5.23136 32.5701 5.23136C34.8611 5.23136 36.738 7.09383 36.738 9.36714C36.738 11.6405 34.8611 13.5029 32.5701 13.5029Z" fill="white"/>
<path d="M58.433 37.1399V40.2074C58.433 40.5087 58.2674 40.6731 57.9362 40.6731H55.5624C55.5624 40.6731 55.3692 40.7278 55.3692 40.8648V45.4662C55.3692 45.7675 55.2036 45.9318 54.8724 45.9318H51.0081C50.6769 45.9318 50.5113 45.7675 50.5113 45.4662V40.8648C50.5113 40.8648 50.4561 40.6731 50.3181 40.6731H35.6063C35.2751 40.6731 35.1095 40.5087 35.1095 40.2074V37.6329C35.1095 37.6329 35.1371 37.3316 35.2199 37.0851L42.5344 17.4743C42.6448 17.2278 42.838 17.1183 43.1416 17.1183H47.3095C47.6959 17.1183 47.8063 17.2826 47.7235 17.6113L40.7955 36.4277C40.7955 36.4277 40.7955 36.5373 40.7955 36.5921C40.7955 36.6468 40.9059 36.6742 40.9611 36.6742H50.2905C50.2905 36.6742 50.4837 36.6195 50.4837 36.4825V32.9767C50.4837 32.6754 50.6493 32.5111 50.9805 32.5111H54.8448C55.176 32.5111 55.3416 32.6754 55.3416 32.9767V36.4825C55.3416 36.4825 55.3968 36.6742 55.5348 36.6742H57.9086C58.2398 36.6742 58.4054 36.8386 58.4054 37.1399H58.433Z" fill="white"/>
<path d="M49.2969 19.7477C49.2969 11.1474 53.8236 3.45105 62.9322 3.45105C72.0408 3.45105 76.5675 11.1474 76.5675 19.7477C76.5675 28.3479 72.0408 35.3869 62.9322 35.3869C53.8236 35.3869 49.2969 28.4027 49.2969 19.7477ZM71.5163 19.7477C71.5163 9.55886 68.3697 5.80653 62.9322 5.80653C57.4946 5.80653 54.348 9.55886 54.348 19.7477C54.348 29.9365 57.4946 33.0315 62.9322 33.0315C68.3697 33.0315 71.5163 30.2104 71.5163 19.7477Z" fill="white"/>
<path d="M88.9882 0H88.381V47H88.9882V0Z" fill="white"/>
<path d="M101.989 20.0215H102.817V22.9795H107.454V20.0215H108.309V26.951H107.454V23.6095H102.817V26.951H101.989V20.0215Z" fill="white"/>
<path d="M120.841 23.4452C120.841 25.3624 119.599 27.0605 117.059 27.0605C114.685 27.0605 113.361 25.472 113.361 23.4999C113.361 21.5279 114.685 19.9393 117.142 19.9393C119.433 19.9393 120.841 21.4184 120.841 23.4452ZM114.216 23.4452C114.216 25.0063 115.21 26.4032 117.087 26.4032C119.102 26.4032 119.957 25.0063 119.957 23.4452C119.957 21.884 119.019 20.5419 117.114 20.5419C115.21 20.5419 114.244 21.9114 114.244 23.4452H114.216Z" fill="white"/>
<path d="M125.919 20.0215H126.747V26.321H131.109L130.971 26.951H125.919V20.0215Z" fill="white"/>
<path d="M135.635 20.0215H138.451C140.714 20.0215 142.287 21.3636 142.287 23.4178C142.287 25.472 140.769 26.951 138.423 26.951H135.635V20.0215ZM136.463 26.321H138.34C140.41 26.321 141.404 25.0885 141.404 23.4451C141.404 21.9935 140.493 20.6514 138.34 20.6514H136.463V26.321Z" fill="white"/>
<path d="M148.166 20.0215V26.951H147.338V20.0215H148.166Z" fill="white"/>
<path d="M153.825 26.951V20.0215H154.984C156.226 21.6648 159.014 25.335 159.511 26.1019C159.428 25.1433 159.456 24.1025 159.456 22.9795V20.0489H160.256V26.9784H159.18C158.02 25.4172 155.15 21.5279 154.598 20.761C154.653 21.6101 154.653 22.7056 154.653 23.9655V26.9784H153.825V26.951Z" fill="white"/>
<path d="M172.29 26.951H171.628C171.628 26.951 171.545 26.5128 171.545 25.9102C171.214 26.4032 170.552 27.0332 168.923 27.0332C166.549 27.0332 165.335 25.5268 165.335 23.5274C165.335 21.528 166.632 19.912 169.089 19.912C170.938 19.912 172.097 20.7337 172.346 21.9936H171.518C171.186 21.0897 170.469 20.5146 169.061 20.5146C167.074 20.5146 166.218 21.8292 166.218 23.5C166.218 25.0064 167.046 26.4032 169.006 26.4032C170.966 26.4032 171.49 25.3351 171.49 23.9656V23.8834H168.978V23.2535H172.29V26.951Z" fill="white"/>
<path d="M177.949 25.0611C178.197 25.9376 178.887 26.458 180.157 26.458C181.565 26.458 182.089 25.8828 182.089 25.1707C182.089 24.4586 181.703 23.9929 179.936 23.6369C178.114 23.2534 177.397 22.733 177.397 21.747C177.397 20.761 178.225 19.9393 180.019 19.9393C181.813 19.9393 182.669 20.8706 182.779 21.747H181.923C181.758 21.0623 181.233 20.5419 179.991 20.5419C178.887 20.5419 178.28 20.9801 178.28 21.6922C178.28 22.4044 178.777 22.6783 180.267 22.9795C182.586 23.4725 182.972 24.2394 182.972 25.1159C182.972 26.1841 182.034 27.0605 180.102 27.0605C178.032 27.0605 177.231 26.0745 177.066 25.0885H177.949V25.0611Z" fill="white"/>
</g>
<defs>
<clipPath id="clip0_1_1616">
<rect width="183" height="47" fill="white"/>
</clipPath>
</defs>
</svg>
