<svg width="202" height="484" viewBox="0 0 202 484" fill="none" xmlns="http://www.w3.org/2000/svg">
<g style="mix-blend-mode:luminosity" clip-path="url(#clip0_1_938)">
<path d="M-265.798 541.745L-269.438 545.384L-398.869 415.942H-160.234V421.091H-386.439L-265.798 541.742V541.745ZM-51.7476 388.358H-56.8955V595.459L-149.936 502.409L-164.26 516.733L-160.62 520.375L-149.936 509.69L-51.7445 607.888V388.358H-51.7476ZM-151.757 464.508L-212.804 525.56L-209.164 529.202L-148.117 468.15L-151.757 464.508ZM-6.16528 643.217L154.175 482.862L150.535 479.22L-9.80493 639.575L-6.16528 643.217ZM-0.628906 535.106H21.104L-3.18494 559.398L0.454956 563.039L33.5344 529.958H-0.628906V535.106ZM-6.16528 85.7834L-9.80493 89.4254L150.535 249.78L154.175 246.138L-6.16528 85.7834ZM-914.628 564.51L-918.268 560.868L-1020.85 663.46L-955.321 728.997H-948.039L-1013.57 663.46L-914.625 564.507L-914.628 564.51ZM-89.6259 635.144H-176.416V640.292H-89.6259V635.144ZM-197.339 616.018H-116.838V610.87H-195.205L-229.756 576.315L-233.396 579.957L-197.339 616.018ZM-169.447 561.603L-173.086 565.245L-142.196 596.139L-138.556 592.497L-169.447 561.603ZM-198.865 567.489L-202.505 571.131L-177.497 596.139L-173.857 592.497L-198.865 567.489ZM-2.83557 224.789H93.1096L-3.224 128.448L-6.86365 132.087L80.6792 219.638H-2.83557V224.786V224.789ZM-76.7559 546.101V388.358H-81.9038V533.669L-128.708 486.86L-119.924 478.076L-123.563 474.437L-135.988 486.863L-76.7529 546.104L-76.7559 546.101ZM-277.675 494.255L-264.57 507.359L-229.121 471.906H-294.832V477.054H-241.552L-264.57 500.078L-274.035 490.613L-277.675 494.255ZM-124.196 457.872C-133.32 457.872 -140.744 450.446 -140.744 441.322C-140.744 432.197 -133.32 424.772 -124.196 424.772C-115.071 424.772 -107.647 432.197 -107.647 441.322C-107.647 450.446 -115.071 457.872 -124.196 457.872ZM-124.196 452.72C-117.91 452.72 -112.795 447.605 -112.795 441.319C-112.795 435.032 -117.91 429.917 -124.196 429.917C-130.482 429.917 -135.596 435.032 -135.596 441.319C-135.596 447.605 -130.482 452.72 -124.196 452.72ZM-244.469 523.318L-166.524 445.367H-319.84V450.515H-178.954L-248.109 519.676L-244.469 523.318ZM-101.027 488.396V467.8H-106.175V488.396H-101.027ZM-53.5869 366.753V361.605H-144.053V366.753H-53.5869ZM-994.413 361.605V366.753H-903.947V361.605H-994.413ZM-552.376 366.753V361.605H-878.939V366.753H-552.376ZM-541.824 350.679L-527.644 364.859L-541.824 379.038L-538.184 382.68L-538.178 382.674L-538.172 382.68L-524.001 368.507L-509.828 382.68L-509.822 382.674L-509.816 382.68L-506.176 379.038L-520.356 364.859L-506.176 350.679L-509.816 347.037L-509.822 347.043L-509.828 347.037L-524.001 361.211L-538.172 347.037L-538.178 347.043L-538.184 347.037L-541.824 350.679ZM-30.418 367.121V626.685H-25.27V102.315H-30.418V367.121ZM-495.624 361.605V366.753H-169.061V361.605H-495.624ZM-66.8242 660.152H-153.946L-108.014 706.088L-91.4834 689.556L-95.123 685.914L-108.014 698.804L-141.515 665.297H-66.8242V660.149V660.152ZM-849.131 567.489L-874.14 592.497L-870.5 596.139L-845.492 571.131L-849.131 567.489ZM-878.553 561.603L-909.444 592.497L-905.804 596.139L-874.913 565.245L-878.553 561.603ZM-1022.73 102.315V626.682H-1017.58V102.315H-1022.73ZM-931.159 616.018H-850.658L-814.601 579.957L-818.24 576.315L-852.789 610.87H-931.156V616.018H-931.159ZM-269.438 183.616L-398.869 313.058H-160.234V307.91H-386.439L-265.798 187.258L-269.438 183.616ZM-319.837 283.633H-166.521L-244.466 205.682L-248.106 209.324L-178.951 278.485H-319.837V283.633ZM-291.502 165.961L-466.534 341.007H-100.289V315.63H-105.437V335.858H-454.103L-287.862 169.6L-291.502 165.958V165.961ZM-51.7476 340.639V121.109L-149.939 219.307L-160.623 208.622L-164.263 212.264L-149.939 226.591L-56.8984 133.542V340.642H-51.7505L-51.7476 340.639ZM-140.744 287.679C-140.744 278.554 -133.32 271.129 -124.196 271.129C-115.071 271.129 -107.647 278.554 -107.647 287.679C-107.647 296.803 -115.071 304.229 -124.196 304.229C-133.32 304.229 -140.744 296.803 -140.744 287.679ZM-135.594 287.679C-135.594 293.965 -130.479 299.08 -124.193 299.08C-117.907 299.08 -112.792 293.965 -112.792 287.679C-112.792 281.392 -117.907 276.277 -124.193 276.277C-130.479 276.277 -135.594 281.392 -135.594 287.679ZM-294.832 257.094H-229.121L-264.57 221.641L-277.675 234.745L-274.035 238.387L-264.57 228.922L-241.552 251.946H-294.832V257.094ZM-151.757 264.489L-148.117 260.847L-209.164 199.796L-212.804 203.438L-151.757 264.489ZM-0.628906 199.043H33.5344L0.454956 165.961L-3.18494 169.603L21.104 193.894H-0.628906V199.043ZM-106.175 261.2H-101.027V240.604H-106.175V261.2ZM-76.7559 340.639V182.896L-135.991 242.138L-123.566 254.564L-119.927 250.922L-128.711 242.138L-81.9069 195.328V340.639H-76.7589H-76.7559ZM-3.224 600.553L93.1096 504.211H-2.83557V509.359H80.6792L-6.86365 596.911L-3.224 600.553ZM-1215.83 729H-1208.55L-1140.78 661.219L-1073 729H-1065.72L-1140.77 653.938L-1215.83 729H-1215.83ZM-1248.53 253.512V475.488L-995.039 729H-987.757L-1243.38 473.355V255.645L-987.76 8.26844e-05H-995.039L-1247.78 252.759L-1248.53 253.512H-1248.53ZM-1136.75 694.704L-1140.39 691.062L-1160.23 710.905H-1126.8V705.757H-1147.8L-1136.75 694.704H-1136.75ZM-1224.26 575.194V704.986L-1156.26 636.981L-1197.04 596.194V634.038H-1191.9V608.623L-1163.54 636.978L-1219.11 692.55V575.191H-1224.26L-1224.26 575.194ZM-1222.03 540.971L-1034.02 728.997H-1026.74L-1218.39 537.329L-1222.03 540.971ZM-435.953 99.4867L-439.593 95.8477L-466.603 122.86H-418.468V117.712H-454.176L-435.956 99.4897L-435.953 99.4867ZM-372.518 125.45L-440.532 57.431L-503.53 120.435L-499.89 124.074L-440.535 64.7119L-376.164 129.089L-372.524 125.447L-372.518 125.45ZM-499.267 8.26844e-05H-506.547L-523.998 17.4538L-541.45 8.26844e-05H-548.73L-523.998 24.7347L-499.267 8.26844e-05ZM-898.968 537.196V542.345C-794.024 542.345 -708.086 625.242 -703.166 728.997H-698.009C-700.303 678.784 -720.938 631.902 -756.712 596.124C-794.71 558.123 -845.23 537.193 -898.968 537.193V537.196ZM-699.09 68.8659L-695.451 72.5079L-667.483 44.538V2.6088L-630.691 39.4049L-741.885 150.607L-551.388 341.118L-547.748 337.476L-734.605 150.604L-623.412 39.4019L-662.81 8.26844e-05H-672.631V42.4022L-699.09 68.8659ZM-544.47 120.435L-607.468 57.431L-675.482 125.45L-671.842 129.092L-607.471 64.7149L-548.113 124.077L-544.473 120.438L-544.47 120.435ZM-728.16 700.609H-774.428L-739.106 665.282L-742.746 661.64L-786.856 705.757H-728.157V700.609H-728.16ZM176.257 153.806V24.0147L108.259 92.019L149.042 132.807V94.9621H143.894V120.374L115.541 92.019L171.109 36.4468V153.806H176.257ZM-149.032 191.804V186.656C-253.973 186.656 -339.914 103.758 -344.833 0.00309506H-349.99C-347.696 50.2163 -327.062 97.0979 -291.288 132.876C-253.29 170.877 -202.77 191.807 -149.032 191.807V191.804ZM-319.837 28.3917H-273.569L-308.891 63.7178L-305.251 67.3597L-261.138 23.2435H-319.837V28.3917ZM-292.276 96.0435L-196.24 8.26844e-05H-203.523L-295.919 92.4046L-292.279 96.0466L-292.276 96.0435ZM174.032 188.029L-13.9775 8.26844e-05H-21.257L170.396 191.668L174.035 188.026L174.032 188.029ZM-755.724 632.954L-851.76 728.997H-844.48L-752.084 636.593L-755.724 632.951V632.954ZM195.383 361.879V473.355L-60.2401 729H-52.9578L200.531 475.488V253.512L-52.9608 8.26844e-05H-60.2401L195.38 255.645V361.879H195.383ZM167.834 8.26844e-05H160.554L92.7784 67.7815L25.0056 8.26844e-05H17.7233L92.7784 75.0624L167.834 8.26844e-05ZM88.7534 34.2929L92.3931 37.9349L112.232 18.0924H78.8037V23.2405H99.802L88.7504 34.2929H88.7534ZM-372.169 176.185H-462.229V181.333H-384.599L-523.998 320.745L-663.401 181.333H-585.771V176.185H-675.828L-523.998 328.029L-372.169 176.185ZM116.315 248.325H-3.94043V480.672H116.315V475.524H1.20752V253.476H116.315V248.328V248.325ZM122.586 382.089L173.316 432.824V296.173L122.586 346.911L126.225 350.55L168.168 308.606V420.392L126.225 378.444L122.586 382.086V382.089ZM111.42 366.753H149.897V361.605H111.42V366.753ZM-91.4834 39.4441L-108.014 22.9122L-153.946 68.8478H-66.8242V63.6997H-141.515L-108.014 30.1961L-95.123 43.086L-91.4834 39.4471V39.4441ZM-629.532 122.857H-581.397L-608.407 95.8447L-612.047 99.4837L-593.824 117.706H-629.532V122.854V122.857ZM132.111 460.095L36.5239 364.5L132.111 268.902L128.471 265.261L32.8842 360.855L32.0835 360.054L28.4436 363.696L29.2445 364.497L28.4436 365.298L32.0835 368.94L32.8842 368.139L128.471 463.737L132.111 460.095ZM-133.369 164.491L-129.729 168.13L-27.1455 65.5372L-92.6755 8.26844e-05H-99.9579L-34.428 65.5372L-133.372 164.491H-133.369ZM54.5328 276.277H21.8024V341.705L85.7729 277.729L82.1333 274.09L26.9504 329.276V281.428H54.5328V276.28V276.277ZM168.924 263.79L71.8644 360.858L71.0636 360.057L67.4238 363.699L68.2246 364.5L67.4238 365.301L71.0636 368.943L71.8644 368.142L168.924 465.21L172.563 461.568L75.5042 364.5L172.563 267.432L168.924 263.79ZM85.7729 451.268L21.8024 387.292V452.72H54.5328V447.572H26.9504V399.724L82.1333 454.91L85.7729 451.268ZM-176.416 93.8566H-89.6259V88.7084H-176.416V93.8566ZM-169.447 167.395L-138.556 136.5L-142.196 132.858L-173.086 163.753L-169.447 167.395ZM-442.757 206.323L-446.396 202.682L-515.897 272.189L-512.257 275.831L-442.757 206.323ZM-129.729 560.868L-133.369 564.51L-34.4249 663.463L-99.955 729H-92.6725L-27.1395 663.463L-129.723 560.871L-129.729 560.868ZM-601.604 202.682L-605.243 206.323L-535.742 275.831L-532.103 272.189L-601.604 202.682ZM-521.485 147.552H-699.476V152.7H-348.521V147.552H-521.482H-521.485ZM-572.516 197.497L-524.001 246.017L-475.487 197.497L-479.127 193.855L-524.001 238.734L-568.876 193.855L-572.516 197.497ZM-198.865 161.511L-173.857 136.503L-177.497 132.861L-202.505 157.869L-198.865 161.511ZM-116.838 112.982H-197.339L-233.396 149.043L-229.756 152.685L-195.205 118.133H-116.838V112.985V112.982ZM-553.76 177.269L-538.317 192.717L-534.677 189.075L-550.121 173.627L-553.76 177.269ZM-509.683 192.714L-494.24 177.266L-497.879 173.624L-513.323 189.072L-509.683 192.714ZM-466.534 387.991L-291.502 563.036L-287.862 559.395L-454.103 393.139H-105.437V413.367H-100.289V387.991H-466.534ZM-418.468 606.141H-466.603L-439.593 633.153L-435.953 629.51L-454.172 611.289H-418.465V606.141H-418.468ZM-503.527 608.562L-440.529 671.566L-372.515 603.547L-376.155 599.905L-440.526 664.282L-499.881 604.921L-503.521 608.562H-503.527ZM-446.396 526.319L-442.757 522.677L-512.257 453.169L-515.897 456.811L-446.396 526.319ZM-526.515 581.445H-348.524V576.297H-521.485H-526.515H-699.476V581.445H-526.515ZM-675.482 603.55L-607.468 671.569L-544.47 608.565L-548.11 604.924L-607.468 664.285L-671.839 599.908L-675.479 603.55H-675.482ZM-612.047 629.514L-608.407 633.156L-581.397 606.144H-629.532V611.292H-593.824L-612.047 629.514ZM-591.392 729H-584.109L-523.998 668.882L-463.887 729H-456.608L-524.001 661.601L-591.395 729H-591.392ZM-348.91 660.134L-352.549 656.492L-380.517 684.462V726.388L-417.309 689.592L-306.115 578.391L-496.612 387.876L-500.252 391.518L-313.398 578.391L-424.591 689.592L-385.19 728.997H-375.369V686.592L-348.91 660.131V660.134ZM-548.733 729H-541.45L-523.998 711.546L-506.547 729H-499.264L-523.998 704.266L-548.733 729ZM-605.243 522.677L-601.604 526.319L-532.103 456.811L-535.742 453.169L-605.243 522.677ZM-631.11 729H-623.827L-523.998 629.164L-424.17 729H-416.887L-523.995 621.88L-631.104 729H-631.11ZM-475.484 531.503L-523.998 482.983L-572.513 531.503L-568.873 535.145L-523.998 490.267L-479.124 535.145L-475.484 531.503ZM-1218.39 191.668L-1026.74 8.26844e-05H-1034.02L-1222.03 188.029L-1218.39 191.671V191.668ZM-799.118 596.176L-931.93 729H-924.647L-795.475 599.818L-799.115 596.176H-799.118ZM-1065.72 8.26844e-05H-1073.01L-1140.78 67.7815L-1208.55 8.26844e-05H-1215.83L-1140.78 75.0624L-1065.72 8.26844e-05ZM-1126.8 18.0924H-1160.23L-1140.39 37.9349L-1136.75 34.2929L-1147.8 23.2405H-1126.81V18.0924H-1126.8ZM-795.478 129.183L-924.647 8.26844e-05H-931.93L-799.118 132.825L-795.478 129.183ZM-675.831 552.816H-585.774V547.667H-663.404L-524.001 408.255L-384.602 547.667H-462.232V552.816H-372.172L-524.001 400.971L-675.831 552.816ZM-734.602 578.394L-547.745 391.521L-551.385 387.879L-741.882 578.394L-630.688 689.595L-667.48 726.391V684.465L-695.447 656.495L-699.087 660.137L-672.628 686.598V729.003H-662.807L-623.406 689.598L-734.599 578.397L-734.602 578.394ZM-538.317 536.284L-553.76 551.731L-550.121 555.373L-534.677 539.926L-538.317 536.284ZM-494.237 551.731L-509.68 536.284L-513.32 539.926L-497.876 555.373L-494.237 551.731ZM-1197.04 94.9591V132.804L-1156.26 92.016L-1224.26 24.0147V153.806H-1219.11V36.4468L-1163.54 92.019L-1191.89 120.374V94.9621H-1197.04L-1197.04 94.9591ZM-1250 511.935V729H-1244.85V511.935H-1250ZM-871.584 635.144H-958.374V640.292H-871.584V635.144ZM-773.375 610.153L-892.212 729H-884.93L-769.732 613.795L-773.372 610.153H-773.375ZM-456.608 8.26844e-05H-463.887L-523.998 60.118L-584.112 8.26844e-05H-591.392L-523.998 67.3989L-456.608 8.26844e-05ZM-295.916 636.596L-203.52 729H-196.237L-292.273 632.957L-295.913 636.599L-295.916 636.596ZM-416.89 8.26844e-05H-424.173L-524.001 99.8391L-623.827 8.26844e-05H-631.107L-523.998 107.12L-416.89 8.26844e-05ZM-274.622 118.847L-155.785 8.26844e-05H-163.068L-278.265 115.208L-274.625 118.85L-274.622 118.847ZM202 217.066V8.26844e-05H196.852V217.066H202ZM202 729V511.935H196.852V729H202ZM-278.265 613.792L-163.068 728.997H-155.785L-274.622 610.15L-278.262 613.792H-278.265ZM-769.735 115.208L-884.932 8.26844e-05H-892.215L-773.378 118.847L-769.738 115.205L-769.735 115.208ZM-313.398 150.607L-500.252 337.479L-496.612 341.121L-307.937 152.429L-306.115 150.61L-417.309 39.4079L-380.517 2.61482V44.541L-352.549 72.5109L-348.91 68.8689L-375.369 42.4052V8.26844e-05H-385.19L-424.588 39.4049L-313.395 150.607H-313.398ZM17.7233 729H25.0056L92.7814 661.219L160.557 729H167.84L92.7844 653.938L17.7292 729H17.7233ZM-252.522 599.818L-123.353 729H-116.07L-248.882 596.176L-252.522 599.818ZM-319.837 705.757H-261.138L-305.251 661.64L-308.891 665.282L-273.569 700.609H-319.837V705.757ZM-149.032 542.345V537.196C-202.77 537.196 -253.29 558.123 -291.288 596.127C-327.062 631.905 -347.7 678.787 -349.99 729H-344.833C-339.914 625.245 -253.973 542.348 -149.032 542.348V542.345ZM-248.882 132.825L-116.07 8.26844e-05H-123.353L-252.522 129.183L-248.882 132.825ZM78.8037 710.905H112.232L92.3931 691.062L88.7534 694.704L99.8049 705.757H78.8066V710.905H78.8037ZM170.393 537.329L-21.26 728.997H-13.9775L174.032 540.971L170.393 537.329ZM149.045 634.038V596.194L108.262 636.981L176.26 704.986V575.194H171.112V692.553L115.544 636.981L143.897 608.626V634.041H149.045V634.038ZM-1250 217.066H-1244.85V8.26844e-05H-1250V217.066ZM-971.244 182.899V340.642H-966.096V195.331L-919.292 242.141L-928.076 250.925L-924.437 254.567L-912.012 242.141L-971.247 182.899H-971.244ZM-581.466 341.007L-756.498 165.961L-760.137 169.603L-593.897 335.861H-941.091V315.633H-946.239V341.01H-581.466V341.007ZM-878.553 167.395L-874.913 163.753L-905.804 132.858L-909.444 136.5L-878.553 167.395ZM-849.131 161.511L-845.492 157.869L-870.5 132.861L-874.14 136.503L-849.131 161.511ZM-958.374 93.8566H-871.584V88.7084H-958.374V93.8566ZM-981.173 68.8478H-894.051L-939.983 22.9122L-956.514 39.4441L-952.874 43.083L-939.983 30.1931L-906.482 63.6967H-981.173V68.8448V68.8478ZM-945.501 240.601V261.197H-940.353V240.601H-945.501ZM-803.531 205.682L-881.476 283.633H-728.16V278.485H-869.046L-799.891 209.324L-803.531 205.682ZM-923.804 271.129C-914.679 271.129 -907.256 278.554 -907.256 287.679C-907.256 296.803 -914.679 304.229 -923.804 304.229C-932.929 304.229 -940.353 296.803 -940.353 287.679C-940.353 278.554 -932.929 271.129 -923.804 271.129ZM-923.804 276.277C-930.09 276.277 -935.205 281.392 -935.205 287.679C-935.205 293.965 -930.09 299.08 -923.804 299.08C-917.518 299.08 -912.404 293.965 -912.404 287.679C-912.404 281.392 -917.518 276.277 -923.804 276.277ZM-770.325 234.745L-783.43 221.641L-818.879 257.094H-753.168V251.946H-806.448L-783.427 228.922L-773.965 238.387L-770.325 234.745ZM-850.658 112.982H-931.159V118.13H-852.792L-818.243 152.682L-814.604 149.04L-850.661 112.979L-850.658 112.982ZM-1164.31 480.672H-1044.06V248.325H-1164.31V253.473H-1049.21V475.521H-1164.31V480.669V480.672ZM-1170.58 346.911L-1221.31 296.173V432.824L-1170.58 382.089L-1174.22 378.447L-1216.16 420.395V308.609L-1174.22 350.553L-1170.58 346.914V346.911ZM-956.517 689.556L-939.986 706.088L-894.054 660.152H-981.176V665.301H-906.485L-939.986 698.807L-952.877 685.917L-956.517 689.559V689.556ZM-918.271 168.13L-914.631 164.491L-1013.57 65.5372L-948.042 8.26844e-05H-955.324L-1020.85 65.5372L-918.271 168.13ZM-1159.42 361.605H-1197.9V366.753H-1159.42V361.605ZM-1102.53 452.72H-1069.8V387.292L-1133.77 451.268L-1130.13 454.91L-1074.95 399.724V447.572H-1102.54V452.72H-1102.53ZM-1216.92 465.207L-1119.86 368.139L-1119.06 368.94L-1115.42 365.298L-1116.22 364.497L-1115.42 363.696L-1119.06 360.054L-1119.86 360.855L-1216.92 263.79L-1220.56 267.432L-1123.5 364.5L-1220.56 461.568L-1216.92 465.21V465.207ZM-1180.11 268.902L-1084.52 364.5L-1180.11 460.095L-1176.47 463.737L-1080.88 368.139L-1080.08 368.94L-1076.44 365.298L-1077.24 364.497L-1076.44 363.696L-1080.08 360.054L-1080.88 360.855L-1176.47 265.261L-1180.11 268.902ZM-1133.77 277.732L-1069.8 341.708V276.28H-1102.53V281.428H-1074.95V329.276L-1130.13 274.09L-1133.77 277.729L-1133.77 277.732ZM-752.084 92.4046L-844.48 8.26844e-05H-851.76L-755.724 96.0435L-752.084 92.4016V92.4046ZM-940.353 467.8H-945.501V488.396H-940.353V467.8ZM-661.561 307.907H-887.765V313.055H-649.131L-778.562 183.613L-782.202 187.255L-661.561 307.907ZM-896.243 464.508L-899.883 468.15L-838.835 529.202L-835.196 525.56L-896.243 464.508ZM-753.168 471.906H-818.879L-783.43 507.359L-770.325 494.252L-773.965 490.61L-783.427 500.075L-806.448 477.051H-753.168V471.903V471.906ZM-728.16 445.367H-881.476L-803.531 523.318L-799.891 519.676L-869.046 450.515H-728.16V445.367ZM-907.256 441.322C-907.256 450.446 -914.679 457.872 -923.804 457.872C-932.929 457.872 -940.353 450.446 -940.353 441.322C-940.353 432.197 -932.929 424.772 -923.804 424.772C-914.679 424.772 -907.256 432.197 -907.256 441.322ZM-912.404 441.322C-912.404 435.035 -917.518 429.92 -923.804 429.92C-930.09 429.92 -935.205 435.035 -935.205 441.322C-935.205 447.608 -930.09 452.723 -923.804 452.723C-917.518 452.723 -912.404 447.608 -912.404 441.322ZM-778.562 545.384L-649.131 415.942H-887.765V421.091H-661.561L-782.202 541.742L-778.562 545.381V545.384ZM-728.16 23.2435H-786.859L-742.749 67.3597L-739.109 63.7178L-774.431 28.3917H-728.163V23.2435H-728.16ZM-898.968 186.653V191.801C-845.23 191.801 -794.71 170.871 -756.712 132.87C-720.938 97.0918 -700.3 50.2103 -698.009 -0.00292969H-703.166C-708.086 103.752 -794.027 186.65 -898.968 186.65V186.653ZM-756.495 563.039L-581.463 387.994H-946.239V413.37H-941.091V393.142H-593.897L-760.137 559.398L-756.498 563.039H-756.495ZM-971.244 388.358V546.101L-912.009 486.86L-924.434 474.434L-928.073 478.076L-919.289 486.86L-966.093 533.669V388.358H-971.241H-971.244ZM-1041.83 85.7834L-1202.17 246.138L-1198.54 249.78L-1038.19 89.4254L-1041.83 85.7834ZM-996.252 340.639H-991.104V133.542L-898.064 226.591L-883.74 212.264L-887.38 208.622L-898.064 219.307L-996.255 121.109V340.639H-996.252ZM-896.243 264.489L-835.196 203.438L-838.835 199.796L-899.883 260.847L-896.243 264.489ZM-996.252 388.358V607.888L-898.061 509.69L-887.377 520.375L-883.737 516.733L-898.061 502.409L-991.101 595.459V388.358H-996.249H-996.252ZM-1044.78 128.448L-1141.11 224.789H-1045.16V219.641H-1128.68L-1041.14 132.09L-1044.78 128.451L-1044.78 128.448ZM-1045.16 504.211H-1141.11L-1044.77 600.553L-1041.13 596.911L-1128.68 509.359H-1045.16V504.211H-1045.16ZM-1047.37 529.958H-1081.53L-1048.45 563.039L-1044.81 559.398L-1069.1 535.106H-1047.37V529.958ZM-1041.83 643.217L-1038.19 639.575L-1198.53 479.22L-1202.17 482.862L-1041.83 643.217H-1041.83ZM-1047.37 193.894H-1069.1L-1044.81 169.603L-1048.45 165.961L-1081.53 199.043H-1047.37V193.894Z" fill="url(#paint0_linear_1_938)"/>
</g>
<defs>
<linearGradient id="paint0_linear_1_938" x1="-1250" y1="364.5" x2="202" y2="364.5" gradientUnits="userSpaceOnUse">
<stop stop-color="white"/>
<stop offset="0.1" stop-color="white" stop-opacity="0.98"/>
<stop offset="0.21" stop-color="white" stop-opacity="0.93"/>
<stop offset="0.32" stop-color="white" stop-opacity="0.85"/>
<stop offset="0.44" stop-color="white" stop-opacity="0.73"/>
<stop offset="0.55" stop-color="white" stop-opacity="0.58"/>
<stop offset="0.67" stop-color="white" stop-opacity="0.39"/>
<stop offset="0.79" stop-color="white" stop-opacity="0.18"/>
<stop offset="0.82" stop-color="white" stop-opacity="0.12"/>
<stop offset="0.85" stop-color="white" stop-opacity="0.09"/>
<stop offset="0.93" stop-color="white" stop-opacity="0.02"/>
<stop offset="1" stop-color="white" stop-opacity="0"/>
</linearGradient>
<clipPath id="clip0_1_938">
<rect width="1452" height="729" fill="white" transform="translate(-1250)"/>
</clipPath>
</defs>
</svg>
