<svg width="225" height="224" viewBox="0 0 225 224" fill="none" xmlns="http://www.w3.org/2000/svg">
<path d="M76.9891 210.399C76.9891 210.399 76.9891 211.07 76.9891 211.238C77.7455 210.819 78.7541 210.735 79.5946 210.986C81.7799 211.658 83.0406 213.925 82.3682 216.024C81.6958 218.039 79.4265 219.13 77.2412 218.459C76.4007 218.207 75.6443 217.535 75.3081 216.78C75.14 216.948 74.9719 217.199 74.8038 217.367L74.3835 217.199L75.3081 214.345L75.7283 214.513C75.5602 216.192 76.1486 217.367 77.4093 217.787C79.2584 218.375 80.351 216.78 80.7713 215.52C81.1915 214.177 81.2756 212.246 79.4265 211.658C78.1658 211.238 76.9891 211.91 76.1486 213.337L75.7283 213.169L76.6529 210.315H77.0731L76.9891 210.399Z" fill="white"/>
<path d="M69.2566 206.873C71.4419 207.88 72.5346 210.315 71.61 212.246C70.6855 214.177 68.164 215.016 65.9787 214.009C63.7934 213.001 62.7008 210.567 63.6253 208.636C64.5499 206.705 67.0713 205.865 69.2566 206.873ZM66.3149 213.421C68.164 214.261 69.5088 212.918 70.0971 211.574C70.6855 210.231 70.7695 208.384 69.0045 207.544C67.1554 206.705 65.8106 208.048 65.1382 209.391C64.5499 210.651 64.4658 212.582 66.3149 213.505V213.421Z" fill="white"/>
<path d="M57.8259 202.003L57.1535 201.583C55.8087 200.828 55.4725 200.912 54.9682 201.415L54.7161 201.667L54.3799 201.499L55.5566 199.82L61.8603 203.514L61.6922 203.85C60.5995 203.262 60.3474 203.346 59.5069 204.69L58.0781 207.124C57.3216 208.468 57.3216 208.804 58.4142 209.391L58.2462 209.727L54.4639 207.544L54.632 207.208C55.7247 207.796 55.9768 207.712 56.7333 206.369L57.994 204.186C58.7504 202.843 58.7504 202.507 57.7419 201.919L57.8259 202.003Z" fill="white"/>
<path d="M49.5051 196.462L48.9167 196.042C47.656 195.118 47.3198 195.202 46.7314 195.706L46.3952 195.958L46.1431 195.79L47.4879 194.195L53.4554 198.477L53.2032 198.813C52.1946 198.057 51.8585 198.225 50.9339 199.484L49.2529 201.751C48.3284 203.01 48.3284 203.346 49.2529 204.102L49.0008 204.438L45.4707 201.919L45.7229 201.583C46.7314 202.339 47.0676 202.171 47.9081 200.912L49.421 198.813C50.3456 197.553 50.3456 197.217 49.421 196.546L49.5051 196.462Z" fill="white"/>
<path d="M42.9492 192.516C43.7897 192.18 44.0419 191.844 43.0333 191.005L43.2854 190.669L45.891 193.019L45.6388 193.355C44.7983 192.6 44.4621 192.684 43.2854 193.271L37.5701 195.706L37.2339 195.454L38.9989 189.493C39.4192 188.234 39.4192 187.898 38.6627 187.226L38.9149 186.891L42.0247 189.661L41.7725 189.997C40.848 189.157 40.5118 189.325 40.2597 190.249L40.0075 191.005L42.1088 192.852L42.8652 192.516H42.9492ZM39.167 194.111L41.5204 193.103L39.9235 191.676L39.167 194.111Z" fill="white"/>
<path d="M36.7295 185.043C35.889 184.12 35.5528 184.204 34.4602 185.211L32.3589 187.058C31.1822 188.066 31.1822 188.402 31.9387 189.325L31.6025 189.577L28.997 186.723C27.8203 185.463 27.8203 184.204 28.6608 183.532C29.081 183.196 29.5853 183.028 30.0896 183.112C29.8375 182.273 30.0896 181.433 30.5939 180.846C31.4344 180.09 32.8632 180.174 34.124 181.601L36.9816 184.792L36.6454 185.043H36.7295ZM29.5853 186.387L30.1736 187.058L32.0227 185.379L31.4344 184.708C30.9301 184.12 30.2577 184.204 29.7534 184.708C29.2491 185.127 29.081 185.799 29.5853 186.387ZM31.6025 183.952L32.443 184.959L33.7037 183.868C34.3761 183.196 34.4602 183.028 33.8718 182.357L33.7037 182.105C33.1154 181.433 32.2749 181.517 31.6865 182.105C31.0982 182.609 30.9301 183.364 31.6025 184.036V183.952Z" fill="white"/>
<path d="M27.484 172.953C28.9129 174.885 28.6607 177.487 26.8957 178.831C25.1306 180.09 22.6092 179.502 21.1803 177.571C19.7515 175.64 20.0036 173.037 21.7687 171.778C23.5337 170.519 26.1392 171.022 27.484 172.953ZM21.6846 177.151C22.8613 178.747 24.7104 178.243 25.8871 177.403C27.0638 176.564 28.0724 174.968 26.8957 173.289C25.719 171.61 23.8699 172.114 22.6932 172.953C21.5165 173.793 20.5079 175.388 21.6846 177.067V177.151Z" fill="white"/>
<path d="M18.6589 165.397L19.3313 164.977C20.6761 164.222 20.8442 163.886 20.2559 162.879L20.5921 162.711L22.6933 166.489L22.3571 166.657C21.7688 165.565 21.4326 165.565 20.0878 166.321L17.6504 167.664C16.3056 168.42 16.1375 168.756 16.7258 169.763L16.3896 169.931L14.5405 166.573C13.616 164.894 13.8681 163.55 14.9608 162.962C15.8013 162.459 16.8939 162.711 17.7344 163.802L18.1547 162.375C18.5749 161.115 18.6589 160.36 18.3228 159.436L18.6589 159.268L19.8356 161.367L18.4068 164.977L18.5749 165.313L18.6589 165.397ZM15.1289 166.405L15.5491 167.16L18.0706 165.733L17.6504 164.977C17.1461 164.138 16.3896 164.054 15.7172 164.474C15.0448 164.894 14.6246 165.565 15.1289 166.405Z" fill="white"/>
<path d="M15.4651 156.162C16.4737 156.162 16.7259 156.078 16.2216 154.819L16.6418 154.651L18.0707 157.841L17.6504 158.009C17.2302 157.001 16.894 156.918 15.5492 156.918L9.24549 156.75L9.07739 156.414L13.1958 151.712C14.0363 150.705 14.2044 150.453 13.8682 149.529L14.2044 149.361L15.8854 153.223L15.4651 153.391C14.9608 152.216 14.6246 152.3 13.9523 152.972L13.448 153.559L14.6246 156.162H15.3811H15.4651ZM11.3467 156.078H13.9523L13.0277 154.147L11.3467 156.078Z" fill="white"/>
<path d="M6.64 147.43C7.06025 148.942 7.39645 149.109 8.15289 149.025H8.57314L8.65719 149.361L6.64 149.781L4.28662 142.141L6.21976 141.385V141.721L5.96761 141.973C5.37926 142.393 5.12711 142.645 5.63141 144.156L5.88356 145.079L10.086 143.82C11.5989 143.4 11.767 143.148 11.4308 141.973H11.8511L13.1118 146.003H12.6916C12.3554 144.996 12.0192 144.828 10.5063 145.331L6.3038 146.591L6.55595 147.514L6.64 147.43Z" fill="white"/>
<path d="M10.5062 137.103H10.086C9.83384 136.012 9.49764 135.844 7.98475 136.18L5.21113 136.768C3.69824 137.103 3.44609 137.355 3.78229 138.531H3.36204L2.4375 134.417H2.85775C3.10989 135.508 3.44609 135.676 4.95898 135.256L7.64856 134.669C9.16144 134.333 9.41359 134.081 9.16144 132.906H9.58169L10.5903 137.019L10.5062 137.103Z" fill="white"/>
<path d="M8.48891 125.014C8.82511 127.364 7.31222 129.547 5.12694 129.883C3.02571 130.135 1.00852 128.456 0.672328 126.021C0.33613 123.67 1.84902 121.487 3.95025 121.151C6.13553 120.9 8.15272 122.579 8.40486 125.014H8.48891ZM1.34472 125.937C1.59687 127.952 3.53 128.372 4.87479 128.204C6.30363 128.036 7.98462 127.112 7.73247 125.097C7.48032 123.082 5.63124 122.579 4.2024 122.831C2.77356 122.999 1.09257 123.922 1.34472 125.937Z" fill="white"/>
<path d="M2.26933 109.565H7.56444V109.985L2.18528 115.106H5.12701C6.6399 115.106 6.97609 114.855 6.97609 113.679H7.39634V117.205H6.97609C6.97609 115.946 6.6399 115.778 5.12701 115.778H2.26933C0.672395 115.778 0.420247 116.03 0.504296 117.289H0.0840493V115.106L5.12701 110.237H2.26933C0.672395 110.237 0.420247 110.489 0.504296 111.664H0V108.138H0.420247C0.420247 109.397 0.672395 109.565 2.26933 109.565Z" fill="white"/>
<path d="M4.70672 93.6972C5.63126 93.8651 6.21961 94.7047 6.13556 95.6282C5.96746 96.5517 5.12697 97.1394 4.20243 97.0555C3.27788 96.8876 2.68954 96.048 2.77359 95.1245C2.94169 94.2009 3.78218 93.6132 4.62267 93.6972H4.70672Z" fill="white"/>
<path d="M7.98468 76.066V76.4019H7.48038C6.72394 76.4019 6.38774 76.5698 5.96749 77.9971L5.6313 79.1725L7.98468 79.9281C8.48897 78.3329 8.40492 78.165 7.31228 77.8292L7.48038 77.4094L10.5902 78.4169V78.8366C9.41351 78.5008 9.16137 78.5848 8.65707 80.18L9.58161 80.4318C11.0945 80.9356 11.3466 80.7677 11.6828 79.6762V79.3404C12.2712 77.8291 12.019 77.5773 11.4307 77.1575L11.0945 76.9056V76.5698L13.1117 77.3254L11.0945 83.8741H10.6743C11.0105 82.6148 10.8424 82.2789 9.32947 81.8591L6.63989 81.0195C5.127 80.5158 4.87485 80.6837 4.53865 81.8591H4.11841L6.05154 75.6462L8.06873 76.066H7.98468Z" fill="white"/>
<path d="M16.7258 68.1739L16.3896 68.006C16.8939 66.9145 16.7258 66.5787 15.2969 65.991L12.3552 64.7316L16.5577 69.4333L16.3896 69.7691L10.1699 69.937L13.0276 71.1964C14.4564 71.8681 14.7926 71.7841 15.2969 70.6087L15.6331 70.7766L14.2043 73.967L13.8681 73.7991C14.3724 72.7076 14.2043 72.3718 12.7754 71.7841L10.254 70.6927C8.82513 70.1049 8.48893 70.1049 7.98463 71.2804L7.64844 71.1124L8.74108 68.6777L14.8767 68.5097L10.8423 63.8921L11.935 61.4573L12.2711 61.6252C11.7669 62.7166 11.935 63.0525 13.3638 63.6402L15.8853 64.7316C17.3141 65.3193 17.6503 65.3193 18.1546 64.1439L18.4908 64.3118L16.8098 68.09L16.7258 68.1739Z" fill="white"/>
<path d="M21.9369 57.4273L22.2731 57.6792L20.0878 61.3733L19.7516 61.1214C20.34 60.1139 20.2559 59.7781 18.9111 59.0225L16.4737 57.5952C15.1289 56.8396 14.7927 56.8396 14.2044 57.931L13.8682 57.6792L15.8013 54.4048C16.8099 52.7256 18.0706 52.3059 19.0792 52.9775C20.0878 53.5652 20.424 54.9085 19.4154 56.5877L18.9952 57.3433L19.6676 57.7631C21.0124 58.5187 21.3486 58.5187 21.9369 57.4273ZM16.3056 54.7406L15.8853 55.4963L18.4068 57.0075L18.8271 56.2519C19.3314 55.4123 18.9111 54.7406 18.3228 54.3208C17.6504 53.9011 16.8099 53.985 16.3896 54.8246L16.3056 54.7406Z" fill="white"/>
<path d="M28.2405 49.2833C26.8117 51.2143 24.2062 51.7181 22.4411 50.4587C20.7602 49.1994 20.508 46.5967 21.9368 44.5817C23.3657 42.6506 25.9712 42.1469 27.7362 43.4063C29.5013 44.6656 29.7534 47.3523 28.3246 49.2833H28.2405ZM22.4411 45.0015C21.2645 46.5967 22.273 48.2758 23.4497 49.1154C24.6264 49.955 26.4755 50.4587 27.6522 48.8635C28.8289 47.2683 27.8203 45.5892 26.6436 44.7496C25.4669 43.91 23.6178 43.4063 22.4411 45.0015Z" fill="white"/>
<path d="M35.0486 32.6597L37.7381 38.033L37.486 38.2849L32.6111 36.102L34.9645 40.8876L34.7124 41.1395L29.1651 38.7047C28.0725 38.201 27.6522 38.201 26.8958 38.9566L26.5596 38.6207L29.4172 35.5983L29.7534 35.8501C28.997 36.6057 29.081 37.0255 30.0056 37.3614L33.1154 38.7047L30.8461 34.087L31.1823 33.7512L35.889 35.8501L34.2921 32.7437C33.8719 31.9041 33.5357 31.7362 32.7792 32.5758L32.443 32.2399L34.7964 29.7212L35.1326 29.9731C34.3762 30.8126 34.4602 31.2324 34.9645 32.3239L35.0486 32.6597Z" fill="white"/>
<path d="M43.7897 25.2714L43.5376 25.5232L43.2014 25.2714C42.613 24.8516 42.1928 24.7676 41.0161 25.7751L40.0915 26.5307L41.6885 28.3778C43.0333 27.2863 43.0333 27.1184 42.2768 26.1949L42.613 25.943L44.7143 28.4618L44.3781 28.7136C43.6216 27.874 43.4535 27.7901 42.1087 28.8815L42.7811 29.6372C43.7897 30.8126 44.1259 30.8965 44.9664 30.1409L45.2186 29.973C46.3952 28.9655 46.3952 28.6297 46.1431 27.958L45.975 27.6222L46.2271 27.3703L47.4879 29.0495L42.1928 33.4153L41.9406 33.0794C42.8652 32.3238 42.8652 31.988 41.8566 30.7286L40.0915 28.6297C39.083 27.4543 38.7468 27.3703 37.8222 28.1259L37.5701 27.7901L42.529 23.6761L43.9578 25.1034L43.7897 25.2714Z" fill="white"/>
<path d="M50.9339 22.6687L51.3542 23.3403C52.1947 24.5997 52.5309 24.7676 53.5395 24.096L53.7916 24.4318L50.1775 26.8666L49.9254 26.5308C50.9339 25.8591 50.9339 25.5233 50.0934 24.1799L48.4965 21.8291C47.656 20.5697 47.3198 20.4018 46.3112 21.1574L46.0591 20.8216L49.253 18.6387C50.8499 17.5472 52.1947 17.7152 52.8671 18.7227C53.3714 19.4783 53.2873 20.6537 52.2787 21.5772L53.7076 21.9131C54.9683 22.2489 55.8088 22.2489 56.6493 21.9131L56.9014 22.2489L54.8843 23.6762L51.1861 22.5008L50.8499 22.6687H50.9339ZM49.6732 19.2264L48.9168 19.7301L50.5137 22.1649L51.2701 21.6612C52.1106 21.0735 52.0266 20.3179 51.6063 19.6462C51.1861 18.9745 50.4296 18.6387 49.5892 19.2264H49.6732Z" fill="white"/>
<path d="M64.7181 18.051L64.55 17.7151C65.6426 17.1274 65.6426 16.7916 64.9702 15.4483L63.5414 12.5937L63.7935 18.8906L63.4573 19.0585L58.4984 15.1964L59.9273 17.967C60.5996 19.3104 60.9358 19.4783 62.0285 18.9745L62.1966 19.3104L59.0868 20.9056L58.9187 20.5697C60.0113 19.982 60.0113 19.6462 59.3389 18.3029L58.0782 15.8681C57.4058 14.5247 57.0696 14.3568 55.9769 14.9445L55.8088 14.6087L58.1622 13.3493L63.0371 17.1274L62.7849 10.9985L65.1383 9.73914L65.3064 10.075C64.2138 10.6627 64.1297 10.9145 64.8862 12.3418L66.1469 14.8606C66.8193 16.2039 67.1555 16.3718 68.2481 15.8681L68.4162 16.2039L64.7181 18.1349V18.051Z" fill="white"/>
<path d="M75.9807 7.55625H75.6445L75.3923 7.30438C74.9721 6.71667 74.6359 6.54876 73.207 7.13646L72.1144 7.55625L72.9549 9.82312C74.5518 9.23541 74.6359 8.98354 74.2156 7.97604L74.6359 7.80813L75.8126 10.8306L75.3923 10.9985C74.9721 9.90708 74.804 9.82312 73.207 10.4108L73.5432 11.3344C74.1316 12.7617 74.3837 12.9296 75.4764 12.5098H75.7285C77.1574 11.8381 77.3254 11.5023 77.2414 10.7467V10.3269L77.4936 10.2429L78.0819 12.1739L71.6941 14.6087L71.5261 14.1889C72.6187 13.7691 72.7027 13.4333 72.1984 12.006L71.1899 9.40333C70.6015 7.97604 70.3494 7.80813 69.2567 8.22792L69.0886 7.80813L75.0561 5.54126L75.8966 7.38834L75.9807 7.55625Z" fill="white"/>
<path d="M87.7474 4.36576L89.0922 9.4872H88.672L82.3683 5.62513L83.1247 8.39575C83.545 9.90699 83.7971 10.1589 84.9738 9.82303V10.2428L81.6959 11.1664V10.7466C82.7885 10.4107 82.8726 10.0749 82.5364 8.64762L81.864 5.96096C81.4437 4.44972 81.1916 4.2818 80.0149 4.53368V4.11389L82.0321 3.61014L87.9996 7.30429L87.2431 4.53368C86.8229 3.02243 86.5707 2.85452 85.394 3.10639V2.6866L88.672 1.76306V2.18285C87.5793 2.51868 87.4953 2.77056 87.8315 4.2818L87.7474 4.36576Z" fill="white"/>
<path d="M94.3034 1.51124C92.7905 1.76312 92.5384 2.01499 92.4543 2.77061V3.1904H92.0341L91.866 1.17541L99.8506 0L100.271 2.01499H99.9347L99.7666 1.67916C99.4304 1.0075 99.1783 0.755622 97.6654 1.0075L96.6568 1.17541L97.3292 5.45727C97.5813 6.96852 97.7494 7.22039 99.0102 7.05247V7.47226L94.8077 8.14393V7.72414C95.9003 7.55622 96.0684 7.22039 95.9003 5.70915L95.2279 1.42729L94.3034 1.5952V1.51124Z" fill="white"/>
<path d="M114.559 2.51876C114.559 3.4423 113.803 4.19792 112.878 4.19792C111.954 4.19792 111.197 3.4423 111.197 2.51876C111.197 1.59522 111.954 0.8396 112.878 0.8396C113.803 0.8396 114.559 1.59522 114.559 2.51876Z" fill="white"/>
<path d="M125.065 7.38836V6.96857C126.326 7.13648 126.578 6.96857 126.83 5.37337L127.251 2.60275C127.503 1.09151 127.251 0.755675 126.074 0.587759V0.167969L130.445 0.839633V1.25942C129.184 1.09151 128.932 1.25942 128.68 2.85463L128.259 5.62524C128.007 7.13649 128.259 7.47232 129.436 7.64023V8.06002L125.065 7.38836Z" fill="white"/>
<path d="M141.455 5.45723L140.194 10.5787H139.774L136.076 4.02994L135.403 6.80056C135.067 8.3118 135.151 8.64764 136.328 8.89951V9.3193L132.798 8.47972V8.05993C134.059 8.3118 134.311 8.05993 134.731 6.63264L135.403 3.94599C135.74 2.43474 135.656 2.18287 134.479 1.84704V1.42725L136.664 1.93099L140.11 7.97597L140.783 5.20536C141.119 3.69411 141.035 3.44224 139.858 3.10641V2.68662L143.388 3.5262V3.94599C142.127 3.61015 141.875 3.94599 141.455 5.37327V5.45723Z" fill="white"/>
<path d="M146.078 8.31181C146.834 6.29682 149.188 5.28932 151.289 6.04495C152.045 6.38078 152.802 7.05244 153.138 7.80806C153.306 7.72411 153.474 7.47223 153.642 7.22036L153.978 7.38827L152.97 10.1589L152.549 9.99097C152.802 8.31181 152.213 7.1364 151.037 6.63265C149.188 5.96099 148.095 7.47223 147.591 8.81556C147.086 10.1589 147.002 12.006 148.767 12.6776C149.776 13.0974 150.784 13.0135 151.121 12.0899C151.373 11.4183 151.121 10.9985 150.196 10.6626L150.364 10.2428L154.23 11.6701L154.062 12.0899C152.886 11.6701 152.634 11.838 152.129 13.2653L151.877 13.853C151.037 13.5172 149.356 13.6012 148.515 13.2653C146.33 12.5097 145.237 10.1589 145.994 8.1439L146.078 8.31181Z" fill="white"/>
<path d="M163.98 14.1889L163.644 14.0209V13.6012C163.896 12.8455 163.812 12.5097 162.383 11.838L161.291 11.3343L160.198 13.5172C161.711 14.2728 161.963 14.1889 162.383 13.1814L162.72 13.3493L161.291 16.2878L160.954 16.1199C161.459 15.1124 161.375 14.8605 159.862 14.1889L159.442 15.1124C158.769 16.5397 158.769 16.7916 159.862 17.2953L160.114 17.4632C161.543 18.1349 161.879 18.0509 162.299 17.4632L162.551 17.1274L162.888 17.2953L161.879 19.0584L155.743 16.0359L155.911 15.7001C157.004 16.2039 157.34 16.0359 158.013 14.6926L159.273 12.1739C159.946 10.7466 159.946 10.4947 158.853 9.907L159.021 9.57117L164.821 12.4257L164.064 14.3568L163.98 14.1889Z" fill="white"/>
<path d="M174.318 20.6537L171.461 25.1034L171.04 24.8516L169.696 17.5472L168.099 19.982C167.258 21.3253 167.258 21.6612 168.351 22.3328L168.099 22.6687L165.157 20.8216L165.409 20.4858C166.418 21.1574 166.754 20.9895 167.594 19.7301L169.107 17.3793C169.948 16.036 169.948 15.7841 168.855 15.1124L169.107 14.7766L170.956 15.952L172.217 22.8366L173.73 20.4018C174.571 19.0585 174.571 18.8066 173.478 18.1349L173.73 17.7991L176.672 19.6462L176.42 19.982C175.411 19.3103 175.075 19.4783 174.234 20.7376L174.318 20.6537Z" fill="white"/>
<path d="M184.404 28.2939L183.059 29.9731C181.715 31.5683 180.034 31.5683 178.605 30.4768C177.176 29.3014 176.672 27.5383 178.016 25.9431L179.361 24.2639C180.37 23.0885 180.37 22.7527 179.361 21.9131L179.613 21.5773L182.975 24.2639L182.723 24.5998C181.799 23.8441 181.462 23.9281 180.454 25.1035L179.025 26.8666C178.1 27.9581 178.353 29.0495 179.277 29.8052C180.202 30.5608 181.378 30.5608 182.303 29.4693L183.732 27.7062C184.74 26.5308 184.74 26.195 183.732 25.4393L183.984 25.1035L186.842 27.3704L186.589 27.7062C185.665 26.9506 185.329 27.0345 184.32 28.21L184.404 28.2939Z" fill="white"/>
<path d="M184.656 35.4302L184.992 35.1784C185.833 36.018 186.169 35.934 187.262 34.8425L189.195 32.8276C190.288 31.7361 190.288 31.4003 189.447 30.5607L189.783 30.2249L192.893 33.2473L192.641 33.5832C191.8 32.7436 191.464 32.7436 190.372 33.919L188.438 35.934C187.346 37.0255 187.262 37.3613 188.186 38.2009L187.85 38.5367L184.74 35.5142L184.656 35.4302Z" fill="white"/>
<path d="M196.423 38.117C195.415 36.9416 195.078 36.9416 194.406 37.1934L193.986 37.3614L193.734 37.1095L195.415 35.9341L200.626 42.063L199.197 43.4903L198.945 43.2384L199.197 42.9026C199.617 42.3149 199.701 41.9791 198.693 40.7197L198.104 39.9641L194.742 42.8186C193.566 43.8261 193.482 44.162 194.238 45.0855L193.902 45.3374L191.128 41.9791L191.464 41.7272C192.221 42.6507 192.557 42.6507 193.818 41.6432L197.18 38.7887L196.591 38.033L196.423 38.117Z" fill="white"/>
<path d="M204.576 50.7946H201.634L201.046 51.1304C199.785 52.0539 199.617 52.3058 200.373 53.3133L200.037 53.5652L197.6 50.0389L197.936 49.7871C198.608 50.7946 198.945 50.7946 200.289 49.871L200.878 49.4512L201.886 46.6806C202.307 45.3373 202.475 44.8335 201.886 44.0779L202.223 43.826L204.66 47.2683L204.324 47.5202C203.735 46.5967 203.399 46.6806 202.979 47.7721L202.223 49.955H204.492C205.585 50.0389 205.837 49.7871 205.164 48.9475L205.5 48.6956L207.434 51.5502L207.097 51.8021C206.509 50.9625 206.005 50.8785 204.66 50.7946H204.576Z" fill="white"/>
<path d="M211.216 65.4033C210.375 65.8231 209.367 65.4033 208.947 64.6477C208.526 63.8081 208.947 62.8006 209.703 62.3808C210.543 61.961 211.552 62.3808 211.972 63.1364C212.393 63.976 211.972 64.9835 211.216 65.4033Z" fill="white"/>
<path d="M213.485 80.6837L213.737 81.4393C214.158 82.9506 214.494 83.1185 215.25 83.0345H215.671L215.755 83.3704L213.737 83.7901L211.636 76.8216H212.056C212.393 77.8291 212.729 77.997 214.242 77.4933L216.931 76.6537C218.444 76.2339 218.612 75.9821 218.276 74.8066H218.696L219.957 78.8366H219.537C219.201 77.8291 218.864 77.6612 217.352 78.165L214.914 78.9206C213.401 79.3404 213.233 79.5922 213.569 80.6837H213.485Z" fill="white"/>
<path d="M220.882 91.9341V91.5982L221.218 91.4303C221.89 91.0945 222.142 90.8426 221.806 89.3314L221.554 88.1559L219.201 88.6597C219.537 90.3389 219.705 90.4228 220.797 90.1709V90.5907L217.688 91.2624V90.8426C218.696 90.5907 218.864 90.4228 218.444 88.8276L217.436 88.9955C215.923 89.3314 215.67 89.5832 215.923 90.6747V91.0105C216.259 92.5218 216.595 92.6897 217.351 92.7736H217.772V93.1095L215.755 93.3613L214.326 86.6447H214.746C214.998 87.7361 215.334 87.9041 216.847 87.5682L219.537 86.9805C221.05 86.6447 221.302 86.3928 221.05 85.2174H221.47L222.815 91.4303L220.797 92.018L220.882 91.9341Z" fill="white"/>
<path d="M220.125 96.6357C222.226 96.3838 224.243 98.063 224.412 100.414C224.412 101.253 224.159 102.261 223.655 102.849C223.823 102.933 224.159 103.017 224.412 103.017V103.436L221.47 103.772V103.352C222.983 102.849 223.907 101.841 223.739 100.498C223.571 98.5668 221.638 98.2309 220.293 98.3149C218.948 98.3988 217.099 99.1545 217.351 101.085C217.435 102.177 217.94 103.1 218.948 102.933C219.705 102.933 219.957 102.513 219.873 101.505H220.293L220.713 105.619H220.293C220.209 104.444 219.873 104.276 218.36 104.444H217.688C217.604 103.604 216.763 102.093 216.679 101.253C216.427 98.9865 218.024 96.9716 220.209 96.7197L220.125 96.6357Z" fill="white"/>
<path d="M219.117 110.573C218.276 110.153 217.94 110.153 217.856 111.496H217.436V107.97H217.856C217.856 109.061 218.108 109.229 219.285 109.817L224.916 112.504V112.923L219.201 115.526C218.024 116.03 217.688 116.282 217.688 117.289H217.268V113.091H217.688C217.688 114.351 218.024 114.435 218.865 114.099L219.621 113.763V110.909L218.949 110.573H219.117ZM222.815 112.336L220.461 111.244V113.427L222.815 112.336Z" fill="white"/>
<path d="M216.343 126.609C216.343 126.609 216.931 126.525 217.099 126.441C216.595 125.769 216.259 124.846 216.343 124.006C216.595 121.739 218.612 120.06 220.713 120.312C222.815 120.564 224.412 122.579 224.159 124.846C224.075 125.685 223.571 126.609 222.899 127.028C223.067 127.112 223.319 127.28 223.571 127.364V127.784L220.545 127.448V127.028C222.226 126.861 223.319 126.105 223.487 124.762C223.739 122.831 221.974 122.075 220.545 121.907C219.116 121.739 217.267 122.075 217.015 124.006C216.847 125.349 217.688 126.357 219.285 126.861V127.28L216.259 126.945V126.525L216.343 126.609Z" fill="white"/>
<path d="M219.705 137.775L217.772 135.592L217.015 135.424C215.502 135.088 215.166 135.256 214.914 136.432H214.494L215.418 132.15H215.839C215.587 133.409 215.839 133.661 217.352 133.997L218.024 134.165L220.714 132.989C221.974 132.402 222.395 132.15 222.647 131.226H223.067L222.142 135.424H221.722C221.974 134.249 221.722 134.081 220.714 134.585L218.612 135.508L220.125 137.271C220.882 138.111 221.134 138.111 221.386 137.019H221.806L221.05 140.462H220.629C220.882 139.37 220.629 138.951 219.621 137.943L219.705 137.775Z" fill="white"/>
<path d="M213.569 152.3C212.729 151.964 212.308 151.04 212.645 150.117C212.981 149.277 213.905 148.774 214.83 149.109C215.67 149.445 216.091 150.453 215.754 151.292C215.418 152.132 214.494 152.552 213.569 152.3Z" fill="white"/>
<path d="M203.483 164.558L203.147 164.39L205.333 160.612L205.669 160.864C205.08 161.955 205.248 162.207 206.593 162.963L209.031 164.39C210.375 165.145 210.712 165.145 211.3 164.054L211.636 164.222L208.358 170.015L206.509 169.175L206.677 168.84H207.098C207.77 169.175 208.19 169.091 208.947 167.748L209.703 166.489L207.602 165.313C206.761 166.825 206.845 166.993 207.854 167.58L207.602 167.916L204.744 166.321L204.996 165.985C206.005 166.573 206.173 166.489 207.013 165.061L205.921 164.474C204.576 163.718 204.24 163.718 203.652 164.81L203.483 164.558Z" fill="white"/>
<path d="M200.542 177.739L200.71 177.487L201.13 177.655C201.802 177.907 202.139 177.907 203.063 176.564L203.735 175.556L201.718 174.129C200.71 175.556 200.794 175.724 201.718 176.396L201.466 176.732L198.777 174.885L199.029 174.549C199.953 175.22 200.121 175.22 201.13 173.793L200.289 173.205C199.029 172.282 198.693 172.366 198.02 173.205L197.852 173.457C196.927 174.717 197.012 175.052 197.516 175.64L197.768 175.976L197.6 176.228L196.003 174.969L199.953 169.343L200.289 169.595C199.617 170.603 199.701 170.939 200.962 171.778L203.231 173.373C204.492 174.297 204.828 174.213 205.501 173.289L205.837 173.541L202.139 178.747L200.373 177.739H200.542Z" fill="white"/>
<path d="M194.07 180.174C193.65 179.25 193.397 179.082 192.557 180.09L192.221 179.838L194.49 177.235L194.826 177.487C194.07 178.327 194.154 178.663 194.742 179.838L197.264 185.547L197.012 185.799L191.044 184.12C189.783 183.784 189.447 183.7 188.775 184.456L188.438 184.204L191.212 181.013L191.548 181.265C190.708 182.189 190.876 182.525 191.884 182.777L192.641 183.028L194.49 180.929L194.154 180.174H194.07ZM195.751 183.952L194.742 181.601L193.313 183.28L195.835 183.952H195.751Z" fill="white"/>
<path d="M186.253 190.417L185.749 189.829C184.656 188.654 184.32 188.654 183.48 189.493L183.228 189.157L186.421 186.219L186.674 186.555C185.749 187.394 185.833 187.73 186.842 188.906L188.775 190.921C189.867 192.096 190.12 192.096 191.044 191.256L191.296 191.592L188.439 194.195C187.01 195.538 185.665 195.538 184.825 194.615C184.152 193.943 184.152 192.768 184.909 191.676H183.396C182.135 191.424 181.294 191.508 180.538 192.012L180.286 191.676L182.051 189.997L185.917 190.585L186.169 190.333L186.253 190.417ZM188.018 193.691L188.691 193.103L186.758 191.004L186.085 191.592C185.329 192.264 185.497 193.019 186.085 193.607C186.59 194.195 187.43 194.363 188.102 193.691H188.018Z" fill="white"/>
<path d="M175.411 196.378L174.822 196.882C173.562 197.805 173.562 198.141 173.814 198.897L173.982 199.232L173.73 199.484L172.637 197.721L178.521 193.271L178.773 193.607C177.764 194.363 177.848 194.699 178.773 195.958L180.454 198.225C181.378 199.484 181.715 199.568 182.723 198.813L182.975 199.148L179.529 201.751L179.277 201.415C180.286 200.66 180.286 200.324 179.277 199.148L177.764 197.133C176.84 195.874 176.503 195.79 175.579 196.462L175.411 196.378Z" fill="white"/>
<path d="M167.342 207.124L167.678 206.956L168.015 207.292C168.603 207.796 168.939 207.88 170.2 207.124L171.208 206.537L169.948 204.438C168.519 205.361 168.435 205.529 169.023 206.537L168.687 206.789L167.006 204.018L167.342 203.766C167.93 204.774 168.099 204.774 169.611 203.934L169.107 203.094C168.267 201.751 168.015 201.667 167.006 202.255L166.754 202.423C165.409 203.262 165.325 203.598 165.577 204.27V204.69L165.409 204.858L164.4 203.01L170.284 199.4L170.536 199.736C169.527 200.408 169.443 200.744 170.284 202.003L171.713 204.438C172.553 205.781 172.805 205.865 173.898 205.277L174.15 205.613L168.687 208.971L167.51 207.292L167.342 207.124Z" fill="white"/>
<path d="M158.349 205.613C159.105 205.277 160.03 205.277 160.45 205.445C160.45 205.277 160.45 204.942 160.45 204.606L160.786 204.438L162.131 207.124L161.711 207.292C160.954 206.033 159.61 205.697 158.517 206.285C157.929 206.621 157.508 207.208 157.845 207.796C158.097 208.3 158.769 208.468 159.694 208.468H161.038C162.047 208.468 162.887 208.804 163.308 209.643C163.728 210.567 163.308 211.826 162.047 212.414C161.375 212.75 160.702 212.75 160.282 212.666C160.282 212.75 160.282 213.085 160.282 213.337L159.946 213.505L158.853 211.154L159.273 210.987C159.862 211.826 160.786 212.33 161.795 211.826C162.383 211.574 162.719 210.987 162.467 210.483C162.215 209.979 161.627 209.895 160.534 209.895H159.189C158.013 209.895 157.34 209.391 157.004 208.804C156.416 207.544 157.004 206.201 158.349 205.529V205.613Z" fill="white"/>
<path d="M149.524 209.475C150.364 209.139 151.205 209.307 151.625 209.475C151.625 209.307 151.793 208.972 151.625 208.636L152.045 208.468L153.138 211.238L152.717 211.406C152.045 210.147 150.784 209.643 149.608 210.147C148.935 210.399 148.599 210.987 148.767 211.574C149.019 212.078 149.608 212.33 150.616 212.414H151.961C152.97 212.582 153.81 213.002 154.146 213.925C154.483 214.933 153.894 216.108 152.717 216.528C152.045 216.78 151.373 216.78 150.868 216.528C150.868 216.612 150.868 216.948 150.868 217.199L150.448 217.367L149.524 214.933L149.944 214.765C150.448 215.688 151.289 216.276 152.381 215.856C152.97 215.604 153.39 215.1 153.138 214.597C152.97 214.093 152.381 213.925 151.205 213.841H149.86C148.683 213.589 148.095 213.002 147.843 212.414C147.338 211.154 148.095 209.811 149.524 209.307V209.475Z" fill="white"/>
<path d="M137.673 218.627L136.328 213.505H136.748L143.052 217.283L142.295 214.513C141.875 213.001 141.623 212.75 140.446 213.085V212.666L143.724 211.742V212.162C142.632 212.498 142.548 212.834 142.968 214.261L143.724 216.948C144.144 218.459 144.397 218.627 145.573 218.375V218.795L143.556 219.382L137.589 215.688L138.345 218.459C138.765 219.97 139.017 220.138 140.194 219.802V220.222L136.916 221.145V220.726C138.009 220.39 138.093 220.138 137.757 218.627H137.673Z" fill="white"/>
<path d="M126.242 220.894H126.578L126.746 221.229C127.083 221.901 127.335 222.153 128.848 221.901L130.024 221.733L129.688 219.298C128.007 219.55 127.923 219.718 128.091 220.81H127.671L127.167 217.703H127.587C127.755 218.795 127.923 218.879 129.604 218.627L129.436 217.619C129.184 216.108 128.932 215.856 127.839 216.024H127.503C125.99 216.276 125.738 216.612 125.654 217.367V217.787H125.318L125.149 215.772L131.957 214.765V215.184C130.781 215.352 130.697 215.688 130.865 217.199L131.285 219.97C131.537 221.481 131.789 221.733 132.966 221.565V221.985L126.662 222.992L126.242 220.977V220.894Z" fill="white"/>
<path d="M118.089 216.108C118.93 216.108 119.77 216.444 120.106 216.696C120.191 216.612 120.359 216.276 120.443 215.94H120.863L121.031 218.963H120.611C120.359 217.535 119.35 216.78 118.005 216.864C117.333 216.864 116.744 217.283 116.829 217.955C116.829 218.543 117.417 218.963 118.341 219.298L119.602 219.802C120.527 220.138 121.199 220.81 121.283 221.817C121.283 222.825 120.443 223.832 119.098 223.916C118.341 223.916 117.753 223.748 117.333 223.412C117.333 223.496 117.165 223.748 117.081 224H116.66L116.492 221.481H116.913C117.165 222.489 117.753 223.244 118.846 223.244C119.518 223.244 120.022 222.825 120.022 222.321C120.022 221.733 119.518 221.481 118.425 221.062L117.165 220.558C116.072 220.138 115.652 219.298 115.652 218.711C115.652 217.367 116.744 216.276 118.173 216.192L118.089 216.108Z" fill="white"/>
<path d="M108.676 216.192C109.516 216.192 110.357 216.696 110.609 217.031C110.693 216.948 110.945 216.612 110.945 216.276H111.365L111.281 219.298H110.861C110.777 217.871 109.769 216.948 108.508 216.864C107.835 216.864 107.247 217.199 107.163 217.871C107.163 218.459 107.667 218.879 108.508 219.382L109.684 220.054C110.609 220.474 111.197 221.229 111.113 222.153C111.113 223.16 110.105 224.084 108.76 224C108.003 224 107.415 223.664 107.079 223.328C106.995 223.328 106.827 223.664 106.827 223.916H106.407L106.491 221.313H106.911C106.995 222.321 107.583 223.244 108.676 223.244C109.348 223.244 109.853 222.909 109.937 222.405C109.937 221.817 109.516 221.481 108.508 220.978L107.331 220.306C106.322 219.802 105.902 218.963 105.986 218.291C105.986 216.948 107.247 216.024 108.676 216.024V216.192Z" fill="white"/>
<path d="M91.4456 218.543C91.6137 217.619 92.4542 217.032 93.3787 217.199C94.3033 217.367 94.8916 218.207 94.7235 219.13C94.5554 220.054 93.7149 220.642 92.7904 220.474C91.8659 220.306 91.2775 219.466 91.4456 218.543Z" fill="white"/>
</svg>
