<svg width="161" height="125" viewBox="0 0 161 125" fill="none" xmlns="http://www.w3.org/2000/svg">
<path d="M78.5248 31.7676C82.8954 28.5772 85.7531 23.4557 85.7531 17.6626C85.7531 8.09142 77.9365 0.283325 68.3549 0.283325C58.7733 0.283325 50.9567 8.09142 50.9567 17.6626C50.9567 23.4557 53.8144 28.5772 58.1849 31.7676C52.0493 35.0419 47.6788 41.1709 46.9223 48.3913C46.2499 46.2923 45.3254 44.3613 43.9806 42.5142C37.0885 33.027 31.121 30.3403 13.8069 27.0659L18.5977 16.8231H41.9634C43.8965 16.8231 44.8211 16.0674 45.2413 15.2279L49.6119 4.98497L48.5193 4.14539C46.5861 6.66414 45.4935 7.25184 42.7199 7.25184H17.7572L4.64552 35.7976C4.64552 35.7976 4.56147 36.1334 4.56147 36.3853C4.56147 37.1409 4.89766 37.3088 5.9903 37.3088C17.5891 37.3088 25.994 41.1709 31.7094 45.7046C37.1726 50.0704 39.7781 56.0315 39.7781 63.7556C39.7781 74.0824 31.9615 84.0734 23.4726 84.0734C21.0351 84.0734 18.2615 82.982 14.8995 80.2114C11.0333 77.1049 8.76393 76.5172 5.9903 76.5172C2.62833 76.5172 0.5271 78.1124 0.5271 81.1349C0.5271 85.7526 6.8308 88.6072 15.8241 88.6072C24.0609 88.6072 30.6168 86.7601 36.3321 82.7301C44.4008 76.7691 48.015 69.4647 48.099 58.2144C51.1248 66.3583 59.0254 72.2354 68.2708 72.2354C70.0359 72.2354 71.6328 71.9835 73.2298 71.6476L78.2727 57.7106C76.0874 60.901 72.3893 62.916 68.2708 62.916C61.4628 62.916 55.9996 57.4587 55.9996 50.6581C55.9996 43.8575 61.4628 38.4003 68.2708 38.4003C75.0788 38.4003 80.542 43.8575 80.542 50.6581C80.542 50.994 80.542 51.3298 80.542 51.6656L85.585 37.7286C83.6519 35.2099 81.2985 33.1109 78.4408 31.5997L78.5248 31.7676ZM68.4389 26.3103C63.6481 26.3103 59.7819 22.4482 59.7819 17.6626C59.7819 12.877 63.6481 9.01496 68.4389 9.01496C73.2297 9.01496 77.096 12.877 77.096 17.6626C77.096 22.4482 73.2297 26.3103 68.4389 26.3103Z" fill="white"/>
<path d="M122.315 75.8455V82.3103C122.315 82.9819 121.978 83.2338 121.222 83.2338H116.263C116.263 83.2338 115.843 83.4017 115.843 83.6536V93.3088C115.843 93.9804 115.507 94.2323 114.75 94.2323H106.681C106.009 94.2323 105.589 93.8965 105.589 93.3088V83.6536C105.589 83.6536 105.421 83.2338 105.169 83.2338H74.4906C73.8182 83.2338 73.3979 82.898 73.3979 82.3103V76.9369C73.3979 76.9369 73.3979 76.2653 73.6501 75.7615L88.863 34.7061C89.1152 34.2023 89.5354 33.9504 90.1238 33.9504H98.7808C99.5373 33.9504 99.8735 34.2863 99.6213 35.0419L85.2489 74.5022C85.2489 74.5022 85.2489 74.754 85.2489 74.838C85.2489 74.922 85.501 75.0059 85.5851 75.0059H105C105 75.0059 105.421 74.838 105.421 74.5861V67.2818C105.421 66.6101 105.757 66.3582 106.513 66.3582H114.582C115.255 66.3582 115.675 66.6941 115.675 67.2818V74.5861C115.675 74.5861 115.843 75.0059 116.095 75.0059H121.054C121.726 75.0059 122.147 75.3417 122.147 75.9294L122.315 75.8455Z" fill="white"/>
<path d="M103.319 39.4078C103.319 21.4407 112.733 5.3208 131.728 5.3208C150.723 5.3208 160.137 21.4407 160.137 39.4078C160.137 57.3748 150.723 72.1514 131.728 72.1514C112.733 72.1514 103.319 57.4587 103.319 39.4078ZM149.631 39.4078C149.631 18.0824 143.075 10.1904 131.728 10.1904C120.381 10.1904 113.825 18.0824 113.825 39.4078C113.825 60.7331 120.381 67.2818 131.728 67.2818C143.075 67.2818 149.631 61.4048 149.631 39.4078Z" fill="white"/>
<path d="M149.715 103.468H11.1174V104.475H149.715V103.468Z" fill="white"/>
<path d="M15.0676 113.375H16.4124V118.16H23.8928V113.375H25.2376V124.625H23.8928V119.168H16.4124V124.625H15.0676V113.375Z" fill="white"/>
<path d="M45.4935 118.916C45.4935 122.022 43.4763 124.793 39.3579 124.793C35.5757 124.793 33.3904 122.274 33.3904 119C33.3904 115.726 35.4916 113.207 39.526 113.207C43.2242 113.207 45.4935 115.642 45.4935 118.916ZM34.8192 118.916C34.8192 121.435 36.4162 123.702 39.4419 123.702C42.7199 123.702 44.0646 121.435 44.0646 118.916C44.0646 116.397 42.5518 114.214 39.4419 114.214C36.3321 114.214 34.8192 116.481 34.8192 118.916Z" fill="white"/>
<path d="M53.6462 113.375H54.991V123.618H61.9671L61.799 124.625H53.6462V113.375Z" fill="white"/>
<path d="M69.2795 113.375H73.8182C77.5164 113.375 80.0378 115.558 80.0378 118.916C80.0378 122.274 77.6004 124.625 73.8182 124.625H69.2795V113.375ZM70.6243 123.618H73.6501C76.928 123.618 78.609 121.603 78.609 118.916C78.609 116.565 77.1802 114.382 73.6501 114.382H70.6243V123.618Z" fill="white"/>
<path d="M89.5352 113.375V124.625H88.1904V113.375H89.5352Z" fill="white"/>
<path d="M98.6125 124.625V113.375H100.462C102.479 116.061 106.933 122.022 107.774 123.198C107.69 121.687 107.69 119.924 107.69 118.076V113.291H109.035V124.541H107.27C105.421 122.022 100.798 115.726 99.8733 114.466C99.9573 115.81 99.9573 117.657 99.9573 119.672V124.541H98.6125V124.625Z" fill="white"/>
<path d="M128.366 124.625H127.273C127.273 124.625 127.189 123.953 127.105 122.946C126.601 123.702 125.508 124.793 122.903 124.793C119.121 124.793 117.104 122.358 117.104 119.168C117.104 115.977 119.205 113.291 123.155 113.291C126.097 113.291 128.03 114.634 128.366 116.649H127.021C126.517 115.222 125.34 114.298 123.071 114.298C119.877 114.298 118.448 116.397 118.448 119.168C118.448 121.603 119.793 123.87 122.903 123.87C126.013 123.87 126.937 122.106 126.937 119.924V119.756H122.903V118.748H128.282V124.709L128.366 124.625Z" fill="white"/>
<path d="M137.527 121.603C137.948 123.03 139.04 123.87 141.057 123.87C143.327 123.87 144.167 122.946 144.167 121.771C144.167 120.595 143.495 119.84 140.721 119.252C137.78 118.664 136.603 117.825 136.603 116.229C136.603 114.634 137.948 113.291 140.889 113.291C143.831 113.291 145.176 114.802 145.344 116.229H143.999C143.747 115.138 142.907 114.298 140.889 114.298C139.124 114.298 138.116 114.97 138.116 116.145C138.116 117.321 138.956 117.741 141.31 118.244C145.092 119 145.68 120.259 145.68 121.687C145.68 123.45 144.167 124.793 141.057 124.793C137.78 124.793 136.435 123.198 136.183 121.603H137.611H137.527Z" fill="white"/>
</svg>
