<svg width="1452" height="729" viewBox="0 0 1452 729" fill="none" xmlns="http://www.w3.org/2000/svg">
<path d="M984.202 541.748L980.562 545.387L851.131 415.945H1089.77V421.093H863.561L984.202 541.745V541.748ZM1198.25 388.361H1193.1V595.462L1100.06 502.412L1085.74 516.736L1089.38 520.378L1100.06 509.693L1198.26 607.891V388.361H1198.25ZM1098.24 464.511L1037.2 525.563L1040.84 529.204L1101.88 468.153L1098.24 464.511ZM1243.83 643.22L1404.17 482.865L1400.54 479.223L1240.2 639.578L1243.83 643.22ZM1249.37 535.109H1271.1L1246.82 559.4L1250.45 563.042L1283.53 529.961H1249.37V535.109ZM1243.83 85.7863L1240.2 89.4283L1400.54 249.783L1404.17 246.141L1243.83 85.7863ZM335.372 564.512L331.732 560.871L229.149 663.463L294.679 729H301.961L236.431 663.463L335.375 564.509L335.372 564.512ZM1160.37 635.147H1073.58V640.295H1160.37V635.147ZM1052.66 616.021H1133.16V610.873H1054.8L1020.24 576.318L1016.6 579.96L1052.66 616.021ZM1080.55 561.606L1076.91 565.248L1107.8 596.142L1111.44 592.5L1080.55 561.606ZM1051.13 567.492L1047.49 571.134L1072.5 596.142L1076.14 592.5L1051.13 567.492ZM1247.16 224.792H1343.11L1246.78 128.451L1243.14 132.09L1330.68 219.641H1247.16V224.789V224.792ZM1173.24 546.104V388.361H1168.1V533.672L1121.29 486.863L1130.08 478.079L1126.44 474.44L1114.01 486.866L1173.25 546.107L1173.24 546.104ZM972.325 494.258L985.43 507.362L1020.88 471.909H955.168V477.057H1008.45L985.43 500.081L975.965 490.616L972.325 494.258ZM1125.8 457.875C1116.68 457.875 1109.26 450.449 1109.26 441.325C1109.26 432.2 1116.68 424.775 1125.8 424.775C1134.93 424.775 1142.35 432.2 1142.35 441.325C1142.35 450.449 1134.93 457.875 1125.8 457.875ZM1125.8 452.723C1132.09 452.723 1137.21 447.608 1137.21 441.322C1137.21 435.035 1132.09 429.92 1125.8 429.92C1119.52 429.92 1114.4 435.035 1114.4 441.322C1114.4 447.608 1119.52 452.723 1125.8 452.723ZM1005.53 523.321L1083.48 445.37H930.16V450.518H1071.05L1001.89 519.679L1005.53 523.321ZM1148.97 488.399V467.803H1143.83V488.399H1148.97ZM1196.41 366.756V361.608H1105.95V366.756H1196.41ZM255.587 361.608V366.756H346.053V361.608H255.587ZM697.624 366.756V361.608H371.061V366.756H697.624ZM708.176 350.682L722.356 364.861L708.176 379.041L711.816 382.683L711.822 382.677L711.828 382.683L725.999 368.51L740.172 382.683L740.178 382.677L740.184 382.683L743.824 379.041L729.644 364.861L743.824 350.682L740.184 347.04L740.178 347.046L740.172 347.04L725.999 361.214L711.828 347.04L711.822 347.046L711.816 347.04L708.176 350.682ZM1219.58 367.124V626.688H1224.73V102.318H1219.58V367.124ZM754.376 361.608V366.756H1080.94V361.608H754.376ZM1183.18 660.155H1096.05L1141.99 706.091L1158.52 689.559L1154.88 685.917L1141.99 698.807L1108.48 665.3H1183.18V660.152V660.155ZM400.869 567.492L375.86 592.5L379.5 596.142L404.508 571.134L400.869 567.492ZM371.447 561.606L340.556 592.5L344.196 596.142L375.087 565.248L371.447 561.606ZM227.27 102.318V626.685H232.418V102.318H227.27ZM318.841 616.021H399.342L435.399 579.96L431.76 576.318L397.211 610.873H318.844V616.021H318.841ZM980.562 183.619L851.131 313.061H1089.77V307.913H863.561L984.202 187.261L980.562 183.619ZM930.163 283.636H1083.48L1005.53 205.685L1001.89 209.327L1071.05 278.488H930.163V283.636ZM958.498 165.964L783.466 341.01H1149.71V315.633H1144.56V335.861H795.897L962.138 169.603L958.498 165.961V165.964ZM1198.25 340.642V121.112L1100.06 219.31L1089.38 208.625L1085.74 212.267L1100.06 226.594L1193.1 133.544V340.645H1198.25L1198.25 340.642ZM1109.26 287.682C1109.26 278.557 1116.68 271.132 1125.8 271.132C1134.93 271.132 1142.35 278.557 1142.35 287.682C1142.35 296.806 1134.93 304.231 1125.8 304.231C1116.68 304.231 1109.26 296.806 1109.26 287.682ZM1114.41 287.682C1114.41 293.968 1119.52 299.083 1125.81 299.083C1132.09 299.083 1137.21 293.968 1137.21 287.682C1137.21 281.395 1132.09 276.28 1125.81 276.28C1119.52 276.28 1114.41 281.395 1114.41 287.682ZM955.168 257.097H1020.88L985.43 221.644L972.325 234.748L975.965 238.39L985.43 228.925L1008.45 251.949H955.168V257.097ZM1098.24 264.492L1101.88 260.85L1040.84 199.799L1037.2 203.441L1098.24 264.492ZM1249.37 199.045H1283.53L1250.45 165.964L1246.82 169.606L1271.1 193.897H1249.37V199.045ZM1143.83 261.203H1148.97V240.607H1143.83V261.203ZM1173.24 340.642V182.899L1114.01 242.14L1126.43 254.567L1130.07 250.925L1121.29 242.14L1168.09 195.331V340.642H1173.24H1173.24ZM1246.78 600.556L1343.11 504.214H1247.16V509.362H1330.68L1243.14 596.914L1246.78 600.556ZM34.1664 729.003H41.4488L109.225 661.222L177 729.003H184.283L109.228 653.941L34.1724 729.003H34.1664ZM1.47214 253.515V475.491L254.961 729.003H262.243L6.62013 473.358V255.648L262.24 0.00301237H254.961L2.22477 252.762L1.46913 253.515H1.47214ZM113.25 694.707L109.61 691.065L89.7706 710.908H123.199V705.76H102.201L113.253 694.707H113.25ZM25.7429 575.197V704.988L93.7385 636.984L52.955 596.197V634.041H58.103V608.626L86.4561 636.981L30.8879 692.553V575.194H25.7399L25.7429 575.197ZM27.9677 540.974L215.978 729H223.26L31.6074 537.332L27.9677 540.974ZM814.047 99.4896L810.407 95.8507L783.397 122.863H831.532V117.714H795.824L814.044 99.4926L814.047 99.4896ZM877.482 125.453L809.468 57.4339L746.47 120.438L750.11 124.077L809.465 64.7148L873.836 129.092L877.476 125.45L877.482 125.453ZM750.733 0.00301237H743.454L726.002 17.4567L708.55 0.00301237H701.27L726.002 24.7376L750.733 0.00301237ZM351.032 537.199V542.347C455.976 542.347 541.914 625.245 546.834 729H551.991C549.697 678.787 529.062 631.905 493.288 596.127C455.29 558.126 404.77 537.196 351.032 537.196V537.199ZM550.91 68.8688L554.55 72.5108L582.517 44.5409V2.61173L619.309 39.4078L508.115 150.61L698.612 341.121L702.252 337.479L515.395 150.607L626.588 39.4048L587.19 0.00301237H577.369V42.4052L550.91 68.8688ZM705.53 120.438L642.532 57.4339L574.518 125.453L578.158 129.095L642.529 64.7178L701.887 124.08L705.527 120.441L705.53 120.438ZM521.84 700.611H475.572L510.894 665.285L507.254 661.643L463.144 705.76H521.843V700.611H521.84ZM1426.26 153.809V24.0176L1358.26 92.0219L1399.04 132.809V94.965H1393.89V120.377L1365.54 92.0219L1421.11 36.4497V153.809H1426.26ZM1100.97 191.807V186.659C996.027 186.659 910.086 103.761 905.166 0.00602474H900.009C902.304 50.2193 922.938 97.1008 958.712 132.879C996.71 170.88 1047.23 191.81 1100.97 191.81V191.807ZM930.163 28.3946H976.431L941.109 63.7207L944.749 67.3627L988.862 23.2465H930.163V28.3946ZM957.724 96.0465L1053.76 0.00301237H1046.48L954.081 92.4075L957.721 96.0495L957.724 96.0465ZM1424.03 188.032L1236.02 0.00301237H1228.74L1420.4 191.671L1424.04 188.029L1424.03 188.032ZM494.276 632.957L398.24 729H405.52L497.916 636.596L494.276 632.954V632.957ZM1445.38 361.882V473.358L1189.76 729.003H1197.04L1450.53 475.491V253.515L1197.04 0.00301237H1189.76L1445.38 255.648V361.882H1445.38ZM1417.83 0.00301237H1410.55L1342.78 67.7844L1275.01 0.00301237H1267.72L1342.78 75.0653L1417.83 0.00301237ZM1338.75 34.2959L1342.39 37.9378L1362.23 18.0953H1328.8V23.2435H1349.8L1338.75 34.2959H1338.75ZM877.831 176.188H787.771V181.336H865.401L726.002 320.748L586.599 181.336H664.229V176.188H574.172L726.002 328.032L877.831 176.188ZM1366.31 248.328H1246.06V480.675H1366.31V475.527H1251.21V253.479H1366.31V248.331V248.328ZM1372.59 382.092L1423.32 432.827V296.176L1372.59 346.914L1376.23 350.553L1418.17 308.608V420.395L1376.23 378.447L1372.59 382.089V382.092ZM1361.42 366.756H1399.9V361.608H1361.42V366.756ZM1158.52 39.447L1141.99 22.9151L1096.05 68.8508H1183.18V63.7026H1108.48L1141.99 30.199L1154.88 43.089L1158.52 39.45V39.447ZM620.468 122.86H668.603L641.593 95.8477L637.953 99.4866L656.176 117.708H620.468V122.857V122.86ZM1382.11 460.098L1286.52 364.503L1382.11 268.905L1378.47 265.263L1282.88 360.858L1282.08 360.057L1278.44 363.699L1279.24 364.5L1278.44 365.301L1282.08 368.943L1282.88 368.142L1378.47 463.74L1382.11 460.098ZM1116.63 164.494L1120.27 168.133L1222.85 65.5402L1157.32 0.00301237H1150.04L1215.57 65.5402L1116.63 164.494H1116.63ZM1304.53 276.28H1271.8V341.708L1335.77 277.732L1332.13 274.093L1276.95 329.279V281.431H1304.53V276.283V276.28ZM1418.92 263.793L1321.86 360.861L1321.06 360.06L1317.42 363.702L1318.22 364.503L1317.42 365.304L1321.06 368.946L1321.86 368.145L1418.92 465.213L1422.56 461.571L1325.5 364.503L1422.56 267.435L1418.92 263.793ZM1335.77 451.271L1271.8 387.295V452.723H1304.53V447.575H1276.95V399.727L1332.13 454.913L1335.77 451.271ZM1073.58 93.8595H1160.37V88.7113H1073.58V93.8595ZM1080.55 167.398L1111.44 136.503L1107.8 132.861L1076.91 163.756L1080.55 167.398ZM807.243 206.326L803.604 202.684L734.103 272.192L737.743 275.834L807.243 206.326ZM1120.27 560.871L1116.63 564.512L1215.58 663.466L1150.05 729.003H1157.33L1222.86 663.466L1120.28 560.874L1120.27 560.871ZM648.396 202.684L644.757 206.326L714.258 275.834L717.897 272.192L648.396 202.684ZM728.515 147.555H550.524V152.703H901.479V147.555H728.518H728.515ZM677.484 197.5L725.999 246.02L774.513 197.5L770.873 193.858L725.999 238.737L681.124 193.858L677.484 197.5ZM1051.13 161.514L1076.14 136.506L1072.5 132.864L1047.49 157.872L1051.13 161.514ZM1133.16 112.985H1052.66L1016.6 149.046L1020.24 152.688L1054.8 118.136H1133.16V112.988V112.985ZM696.24 177.272L711.684 192.72L715.323 189.078L699.879 173.63L696.24 177.272ZM740.317 192.716L755.76 177.269L752.121 173.627L736.677 189.075L740.317 192.716ZM783.466 387.994L958.498 563.039L962.138 559.397L795.897 393.142H1144.56V413.37H1149.71V387.994H783.466ZM831.532 606.143H783.397L810.407 633.155L814.047 629.513L795.827 611.292H831.535V606.143H831.532ZM746.473 608.565L809.471 671.569L877.485 603.55L873.845 599.908L809.474 664.285L750.119 604.923L746.479 608.565H746.473ZM803.604 526.322L807.243 522.68L737.743 453.172L734.103 456.814L803.604 526.322ZM723.485 581.448H901.476V576.3H728.515H723.485H550.524V581.448H723.485ZM574.518 603.553L642.532 671.572L705.53 608.568L701.89 604.926L642.532 664.288L578.161 599.911L574.521 603.553H574.518ZM637.953 629.516L641.593 633.158L668.603 606.146H620.468V611.295H656.176L637.953 629.516ZM658.608 729.003H665.89L726.002 668.885L786.113 729.003H793.392L725.999 661.604L658.605 729.003H658.608ZM901.09 660.137L897.451 656.495L869.483 684.465V726.391L832.691 689.595L943.885 578.394L753.388 387.879L749.748 391.521L936.602 578.394L825.409 689.595L864.81 729H874.631V686.595L901.09 660.134V660.137ZM701.267 729.003H708.55L726.002 711.549L743.454 729.003H750.736L726.002 704.268L701.267 729.003ZM644.757 522.68L648.396 526.322L717.897 456.814L714.258 453.172L644.757 522.68ZM618.89 729.003H626.173L726.002 629.167L825.83 729.003H833.113L726.005 621.883L618.896 729.003H618.89ZM774.516 531.506L726.002 482.986L677.487 531.506L681.127 535.148L726.002 490.27L770.876 535.148L774.516 531.506ZM31.6074 191.671L223.26 0.00301237H215.978L27.9677 188.032L31.6074 191.674V191.671ZM450.882 596.179L318.07 729.003H325.353L454.525 599.821L450.885 596.179H450.882ZM184.277 0.00301237H176.994L109.219 67.7844L41.4488 0.00301237H34.1664L109.222 75.0653L184.277 0.00301237ZM123.196 18.0953H89.7676L109.607 37.9378L113.247 34.2959L102.195 23.2435H123.193V18.0953H123.196ZM454.522 129.186L325.353 0.00301237H318.07L450.882 132.828L454.522 129.186ZM574.169 552.818H664.226V547.67H586.596L725.999 408.258L865.398 547.67H787.768V552.818H877.828L725.999 400.974L574.169 552.818ZM515.398 578.397L702.255 391.524L698.615 387.882L508.118 578.397L619.312 689.598L582.52 726.394V684.468L554.553 656.498L550.913 660.14L577.372 686.601V729.006H587.193L626.594 689.601L515.401 578.4L515.398 578.397ZM711.684 536.287L696.24 551.734L699.879 555.376L715.323 539.929L711.684 536.287ZM755.763 551.734L740.32 536.287L736.68 539.929L752.124 555.376L755.763 551.734ZM52.955 94.962V132.806L93.7385 92.0189L25.7429 24.0176V153.809H30.8909V36.4497L86.4591 92.0219L58.106 120.377V94.965H52.958L52.955 94.962ZM0 511.938V729.003H5.14799V511.938H0ZM378.416 635.147H291.626V640.295H378.416V635.147ZM476.625 610.156L357.788 729.003H365.071L480.268 613.798L476.628 610.156H476.625ZM793.392 0.00301237H786.113L726.002 60.1209L665.888 0.00301237H658.608L726.002 67.4018L793.392 0.00301237ZM954.084 636.599L1046.48 729.003H1053.76L957.727 632.96L954.087 636.602L954.084 636.599ZM833.11 0.00301237H825.827L725.999 99.8421L626.173 0.00301237H618.893L726.002 107.123L833.11 0.00301237ZM975.378 118.85L1094.21 0.00301237H1086.93L971.735 115.211L975.375 118.853L975.378 118.85ZM1452 217.069V0.00301237H1446.85V217.069H1452ZM1452 729.003V511.938H1446.85V729.003H1452ZM971.735 613.795L1086.93 729H1094.21L975.378 610.153L971.738 613.795H971.735ZM480.265 115.211L365.067 0.00301237H357.785L476.622 118.85L480.262 115.208L480.265 115.211ZM936.602 150.61L749.748 337.482L753.388 341.124L942.063 152.432L943.885 150.613L832.691 39.4109L869.483 2.61775V44.5439L897.451 72.5138L901.09 68.8719L874.631 42.4082V0.00301237H864.81L825.412 39.4078L936.605 150.61H936.602ZM1267.72 729.003H1275.01L1342.78 661.222L1410.56 729.003H1417.84L1342.78 653.941L1267.73 729.003H1267.72ZM997.478 599.821L1126.65 729.003H1133.93L1001.12 596.179L997.478 599.821ZM930.163 705.76H988.862L944.749 661.643L941.109 665.285L976.431 700.611H930.163V705.76ZM1100.97 542.347V537.199C1047.23 537.199 996.71 558.126 958.712 596.13C922.938 631.908 902.301 678.79 900.009 729.003H905.166C910.086 625.248 996.027 542.35 1100.97 542.35V542.347ZM1001.12 132.828L1133.93 0.00301237H1126.65L997.478 129.186L1001.12 132.828ZM1328.8 710.908H1362.23L1342.39 691.065L1338.75 694.707L1349.8 705.76H1328.81V710.908H1328.8ZM1420.39 537.332L1228.74 729H1236.02L1424.03 540.974L1420.39 537.332ZM1399.05 634.041V596.197L1358.26 636.984L1426.26 704.988V575.197H1421.11V692.556L1365.54 636.984L1393.9 608.629V634.044H1399.05V634.041ZM0 217.069H5.14799V0.00301237H0V217.069ZM278.756 182.902V340.645H283.904V195.334L330.708 242.144L321.924 250.928L325.563 254.57L337.988 242.144L278.753 182.902H278.756ZM668.534 341.01L493.502 165.964L489.863 169.606L656.103 335.864H308.909V315.636H303.761V341.013H668.534V341.01ZM371.447 167.398L375.087 163.756L344.196 132.861L340.556 136.503L371.447 167.398ZM400.869 161.514L404.508 157.872L379.5 132.864L375.86 136.506L400.869 161.514ZM291.626 93.8595H378.416V88.7113H291.626V93.8595ZM268.827 68.8508H355.949L310.017 22.9151L293.486 39.447L297.126 43.086L310.017 30.196L343.518 63.6996H268.827V68.8478V68.8508ZM304.499 240.604V261.2H309.647V240.604H304.499ZM446.469 205.685L368.524 283.636H521.84V278.488H380.954L450.109 209.327L446.469 205.685ZM326.196 271.132C335.321 271.132 342.744 278.557 342.744 287.682C342.744 296.806 335.321 304.231 326.196 304.231C317.071 304.231 309.647 296.806 309.647 287.682C309.647 278.557 317.071 271.132 326.196 271.132ZM326.196 276.28C319.91 276.28 314.795 281.395 314.795 287.682C314.795 293.968 319.91 299.083 326.196 299.083C332.482 299.083 337.597 293.968 337.597 287.682C337.597 281.395 332.482 276.28 326.196 276.28ZM479.675 234.748L466.57 221.644L431.121 257.097H496.832V251.949H443.552L466.573 228.925L476.035 238.39L479.675 234.748ZM399.342 112.985H318.841V118.133H397.208L431.756 152.685L435.396 149.043L399.339 112.982L399.342 112.985ZM85.6854 480.675H205.941V248.328H85.6854V253.476H200.793V475.524H85.6854V480.672V480.675ZM79.4175 346.914L28.6872 296.176V432.827L79.4175 382.092L75.7778 378.45L33.8352 420.398V308.611L75.7778 350.556L79.4175 346.917V346.914ZM293.483 689.559L310.014 706.091L355.946 660.155H268.824V665.303H343.515L310.014 698.81L297.123 685.92L293.483 689.562V689.559ZM331.729 168.133L335.369 164.494L236.425 65.5402L301.958 0.00301237H294.676L229.146 65.5402L331.729 168.133ZM90.5805 361.608H52.103V366.756H90.5805V361.608ZM147.467 452.723H180.198V387.295L116.227 451.271L119.867 454.913L175.047 399.727V447.575H147.464V452.723H147.467ZM33.0796 465.21L130.139 368.142L130.939 368.943L134.579 365.301L133.778 364.5L134.579 363.699L130.939 360.057L130.139 360.858L33.0796 263.793L29.4399 267.435L126.499 364.503L29.4399 461.571L33.0796 465.213V465.21ZM69.8922 268.905L165.479 364.503L69.8922 460.098L73.5319 463.74L169.119 368.142L169.92 368.943L173.559 365.301L172.759 364.5L173.559 363.699L169.92 360.057L169.119 360.858L73.5319 265.263L69.8922 268.905ZM116.227 277.735L180.198 341.711V276.283H147.467V281.431H175.05V329.279L119.87 274.093L116.23 277.732L116.227 277.735ZM497.916 92.4075L405.52 0.00301237H398.24L494.276 96.0465L497.916 92.4045V92.4075ZM309.647 467.803H304.499V488.399H309.647V467.803ZM588.439 307.91H362.235V313.058H600.869L471.438 183.616L467.798 187.258L588.439 307.91ZM353.757 464.511L350.117 468.153L411.165 529.204L414.804 525.563L353.757 464.511ZM496.832 471.909H431.121L466.57 507.362L479.675 494.255L476.035 490.613L466.573 500.078L443.552 477.054H496.832V471.906V471.909ZM521.84 445.37H368.524L446.469 523.321L450.109 519.679L380.954 450.518H521.84V445.37ZM342.744 441.325C342.744 450.449 335.321 457.875 326.196 457.875C317.071 457.875 309.647 450.449 309.647 441.325C309.647 432.2 317.071 424.775 326.196 424.775C335.321 424.775 342.744 432.2 342.744 441.325ZM337.597 441.325C337.597 435.038 332.482 429.923 326.196 429.923C319.91 429.923 314.795 435.038 314.795 441.325C314.795 447.611 319.91 452.726 326.196 452.726C332.482 452.726 337.597 447.611 337.597 441.325ZM471.438 545.387L600.869 415.945H362.235V421.093H588.439L467.798 541.745L471.438 545.384V545.387ZM521.84 23.2465H463.141L507.251 67.3627L510.891 63.7207L475.569 28.3946H521.837V23.2465H521.84ZM351.032 186.656V191.804C404.77 191.804 455.29 170.874 493.288 132.873C529.062 97.0948 549.7 50.2132 551.991 0H546.834C541.914 103.755 455.973 186.653 351.032 186.653V186.656ZM493.505 563.042L668.537 387.997H303.761V413.373H308.909V393.145H656.103L489.863 559.4L493.502 563.042H493.505ZM278.756 388.361V546.104L337.991 486.863L325.566 474.437L321.927 478.079L330.711 486.863L283.907 533.672V388.361H278.759H278.756ZM208.165 85.7863L47.8251 246.141L51.4648 249.783L211.805 89.4283L208.165 85.7863ZM253.748 340.642H258.896V133.544L351.936 226.594L366.26 212.267L362.62 208.625L351.936 219.31L253.745 121.112V340.642H253.748ZM353.757 264.492L414.804 203.441L411.165 199.799L350.117 260.85L353.757 264.492ZM253.748 388.361V607.891L351.939 509.693L362.623 520.378L366.263 516.736L351.939 502.412L258.899 595.462V388.361H253.751H253.748ZM205.224 128.451L108.89 224.792H204.836V219.644H121.318L208.861 132.093L205.221 128.454L205.224 128.451ZM204.839 504.214H108.893L205.227 600.556L208.867 596.914L121.324 509.362H204.842V504.214H204.839ZM202.632 529.961H168.469L201.548 563.042L205.188 559.4L180.899 535.109H202.632V529.961ZM208.165 643.22L211.805 639.578L51.4678 479.223L47.8281 482.865L208.168 643.22H208.165ZM202.632 193.897H180.899L205.188 169.606L201.548 165.964L168.469 199.045H202.632V193.897Z" fill="url(#paint0_linear_1_1308)"/>
<defs>
<linearGradient id="paint0_linear_1_1308" x1="0" y1="364.503" x2="1452" y2="364.503" gradientUnits="userSpaceOnUse">
<stop stop-color="white"/>
<stop offset="0.1" stop-color="white" stop-opacity="0.98"/>
<stop offset="0.21" stop-color="white" stop-opacity="0.93"/>
<stop offset="0.32" stop-color="white" stop-opacity="0.85"/>
<stop offset="0.44" stop-color="white" stop-opacity="0.73"/>
<stop offset="0.55" stop-color="white" stop-opacity="0.58"/>
<stop offset="0.67" stop-color="white" stop-opacity="0.39"/>
<stop offset="0.79" stop-color="white" stop-opacity="0.18"/>
<stop offset="0.82" stop-color="white" stop-opacity="0.12"/>
<stop offset="0.85" stop-color="white" stop-opacity="0.09"/>
<stop offset="0.93" stop-color="white" stop-opacity="0.02"/>
<stop offset="1" stop-color="white" stop-opacity="0"/>
</linearGradient>
</defs>
</svg>
